<svg xmlns="http://www.w3.org/2000/svg" xmlns:xlink="http://www.w3.org/1999/xlink" viewBox="0 0 261.36 346.59"><defs><style>.cls-1{fill:none;}.cls-2{isolation:isolate;}.cls-3{clip-path:url(#clip-path);}.cls-4{fill:#f1f1f4;}.cls-5{fill:url(#Áåçûìÿííûé_ãðàäèåíò_74);}.cls-15,.cls-17,.cls-32,.cls-33,.cls-34,.cls-35,.cls-36,.cls-37,.cls-38,.cls-39,.cls-40,.cls-42,.cls-44,.cls-45,.cls-46,.cls-47,.cls-50,.cls-52,.cls-53,.cls-54,.cls-55,.cls-6,.cls-7,.cls-75{opacity:0.5;}.cls-6,.cls-7{mix-blend-mode:screen;}.cls-6{fill:url(#Áåçûìÿííûé_ãðàäèåíò_83);}.cls-7{fill:url(#Áåçûìÿííûé_ãðàäèåíò_83-2);}.cls-8{fill:url(#Áåçûìÿííûé_ãðàäèåíò_26);}.cls-9{fill:url(#Áåçûìÿííûé_ãðàäèåíò_26-2);}.cls-10,.cls-11,.cls-12,.cls-41{opacity:0.76;}.cls-10,.cls-11,.cls-12,.cls-15,.cls-17,.cls-23,.cls-26,.cls-28,.cls-31,.cls-32,.cls-33,.cls-34,.cls-35,.cls-36,.cls-37,.cls-38,.cls-39,.cls-40,.cls-41,.cls-42,.cls-43,.cls-44,.cls-45,.cls-46,.cls-47,.cls-50,.cls-51,.cls-52,.cls-53,.cls-54,.cls-55,.cls-59,.cls-70,.cls-73,.cls-74,.cls-75,.cls-79,.cls-80{mix-blend-mode:multiply;}.cls-10{fill:url(#Áåçûìÿííûé_ãðàäèåíò_70);}.cls-11{fill:url(#Áåçûìÿííûé_ãðàäèåíò_70-2);}.cls-12{fill:url(#Áåçûìÿííûé_ãðàäèåíò_70-3);}.cls-13{fill:#fe9083;}.cls-14{fill:url(#Áåçûìÿííûé_ãðàäèåíò_354);}.cls-15{fill:url(#Áåçûìÿííûé_ãðàäèåíò_70-4);}.cls-16{fill:url(#Áåçûìÿííûé_ãðàäèåíò_26-3);}.cls-17{fill:url(#Áåçûìÿííûé_ãðàäèåíò_70-5);}.cls-18{fill:url(#Áåçûìÿííûé_ãðàäèåíò_178);}.cls-19{fill:url(#Áåçûìÿííûé_ãðàäèåíò_55);}.cls-20{fill:#cb4d7a;}.cls-21{fill:#ee8183;}.cls-22{fill:url(#Áåçûìÿííûé_ãðàäèåíò_71);}.cls-23,.cls-28,.cls-59,.cls-70,.cls-73,.cls-74{opacity:0.6;}.cls-23{fill:url(#Áåçûìÿííûé_ãðàäèåíò_48);}.cls-24{fill:url(#Áåçûìÿííûé_ãðàäèåíò_71-2);}.cls-25{fill:#e28183;}.cls-26,.cls-31{opacity:0.91;}.cls-26{fill:url(#Áåçûìÿííûé_ãðàäèåíò_73);}.cls-27{fill:url(#Áåçûìÿííûé_ãðàäèåíò_71-3);}.cls-28{fill:url(#Áåçûìÿííûé_ãðàäèåíò_48-2);}.cls-29{fill:url(#Áåçûìÿííûé_ãðàäèåíò_64);}.cls-30{fill:url(#Áåçûìÿííûé_ãðàäèåíò_64-2);}.cls-31{fill:url(#Áåçûìÿííûé_ãðàäèåíò_73-2);}.cls-32{fill:url(#Áåçûìÿííûé_ãðàäèåíò_70-6);}.cls-33{fill:url(#Áåçûìÿííûé_ãðàäèåíò_70-7);}.cls-34{fill:url(#Áåçûìÿííûé_ãðàäèåíò_4);}.cls-35{fill:url(#Áåçûìÿííûé_ãðàäèåíò_4-2);}.cls-36{fill:url(#Áåçûìÿííûé_ãðàäèåíò_4-3);}.cls-37{fill:url(#Áåçûìÿííûé_ãðàäèåíò_4-4);}.cls-38{fill:url(#Áåçûìÿííûé_ãðàäèåíò_4-5);}.cls-39{fill:url(#Áåçûìÿííûé_ãðàäèåíò_4-6);}.cls-40{fill:url(#Áåçûìÿííûé_ãðàäèåíò_4-7);}.cls-41{fill:url(#Áåçûìÿííûé_ãðàäèåíò_70-8);}.cls-42{fill:url(#Áåçûìÿííûé_ãðàäèåíò_70-9);}.cls-43,.cls-51{opacity:0.3;}.cls-43{fill:url(#Áåçûìÿííûé_ãðàäèåíò_70-10);}.cls-44{fill:url(#Áåçûìÿííûé_ãðàäèåíò_4-8);}.cls-45{fill:url(#Áåçûìÿííûé_ãðàäèåíò_70-11);}.cls-46{fill:url(#Áåçûìÿííûé_ãðàäèåíò_4-9);}.cls-47{fill:url(#Áåçûìÿííûé_ãðàäèåíò_4-10);}.cls-48{fill:url(#Áåçûìÿííûé_ãðàäèåíò_25);}.cls-49{fill:#fff;}.cls-50{fill:url(#Áåçûìÿííûé_ãðàäèåíò_70-12);}.cls-51{fill:url(#Áåçûìÿííûé_ãðàäèåíò_70-13);}.cls-52{fill:url(#Áåçûìÿííûé_ãðàäèåíò_70-14);}.cls-53{fill:url(#Áåçûìÿííûé_ãðàäèåíò_70-15);}.cls-54{fill:url(#Áåçûìÿííûé_ãðàäèåíò_70-16);}.cls-55{fill:#7a4ac0;}.cls-56{fill:url(#Áåçûìÿííûé_ãðàäèåíò_71-4);}.cls-57{fill:url(#Áåçûìÿííûé_ãðàäèåíò_71-5);}.cls-58{fill:url(#Áåçûìÿííûé_ãðàäèåíò_387);}.cls-59{fill:url(#Áåçûìÿííûé_ãðàäèåíò_48-3);}.cls-60{fill:#38368e;}.cls-61{fill:url(#Áåçûìÿííûé_ãðàäèåíò_59);}.cls-62{fill:url(#Áåçûìÿííûé_ãðàäèåíò_184);}.cls-63{fill:#ffebed;}.cls-64{fill:#7f9ec9;}.cls-65{fill:#131163;}.cls-66{fill:#c6659c;}.cls-67{fill:#cb5f7d;}.cls-68{fill:#9f4a8b;}.cls-69{fill:#ffbcaf;}.cls-70{fill:url(#Áåçûìÿííûé_ãðàäèåíò_48-4);}.cls-71{fill:url(#Áåçûìÿííûé_ãðàäèåíò_292);}.cls-72{fill:#d2726c;}.cls-73{fill:url(#Áåçûìÿííûé_ãðàäèåíò_35);}.cls-74{fill:url(#Áåçûìÿííûé_ãðàäèåíò_52);}.cls-75{fill:url(#Áåçûìÿííûé_ãðàäèåíò_397);}.cls-76{fill:url(#Áåçûìÿííûé_ãðàäèåíò_141);}.cls-77{fill:url(#Áåçûìÿííûé_ãðàäèåíò_141-2);}.cls-78{fill:url(#Áåçûìÿííûé_ãðàäèåíò_141-3);}.cls-79,.cls-80{opacity:0.8;}.cls-79{fill:url(#Áåçûìÿííûé_ãðàäèåíò_285);}.cls-80{fill:url(#Áåçûìÿííûé_ãðàäèåíò_285-2);}.cls-81{fill:#34c7ff;}.cls-82{fill:url(#Áåçûìÿííûé_ãðàäèåíò_141-4);}.cls-83{fill:url(#Áåçûìÿííûé_ãðàäèåíò_141-5);}.cls-84{fill:url(#Áåçûìÿííûé_ãðàäèåíò_141-6);}</style><clipPath id="clip-path"><rect class="cls-1" x="-168.83" y="-53.41" width="600" height="400"/></clipPath><linearGradient id="Áåçûìÿííûé_ãðàäèåíò_74" x1="111.39" y1="346.59" x2="111.39" y2="257.59" gradientUnits="userSpaceOnUse"><stop offset="0" stop-color="#6456c0"/><stop offset="1" stop-color="#5f2c95"/></linearGradient><radialGradient id="Áåçûìÿííûé_ãðàäèåíò_83" cx="63.67" cy="315.24" r="27.03" gradientTransform="matrix(0, 0.67, -1.72, 0, 610.14, 271.37)" gradientUnits="userSpaceOnUse"><stop offset="0" stop-color="#4b474b"/><stop offset="1"/></radialGradient><radialGradient id="Áåçûìÿííûé_ãðàäèåíò_83-2" cx="182.5" cy="299.4" r="27.03" gradientTransform="matrix(0.67, 0, 0, 1.72, 29.89, -201.67)" xlink:href="#Áåçûìÿííûé_ãðàäèåíò_83"/><linearGradient id="Áåçûìÿííûé_ãðàäèåíò_26" x1="82.6" y1="315.27" x2="105.99" y2="315.27" gradientUnits="userSpaceOnUse"><stop offset="0" stop-color="#9e8cef"/><stop offset="1" stop-color="#caafee"/></linearGradient><linearGradient id="Áåçûìÿííûé_ãðàäèåíò_26-2" x1="172.69" y1="315.27" x2="196.09" y2="315.27" gradientTransform="matrix(-1, 0, 0, 1, 309.97, 0)" xlink:href="#Áåçûìÿííûé_ãðàäèåíò_26"/><linearGradient id="Áåçûìÿííûé_ãðàäèåíò_70" x1="108.33" y1="346.59" x2="108.33" y2="257.09" gradientUnits="userSpaceOnUse"><stop offset="0" stop-color="#ccf"/><stop offset="1" stop-color="#755cbb"/></linearGradient><linearGradient id="Áåçûìÿííûé_ãðàäèåíò_70-2" x1="118.71" y1="301.99" x2="118.71" y2="277.65" xlink:href="#Áåçûìÿííûé_ãðàäèåíò_70"/><linearGradient id="Áåçûìÿííûé_ãðàäèåíò_70-3" x1="90.53" y1="293.04" x2="90.53" y2="269.2" xlink:href="#Áåçûìÿííûé_ãðàäèåíò_70"/><linearGradient id="Áåçûìÿííûé_ãðàäèåíò_354" x1="114.35" y1="122.96" x2="114.35" y2="87.51" gradientUnits="userSpaceOnUse"><stop offset="0" stop-color="#d5cdf8"/><stop offset="1" stop-color="#f3edfb"/></linearGradient><linearGradient id="Áåçûìÿííûé_ãðàäèåíò_70-4" x1="96.1" y1="104.82" x2="132.6" y2="104.82" xlink:href="#Áåçûìÿííûé_ãðàäèåíò_70"/><linearGradient id="Áåçûìÿííûé_ãðàäèåíò_26-3" x1="104.48" y1="265.03" x2="104.48" y2="85.59" xlink:href="#Áåçûìÿííûé_ãðàäèåíò_26"/><linearGradient id="Áåçûìÿííûé_ãðàäèåíò_70-5" x1="29.76" y1="153.51" x2="73.46" y2="153.51" xlink:href="#Áåçûìÿííûé_ãðàäèåíò_70"/><linearGradient id="Áåçûìÿííûé_ãðàäèåíò_178" x1="28.5" y1="203.76" x2="28.5" y2="119.85" gradientUnits="userSpaceOnUse"><stop offset="0" stop-color="#9e8cef"/><stop offset="1" stop-color="#dac7f3"/></linearGradient><linearGradient id="Áåçûìÿííûé_ãðàäèåíò_55" x1="172.7" y1="179.58" x2="229" y2="179.58" gradientUnits="userSpaceOnUse"><stop offset="0" stop-color="#a999f1"/><stop offset="1" stop-color="#dac7f3"/></linearGradient><linearGradient id="Áåçûìÿííûé_ãðàäèåíò_71" x1="9.92" y1="108.41" x2="9.92" y2="86.28" gradientUnits="userSpaceOnUse"><stop offset="0.02" stop-color="#ffc2a9"/><stop offset="1" stop-color="#ff9595"/></linearGradient><linearGradient id="Áåçûìÿííûé_ãðàäèåíò_48" x1="24.18" y1="108.31" x2="24.18" y2="71.68" gradientUnits="userSpaceOnUse"><stop offset="0" stop-color="#ffeadb"/><stop offset="0.99" stop-color="#c27cb6"/></linearGradient><linearGradient id="Áåçûìÿííûé_ãðàäèåíò_71-2" x1="22.84" y1="132.8" x2="22.84" y2="76.34" xlink:href="#Áåçûìÿííûé_ãðàäèåíò_71"/><linearGradient id="Áåçûìÿííûé_ãðàäèåíò_73" x1="12.74" y1="123.99" x2="30.49" y2="123.99" gradientUnits="userSpaceOnUse"><stop offset="0.02" stop-color="#d1a1d6"/><stop offset="0.99" stop-color="#bd89c4"/></linearGradient><linearGradient id="Áåçûìÿííûé_ãðàäèåíò_71-3" x1="230.16" y1="166.41" x2="230.16" y2="91.52" xlink:href="#Áåçûìÿííûé_ãðàäèåíò_71"/><linearGradient id="Áåçûìÿííûé_ãðàäèåíò_48-2" x1="239.08" y1="142.69" x2="239.08" y2="105.18" xlink:href="#Áåçûìÿííûé_ãðàäèåíò_48"/><linearGradient id="Áåçûìÿííûé_ãðàäèåíò_64" x1="246.48" y1="130.05" x2="246.48" y2="113.24" gradientUnits="userSpaceOnUse"><stop offset="0" stop-color="#ffb0b0"/><stop offset="0.98" stop-color="#ffc2a9"/></linearGradient><linearGradient id="Áåçûìÿííûé_ãðàäèåíò_64-2" x1="256.24" y1="132.64" x2="256.24" y2="123.42" xlink:href="#Áåçûìÿííûé_ãðàäèåíò_64"/><linearGradient id="Áåçûìÿííûé_ãðàäèåíò_73-2" x1="216.8" y1="151.02" x2="233.95" y2="151.02" xlink:href="#Áåçûìÿííûé_ãðàäèåíò_73"/><linearGradient id="Áåçûìÿííûé_ãðàäèåíò_70-6" x1="192.71" y1="210.21" x2="192.71" y2="125.7" xlink:href="#Áåçûìÿííûé_ãðàäèåíò_70"/><linearGradient id="Áåçûìÿííûé_ãðàäèåíò_70-7" x1="6.97" y1="192.87" x2="148.17" y2="192.87" xlink:href="#Áåçûìÿííûé_ãðàäèåíò_70"/><linearGradient id="Áåçûìÿííûé_ãðàäèåíò_4" x1="131.47" y1="169.53" x2="158.49" y2="169.53" gradientUnits="userSpaceOnUse"><stop offset="0" stop-color="#ccedff"/><stop offset="1" stop-color="#755cbb"/></linearGradient><linearGradient id="Áåçûìÿííûé_ãðàäèåíò_4-2" x1="106.97" y1="216.95" x2="146.67" y2="216.95" xlink:href="#Áåçûìÿííûé_ãðàäèåíò_4"/><linearGradient id="Áåçûìÿííûé_ãðàäèåíò_4-3" x1="108.75" y1="234.9" x2="151.17" y2="234.9" xlink:href="#Áåçûìÿííûé_ãðàäèåíò_4"/><linearGradient id="Áåçûìÿííûé_ãðàäèåíò_4-4" x1="72.3" y1="190.45" x2="72.3" y2="142.84" xlink:href="#Áåçûìÿííûé_ãðàäèåíò_4"/><linearGradient id="Áåçûìÿííûé_ãðàäèåíò_4-5" x1="76.13" y1="194.45" x2="76.13" y2="158.36" xlink:href="#Áåçûìÿííûé_ãðàäèåíò_4"/><linearGradient id="Áåçûìÿííûé_ãðàäèåíò_4-6" x1="19.18" y1="148.32" x2="19.18" y2="121.05" xlink:href="#Áåçûìÿííûé_ãðàäèåíò_4"/><linearGradient id="Áåçûìÿííûé_ãðàäèåíò_4-7" x1="41.16" y1="124.31" x2="52.15" y2="124.31" xlink:href="#Áåçûìÿííûé_ãðàäèåíò_4"/><linearGradient id="Áåçûìÿííûé_ãðàäèåíò_70-8" x1="160.62" y1="190.45" x2="160.62" y2="139.91" xlink:href="#Áåçûìÿííûé_ãðàäèåíò_70"/><linearGradient id="Áåçûìÿííûé_ãðàäèåíò_70-9" x1="217.44" y1="179.58" x2="217.44" y2="153.17" xlink:href="#Áåçûìÿííûé_ãðàäèåíò_70"/><linearGradient id="Áåçûìÿííûé_ãðàäèåíò_70-10" x1="187.48" y1="178.4" x2="187.48" y2="158.21" xlink:href="#Áåçûìÿííûé_ãðàäèåíò_70"/><linearGradient id="Áåçûìÿííûé_ãðàäèåíò_4-8" x1="13.39" y1="150.06" x2="13.39" y2="142.56" xlink:href="#Áåçûìÿííûé_ãðàäèåíò_4"/><linearGradient id="Áåçûìÿííûé_ãðàäèåíò_70-11" x1="33.41" y1="172.92" x2="33.41" y2="131.94" xlink:href="#Áåçûìÿííûé_ãðàäèåíò_70"/><linearGradient id="Áåçûìÿííûé_ãðàäèåíò_4-9" x1="138.84" y1="144.08" x2="138.84" y2="113.24" xlink:href="#Áåçûìÿííûé_ãðàäèåíò_4"/><linearGradient id="Áåçûìÿííûé_ãðàäèåíò_4-10" x1="98.44" y1="139.91" x2="98.44" y2="97.35" xlink:href="#Áåçûìÿííûé_ãðàäèåíò_4"/><linearGradient id="Áåçûìÿííûé_ãðàäèåíò_25" x1="84.17" y1="147.69" x2="155.25" y2="147.69" gradientUnits="userSpaceOnUse"><stop offset="0" stop-color="#8642a0"/><stop offset="1" stop-color="#6456c0"/></linearGradient><linearGradient id="Áåçûìÿííûé_ãðàäèåíò_70-12" x1="89.05" y1="106.38" x2="137.03" y2="106.38" xlink:href="#Áåçûìÿííûé_ãðàäèåíò_70"/><linearGradient id="Áåçûìÿííûé_ãðàäèåíò_70-13" x1="209.12" y1="176.57" x2="209.12" y2="149.8" xlink:href="#Áåçûìÿííûé_ãðàäèåíò_70"/><linearGradient id="Áåçûìÿííûé_ãðàäèåíò_70-14" x1="171.06" y1="206.77" x2="171.06" y2="125.7" xlink:href="#Áåçûìÿííûé_ãðàäèåíò_70"/><linearGradient id="Áåçûìÿííûé_ãðàäèåíò_70-15" x1="84.12" y1="244.85" x2="84.12" y2="221.61" xlink:href="#Áåçûìÿííûé_ãðàäèåíò_70"/><linearGradient id="Áåçûìÿííûé_ãðàäèåíò_70-16" x1="129.26" y1="238.47" x2="129.26" y2="227.18" xlink:href="#Áåçûìÿííûé_ãðàäèåíò_70"/><linearGradient id="Áåçûìÿííûé_ãðàäèåíò_71-4" x1="128.81" y1="93.4" x2="128.81" y2="16.2" xlink:href="#Áåçûìÿííûé_ãðàäèåíò_71"/><linearGradient id="Áåçûìÿííûé_ãðàäèåíò_71-5" x1="99.98" y1="62.25" x2="99.98" y2="39.49" xlink:href="#Áåçûìÿííûé_ãðàäèåíò_71"/><linearGradient id="Áåçûìÿííûé_ãðàäèåíò_387" x1="139.5" y1="70.86" x2="140.45" y2="65.89" gradientUnits="userSpaceOnUse"><stop offset="0" stop-color="#e1616a"/><stop offset="1" stop-color="#ff8883"/></linearGradient><linearGradient id="Áåçûìÿííûé_ãðàäèåíò_48-3" x1="130.88" y1="66.76" x2="130.88" y2="17.02" xlink:href="#Áåçûìÿííûé_ãðàäèåíò_48"/><linearGradient id="Áåçûìÿííûé_ãðàäèåíò_59" x1="128.46" y1="46.69" x2="128.46" y2="36.83" gradientUnits="userSpaceOnUse"><stop offset="0" stop-color="#cf6074"/><stop offset="1" stop-color="#f37270"/></linearGradient><linearGradient id="Áåçûìÿííûé_ãðàäèåíò_184" x1="148.11" y1="49.81" x2="148.11" y2="41.24" gradientUnits="userSpaceOnUse"><stop offset="0" stop-color="#cf6074"/><stop offset="1" stop-color="#ff817f"/></linearGradient><linearGradient id="Áåçûìÿííûé_ãðàäèåíò_48-4" x1="148.96" y1="54.8" x2="148.96" y2="35.51" xlink:href="#Áåçûìÿííûé_ãðàäèåíò_48"/><linearGradient id="Áåçûìÿííûé_ãðàäèåíò_292" x1="129.8" y1="94.37" x2="129.8" y2="0.74" gradientUnits="userSpaceOnUse"><stop offset="0" stop-color="#2e33a0"/><stop offset="1" stop-color="#0665a5"/></linearGradient><linearGradient id="Áåçûìÿííûé_ãðàäèåíò_35" x1="154.4" y1="35.41" x2="154.4" y2="13.81" gradientUnits="userSpaceOnUse"><stop offset="0" stop-color="#ffeadb"/><stop offset="0.99" stop-color="#8860c7"/></linearGradient><linearGradient id="Áåçûìÿííûé_ãðàäèåíò_52" x1="124.96" y1="94.37" x2="124.96" y2="0.74" gradientUnits="userSpaceOnUse"><stop offset="0" stop-color="#ccc2db"/><stop offset="0.99" stop-color="#8860c7"/></linearGradient><linearGradient id="Áåçûìÿííûé_ãðàäèåíò_397" x1="131.24" y1="94.35" x2="131.24" y2="90.33" gradientUnits="userSpaceOnUse"><stop offset="0" stop-color="#776d7e"/><stop offset="1" stop-color="#9d68c2"/></linearGradient><linearGradient id="Áåçûìÿííûé_ãðàäèåíò_141" x1="143.04" y1="7.46" x2="143.04" y2="4.47" gradientUnits="userSpaceOnUse"><stop offset="0" stop-color="#1f77d1"/><stop offset="1" stop-color="#0686c9"/></linearGradient><linearGradient id="Áåçûìÿííûé_ãðàäèåíò_141-2" x1="124" y1="17.3" x2="124" y2="8.46" xlink:href="#Áåçûìÿííûé_ãðàäèåíò_141"/><linearGradient id="Áåçûìÿííûé_ãðàäèåíò_141-3" x1="156.02" y1="21.78" x2="156.02" y2="13.81" xlink:href="#Áåçûìÿííûé_ãðàäèåíò_141"/><linearGradient id="Áåçûìÿííûé_ãðàäèåíò_285" x1="103.3" y1="56.85" x2="93.1" y2="44.36" gradientUnits="userSpaceOnUse"><stop offset="0" stop-color="#ffeadb"/><stop offset="0.99" stop-color="#b060f4"/></linearGradient><linearGradient id="Áåçûìÿííûé_ãðàäèåíò_285-2" x1="104.37" y1="55.24" x2="99.35" y2="49.1" xlink:href="#Áåçûìÿííûé_ãðàäèåíò_285"/><linearGradient id="Áåçûìÿííûé_ãðàäèåíò_141-4" x1="123.41" y1="18.09" x2="140.68" y2="18.09" xlink:href="#Áåçûìÿííûé_ãðàäèåíò_141"/><linearGradient id="Áåçûìÿííûé_ãðàäèåíò_141-5" x1="147.77" y1="69.73" x2="153" y2="69.73" xlink:href="#Áåçûìÿííûé_ãðàäèåíò_141"/><linearGradient id="Áåçûìÿííûé_ãðàäèåíò_141-6" x1="141.3" y1="65.84" x2="146.95" y2="65.84" xlink:href="#Áåçûìÿííûé_ãðàäèåíò_141"/></defs><g class="cls-2"><g id="illustration"><g class="cls-3"><rect class="cls-1" x="-168.83" y="-53.41" width="600" height="400"/><path class="cls-4" d="M13.74,152.31l.27-8.94,2.53.08-.27,8.94Z"/><path class="cls-4" d="M25.66,148.84c0-.13,0-.27,0-.41a3.43,3.43,0,0,0,0-.38v-.11l2.5.08L28,152.4c0,.23-.11.34-.32.34L21,152.53a5.11,5.11,0,0,1-1.69-.3,2.66,2.66,0,0,1-1.7-1.89,4.89,4.89,0,0,1-.15-1.47l.06-1.84a4.7,4.7,0,0,1,.24-1.46,2.66,2.66,0,0,1,.66-1.1,2.73,2.73,0,0,1,1.15-.68,5.12,5.12,0,0,1,1.7-.2l6.7.2a.32.32,0,0,1,.34.38l-.06,1.93-2.37.79h-.1l0-.86c0-.09,0-.13-.11-.13l-4.27-.13a2.25,2.25,0,0,0-.62,0,.85.85,0,0,0-.42.22,1,1,0,0,0-.25.43,3.06,3.06,0,0,0-.1.68l0,1.58a1.6,1.6,0,0,0,.27,1.14,1.41,1.41,0,0,0,1,.35l4.24.13c.09,0,.14,0,.14-.15Z"/><path class="cls-4" d="M33.48,144a.75.75,0,0,1,.4.1.71.71,0,0,1,.21.28l3.19,6.52a.29.29,0,0,0,.23.16h.14a.17.17,0,0,0,.2-.19l.2-6.73,2.3.07-.26,8.59c0,.23-.13.35-.35.34L36.1,153a.81.81,0,0,1-.39-.08.79.79,0,0,1-.23-.29l-3.32-6.52a.25.25,0,0,0-.22-.16h-.13a.17.17,0,0,0-.2.19l-.2,6.72-2.3-.07.26-8.58c0-.24.12-.36.35-.35Z"/><path class="cls-5" d="M177.37,346.59H130.54c-4.94-27.41-16.41-63.07-16.41-63.07-2.79-1.66-8.24.38-8.24.38L88.65,346.59H45.57C43.29,307.9,64.46,264,64.46,264h0a4.72,4.72,0,0,1-.57-2.4,5.75,5.75,0,0,1,1.61-1.86c1.16-1.07,2.55-2.13,2.55-2.13h80.17l1.84,1h0c1.74,1.06,4.11,2.7,4.11,3.89a5.47,5.47,0,0,1-.81,3l0,.05C170.49,297.84,177.37,346.59,177.37,346.59Z"/><ellipse class="cls-6" cx="67.67" cy="314.09" rx="46.52" ry="18.07" transform="translate(-253.59 309.06) rotate(-76.94)"/><ellipse class="cls-7" cx="151.67" cy="313.59" rx="18.08" ry="46.48" transform="translate(-79.52 53.02) rotate(-15.77)"/><path class="cls-8" d="M83.09,346.63l-.49-.08c5.46-32.2,19.33-59.21,19.47-59.47l.06-.08,3.53-3.09.33.38-3.49,3.06C101.87,288.57,88.44,315.1,83.09,346.63Z"/><path class="cls-9" d="M136.78,346.63c-5.36-31.55-19.16-58.34-19.78-59.54l-3.13-2.8.34-.38,3.21,2.91c.14.27,14.39,27.53,19.85,59.73Z"/><path class="cls-10" d="M154.33,262a5.55,5.55,0,0,1-.81,3l0,.05c-16.74,3.78-29.47,19.4-29.47,19.4,9.12,17.5,24.33,62.13,24.33,62.13H130.47c-4.94-27.41-16.41-63.07-16.41-63.07-2.79-1.66-8.24.38-8.24.38L88.58,346.59H77.43c4-26.26,15.78-58.33,15.78-58.33C81.62,274.77,64.39,264,64.39,264h0l-2-1.28,1.48-1.12c7.46,7.16,31.5,16.5,32.24,16.79L65.42,259.72c1.16-1.07,2.55-2.13,2.55-2.13l80.37-.5s.81.41,1.85,1l-22,12.08Z"/><polygon class="cls-11" points="114.04 283.72 123.39 277.65 121.17 283.72 119.54 301.99 114.04 283.72"/><polygon class="cls-12" points="105.83 284.1 96.09 278.59 75.23 269.2 101.79 286.75 103.37 293.04 105.83 284.1"/><path class="cls-13" d="M132.19,96.23c.06.42.11.65.11.65-.49,2-1.05,3.92-1.65,5.64a45.93,45.93,0,0,1-6.21,12.07,23.55,23.55,0,0,1-2.7,3.16C107.21,113.19,100.05,99,97.3,91.92a.36.36,0,0,1,0-.11c-.52-1.34-.87-2.41-1.09-3.11h0c-.17-.56-.25-.87-.25-.87l.18-.36,0,0c.24-.5.48-1,.7-1.5a71.15,71.15,0,0,0,4-11.12c.71-2.61,1.08-4.62,1.26-5.68.09-.55.13-.85.13-.85L109,71.84,132.3,84.18a38.18,38.18,0,0,0-.5,5.91c0,1.25,0,2.36.09,3.31.07,1.15.19,2.07.28,2.67h0A.68.68,0,0,0,132.19,96.23Z"/><path class="cls-14" d="M125.72,119.37a20.12,20.12,0,0,1-4.82,3.52l-.12.07-.14-.08h0c-.51-.31-2.24-1.37-4.57-3.12-6.09-4.59-16.27-13.87-19.17-26.38l0-.05a30.67,30.67,0,0,1-.7-4.57h0c0-.4-.06-.81-.07-1.23a64.34,64.34,0,0,0,5.52,9.88c4.13,6,10.31,12.61,17.7,12.65,6.39,0,9.66-4.33,11.33-8.36A23.54,23.54,0,0,0,132,97.1a0,0,0,0,0,0,0c.07-.36.12-.68.17-1h0c0-.14,0-.26.05-.37.06-.44.08-.7.08-.7S134.75,110.34,125.72,119.37Z"/><path class="cls-15" d="M125.72,119.05a20.17,20.17,0,0,1-4.82,3.54h-.27c-.51-.31-2.24-1.38-4.57-3.14C110,114.82,99.79,105.5,96.89,92.94l0,0a31.14,31.14,0,0,1-.7-4.59h0c0-.41-.06-.82-.07-1.24A64.64,64.64,0,0,0,101.62,97s4,11.1,12.73,16.6c4.36,2.75,7.66,2.35,10.09.73a15,15,0,0,0,4.93-6.54,15.38,15.38,0,0,0,1.28-5.58q0-.5,0-.9a23.48,23.48,0,0,0,1.34-4.6,0,0,0,0,0,0,0c.07-.36.12-.68.17-1h0c0-.14,0-.26.05-.37.06-.45.08-.71.08-.71S134.75,110,125.72,119.05Z"/><path class="cls-16" d="M182,210l-.16.08c-.81.1-3.34-.46-6.66-3.33h0s0,0,0,0l0,0c-2.78-2.44-6.12-6.5-9.45-13.15-6.65-13.31-8.56-22.19-8.87-23.74l0-.23-3.88,6.15c-2.64,7.92-7.62,40.68-7.53,42.09s4.42,8.29,4.33,9.13v0c-.12.86-2.07,2.74-2.62,4.78-.38,1.36,2.26,5.65,4.12,8.86v.1a13.31,13.31,0,0,1,1.71,3.58c0,1.51-4.71,8.9-4.71,8.9v4l-.07.07-.22.2-.18.15c-1.79,1.42-9.37,6.07-33,7.35-28.06,1.51-46.76-7.58-46.76-7.58l1.41-3.89s-1.31-1.13-1.41-1.7,1-1.9,1-1.9-2.82-1.51-2.82-3.41,5.65-7.76,5.46-12.79-4.52-9.47-5.09-12.31,7.34-9.85,7.34-9.85c-6.77-21.6-8.09-50.59-8.09-50.59l-1.31-1.52S56.32,177.89,49,187c-.87,1.08-1.8,2.15-2.75,3.18a80.64,80.64,0,0,1-6.32,6.15c-5.09,4.46-9.7,7.39-10.88,7.16-1.88-.38-9.41-15.35-9.07-30.7.16-7.3,4.53-15.47,9.07-22,.49-.7,1-1.39,1.47-2.06a104.94,104.94,0,0,1,7.79-9.45c.58-.62.91-1,.91-1s-1-3.35-1.74-6.26a1.6,1.6,0,0,0-.05-.21.36.36,0,0,0,0-.1.31.31,0,0,0,0-.07c-.42-1.79-.68-3.34-.44-3.72.63-1,4.27-2.15,4.9-2.9s3.26-13.52,5.26-14.91,5.32-2.3,16.61-6.77l1.72-.68c12.67-5,25.09-11.18,25.09-11.18l4.77-5.9h1l-.71,1.5,0,0c.34,1.52.74,3,1.18,4.37a.36.36,0,0,0,0,.11c6.65,20.82,23.77,27.53,23.77,27.53,11.9-8.71,11.67-22.54,11.67-22.54v-1.9l2.23.66,1.52,3.6s2.58,4,12.8,8.44a60.86,60.86,0,0,1,5.62,2.85c9.36,5.27,19.76,13.42,20.56,15.15a5.61,5.61,0,0,1,.27.86V127c1.08,4.25,3.31,20.18,5.37,25.86a13,13,0,0,0,4.83,6.51h0a7.48,7.48,0,0,0,1.93,1c.16.87.31,1.74.44,2.59C192.09,190.17,183.87,208.65,182,210Z"/><path class="cls-17" d="M73.46,158.36l-8.24,2.77-1.32-1.52s-8.15,18.57-15.54,27.66c-.88,1.08-1.81,2.15-2.77,3.18a81,81,0,0,1-6.36,6.15L33,169.53,29.76,149a104.89,104.89,0,0,1,7.84-9.45c.58-.62.91-.95.91-.95s-1-3.35-1.75-6.26a1.6,1.6,0,0,0,0-.21.36.36,0,0,0,0-.1.31.31,0,0,0,0-.07c-.42-1.79-.68-3.34-.44-3.72.63-1,4.3-2.15,4.93-2.9s3.28-13.52,5.3-14.91c0,0-1.32,12.25,5.69,27.79l3.41,4.8,10,8S69.33,156.05,73.46,158.36Z"/><path class="cls-18" d="M49.71,180.52c-1.77,13.13-21.34,23.24-21.34,23.24-4.36,0-9.23-7.58-13.65-16.93S10,150.62,9.8,149s-2.7-5-2.85-6.4,4-4.36,4-4.36l0-.07,0-.07C10.44,137.14,8,132,8.19,131S13,127.69,13,127.69l.29,5.11s10.78-2,14.43-10.39l.64-2.56,1.8,1.2v11s.37,1.71.94,1.71,4.77-2.1,5.65-1.81,1.76,6.17,2.94,6.92,4.3,2.94,4.77,4a19,19,0,0,1,.25,4.15,42.4,42.4,0,0,0,.41,6.94C45.8,156.86,51.48,167.38,49.71,180.52Z"/><path class="cls-19" d="M228.61,169.27c-.88,1.39-5.3,4.3-6.44,5.44s0,4.87,0,4.87a153.35,153.35,0,0,1-39.88,30.54l-.16.08c-11.66-7.84-10.66-20.75-6.79-31.63a82.1,82.1,0,0,1,10.32-19.38h0a24.41,24.41,0,0,1,5.92-1.64,3.59,3.59,0,0,1,2.19.68c1.42.88,2.62,2.27,3.78,1.69,1.71-.86,5.53-9.89,8.12-10.14,1.81-.17,4.32,1.67,6,2.72.73.46,1.3.77,1.58.69,1-.25,4.17-4.11,4.43-4.21s1.72,1,1.72,1l-1,1.28a35,35,0,0,0,6.76,15.22l3.47-5.08S229.5,167.88,228.61,169.27Z"/><path class="cls-20" d="M132.68,95.85c0,.13,0,.26-.05.39a7.73,7.73,0,0,1-.19.8v0c-1.19,4.41-6,8.92-12.07,6.75-6.63-2.37-19.25-29.1-19.25-29.1L102.38,69l30,24.4.33,2.31Z"/><path class="cls-21" d="M33,91.38s-1.83-10.1-1-17.56a80.83,80.83,0,0,0-.21-15.91,4.06,4.06,0,0,0-3.14,0c-1.33.75-4.42,8.46-3,14.65s.31,21,.31,21H23.79l-4.55-6.25L17,86.71S4.31,98.71,4.5,105.84l1.66,6.35,15.67-.54L32.06,100Z"/><path class="cls-22" d="M16.86,86.29A80.69,80.69,0,0,0,19,101.06a3.54,3.54,0,0,1-3.57,3l-.8-.9s-.57,3.17-3.46,3.41l-2.75-2.75.71,2.28a3.89,3.89,0,0,1-3.6,2.32S1.14,105,.86,100.54L5.17,96.9V94.1l5.12-3.6.09-2A12,12,0,0,1,16.86,86.29Z"/><path class="cls-23" d="M32.27,71.68a7.17,7.17,0,0,1-1.86,2.71,15.85,15.85,0,0,1-4.24,1.34L26,93.59H23.94l-4.55-6.25s2.31,3.57,2.45,6.25l-1.8.89-1.56-5.36L17.74,93l.73,4.8a12.62,12.62,0,0,1,7.58-2.42l.73,1.34S18,104,15.92,108.31c0,0,4.36-5.55,14.31-11.66l.94-2.93,1.26-7S31.24,76.6,32.27,71.68Z"/><path class="cls-24" d="M39.52,102.39c-.82,2.46-9.41,12.69-10.36,14.91a30,30,0,0,0-1.52,5.11c-4.22,9.13-14.43,10.39-14.43,10.39l-.47-8.24s-5.49-3.16-6.42-4.89v0l-.11-.29a68.8,68.8,0,0,1,0-7.58l9.61-3.89c4.17-5.4,14.31-11.65,14.31-11.65l.47-2.83C23.27,89.82,24.49,79,25.72,77.66a5.4,5.4,0,0,1,3.5-1.32s2.66,8.71,4.36,12.79S40.34,99.93,39.52,102.39Z"/><path class="cls-25" d="M10.56,88.46s1.07,10,4.21,14.69A23.22,23.22,0,0,1,10.46,90.5Z"/><path class="cls-25" d="M5.17,94.1s1,8,6,12.46c0,0-4.36-2.18-6-9.66Z"/><path class="cls-26" d="M30.49,115.18s-10.83,10.52-17.75,9.38l.47,8.24a18.26,18.26,0,0,0,15.06-13A30.87,30.87,0,0,1,30.49,115.18Z"/><path class="cls-27" d="M259.29,129s-9.87,18.05-21.43,23.59h-3.94l-9.12,13.82s-5.89-3.7-6.33-15.85A11,11,0,0,0,221,146s-3.25-2.56-4.13-4.44-1.19-7.52-1.82-9.84-6-7.14-7.14-7.76-6.58-1-6.58-1-.75-1.94,0-2.87,9.15-4.21,13.72-1.07a21.06,21.06,0,0,0,.81,3.64c.51,1.25,4.52,5.69,5.14,5.69s3.32-2.25,4.51-4a173.51,173.51,0,0,0,8.67-19.16.5.5,0,0,1,0-.13c0-.07.05-.14.06-.2a.93.93,0,0,0,0-.13s0,0,0,0c1.13-3.82,7.71-11.15,11.22-13.15a2.06,2.06,0,0,1,2.31,1.5s-2.82,8-5.76,12.78c-.5.81-1,1.75-1.59,2.76h0c-2.51,4.61-5.33,10.65-5.74,11.54l-.05.11,1.57.8,4.23-4,4.35-4.11,10,10.52-1,1.25-3.11,4,1.58.28,3.67-4.05Z"/><path class="cls-28" d="M257.2,133,254,137.71s-17.45-13.46-21.24-14.6-5.18-.38-5.18-.38l-3.91,5s7.2,6.38,7.83,15c0,0-2.4-10.86-10.55-14.15.63,0,3.35-2.27,4.55-4a178.56,178.56,0,0,0,8.74-19.32,5,5,0,0,0,.16,3.41c.86,1.59,5.92.09,6.22,0h0l-5.8,11.63,0,.11,1.58.81,4.27-4-2.14,5,15.58,2.75-3.14,4,1.59.29Z"/><path class="cls-29" d="M245,113.25s3-.44,5,3.48l-.44,1.26s2.95.58,5.81,5.37a16.19,16.19,0,0,1-8.78,6.69s-2.9-.82-3.41-3.28l.57-1.58-2.27,1.71s-2.72.82-3.92-3.22Z"/><path class="cls-30" d="M260.44,128.22a4.69,4.69,0,0,0-2.46-4.8l-6,6.63a3.09,3.09,0,0,0,2.78,2.59S258.86,131.25,260.44,128.22Z"/><path class="cls-31" d="M216.8,142.12A44.46,44.46,0,0,0,234,153.26l-4.4,6.66-9.17-11.64.59-1.69S217.3,143.83,216.8,142.12Z"/><path class="cls-25" d="M249.58,118s-2.91,4.8-5.81,7.2l-.57,1.58s5.64-3.81,7.71-8.2A3.66,3.66,0,0,0,249.58,118Z"/><path class="cls-32" d="M228.39,169.27c-.88,1.39-5.3,4.3-6.44,5.44s0,4.87,0,4.87a153.35,153.35,0,0,1-39.88,30.54l-.16.08c-1.52.19-8.91-1.89-16.3-16.67-6.7-13.39-8.62-22.33-8.93-23.89l0-.24,1.63-2.21,2.42-27.28,1.7,5.49c6.44-7.77,12.51-19.7,12.51-19.7l.27.86h0c1.09,4.28,3.33,20.31,5.41,26a13.1,13.1,0,0,0,4.86,6.56v0h0c-5.93,5.41-8.87,13.19-10.32,19.38a53.68,53.68,0,0,0-1.42,10,67.43,67.43,0,0,1,6.82-17,36.5,36.5,0,0,1,7.33-8.85,58.85,58.85,0,0,1,5.72-4.58c1.42.88,2.62,2.27,3.78,1.69-7.8,11.71-7.61,34.89-.28,30.47s9-13.8,9-13.8c-1.73-11.43-1.21-24.32.18-26.77,1.69,0,6.52,3.45,6.8,3.37a39.6,39.6,0,0,0,5.88,22.43l4.17-6.45A40,40,0,0,1,217.47,149c.25-.11,1.72,1,1.72,1l-1,1.28a35,35,0,0,0,6.76,15.22l3.47-5.08S229.28,167.88,228.39,169.27Z"/><path class="cls-33" d="M148.17,253.08v4l-.07.07-.22.2-.18.15c-1.8,1.42-9.42,6.07-33.23,7.35-28.22,1.51-47-7.58-47-7.58l1.42-3.89s-1.32-1.13-1.42-1.7,1-1.9,1-1.9-2.84-1.51-2.84-3.41c0-1.71,4.63-6.66,5.38-11.31a6.76,6.76,0,0,0,.11-1.48c-.19-5-4.5-9.43-5.1-12.27v0c-.57-2.84,7.38-9.85,7.38-9.85-6.81-21.6-8.14-50.59-8.14-50.59L64,159.29S55.81,177.86,48.43,187s-18.17,16.87-20.06,16.49c-4.35,0-9.22-7.58-13.63-16.93s-4.69-36.21-4.92-37.87-2.7-5-2.85-6.4c4.74,8.15,12.28,5.75,12.28,5.75-5.46.12-8.3-10.11-8.3-10.11l0-.07,0-.07-2.67-7.05c.3.34,6.55,7.33,12.58,3s9.37-13,9.37-13v11s.37,1.71.94,1.71a134.15,134.15,0,0,1-2.74,17.29c-2.81,13.13-6.65,25.81-6.65,25.81s10.43-5.68,14.09-20.08a60.74,60.74,0,0,0,1.87-17.24,43.22,43.22,0,0,0-.84-7.21,1.6,1.6,0,0,0-.05-.21.36.36,0,0,0,0-.1.43.43,0,0,0,0-.05l1,2.14,1.92,4.76c2.23,18.48-2.37,46.33-2.37,46.33,6.69-8.34,8.08-26.78,7.79-31.26-.13-2.14-.3-4.78-.41-6.94-.15-2.36-.25-4.15-.25-4.15l13.7,8.18-2.53-8,10,8s9,10.8,18.17,12.06,43,.51,43,.51-29.4,1.89-38,4.42-10.21,5.43-10.21,5.43c6.2,31.59,40.53,42.24,41.6,42.56C89,211,74.55,184.49,74.55,184.49S74,199.4,76.44,205.08s16.53,19.58,34.7,22.48a42,42,0,0,0,4.52.46c15.33.72,28-7.12,29.31-8l.11-.07,0,0c-.49.75-6.77,9.59-32.14,10.56-1.54.06-3,.05-4.5,0h0c-23.51-1-35.49-16.67-35.49-16.67s-8.7,4.68-3.14,11.62l.18.22c1.63,1.89,5.24,4.2,9.5,6.58l.35.2c5.16,2.85,11.2,5.79,15.88,8.22l.07,0a59.87,59.87,0,0,1,6.51,3.73h0c1.32,1,1.59,1.58.3,1.73-6.56.76-31.42-4.67-32.43-3.16s1.23,5.43,1.23,5.43c22.82,11.32,71.63,5.74,73.17,5.57-40.85,10.47-74.28-2.79-74.28-2.79l1.11,3.92A146,146,0,0,0,111,262.05c21.46.5,34.83-5,34.83-5Z"/><path class="cls-34" d="M131.47,163.46s16.27.89,27,3.73L153,175.6A73.74,73.74,0,0,0,131.47,163.46Z"/><path class="cls-35" d="M146.67,208.3s-10.14,8.47-20.12,12.39A67.51,67.51,0,0,1,107,225s5.74,1.71,19.85-.57,19-9.92,19-9.92Z"/><path class="cls-36" d="M151.17,240.91h0c-18.78,4.85-42.62-2.11-42.42-3s6.53.38,21.21-2.56c14.23-2.85,19.39-7.91,19.7-8.22-.12.86-2.08,2.75-2.64,4.81C146.64,233.36,149.3,237.68,151.17,240.91Z"/><path class="cls-37" d="M100.22,166c-16,1.63-20.36,6.1-20.36,6.1-4.51.57-14.64-11-14.64-11l-1.32-1.52s-8.15,18.57-15.54,27.66c-.88,1.08-1.81,2.15-2.77,3.18l1-2.36s1.72-.82,2.22-9.85S45.07,155.76,45,153.93s-.66-11.09-.66-11.09L58.09,151l-2.53-8,10,8s3.91,5.88,13.78,10.78C88.63,166.43,99.07,166.06,100.22,166Z"/><path class="cls-38" d="M63.9,159.61l9.55-1.25A72.35,72.35,0,0,0,84.94,164l-6.39,9.43s2.53,13.44,9.81,21c0,0-19.32-10.73-22-19.75Z"/><path class="cls-39" d="M8.2,131l2.73,7.19s2.78,9.7,8.31,10.11S30.17,132,30.17,132v-11s-5.88,12.6-12.23,14S8.2,131,8.2,131Z"/><path class="cls-40" d="M41.16,125.32s4.92,9.85,11,12.88c0,0-7.21-17.5-5.69-27.79C46.46,110.41,43.81,112.06,41.16,125.32Z"/><path class="cls-41" d="M160.91,139.91l1.7,5.49,1.72,45a109.09,109.09,0,0,1-7.43-20.81l1.59-2.45S161.16,150.21,160.91,139.91Z"/><path class="cls-42" d="M213.26,153.17s-1,22.13,8.44,24l.47,2.37S210,179.13,213.26,153.17Z"/><path class="cls-43" d="M197.57,159.9s-.36.79-3.78-1.69c0,0-11.83,8.38-16.39,20.19,0,0,7.29-10.85,11.17-12s4.82,3.15,4.82,3.15S194.92,163.43,197.57,159.9Z"/><path class="cls-44" d="M6.86,142.56s4.55,8.39,13.08,5.76c0,0-5.11,3.44-10.23.64C9.71,149,6.53,143.51,6.86,142.56Z"/><path class="cls-45" d="M36.67,131.94s6.26,23.4-10.07,41a27.1,27.1,0,0,0,13-18A38.79,38.79,0,0,0,36.67,131.94Z"/><path class="cls-46" d="M148.81,113.24s-.71,10.56-5.77,18.14-15.1,12.7-15.1,12.7,12.6-4.65,18.38-11.18S148.81,113.24,148.81,113.24Z"/><path class="cls-47" d="M84.36,97.35a66.82,66.82,0,0,0,2.84,17.83c2.84,9,27.51,24.73,27.51,24.73s-25.43-10.57-30.35-20.06S84.36,97.35,84.36,97.35Z"/><path class="cls-48" d="M84.17,139.41v14.38s33.11-.27,70.24,2.19l.84-12.94A646.23,646.23,0,0,0,84.17,139.41Z"/><path class="cls-49" d="M102.2,151c-2.34-.07-3.51-.1-5.85-.15a2.1,2.1,0,0,1-.48-.06,2.54,2.54,0,0,1-.51-.17,2.36,2.36,0,0,1-.48-.29,2.28,2.28,0,0,1-.4-.42,2.5,2.5,0,0,1-.27-.57,2.4,2.4,0,0,1-.09-.73c0-1.69.06-2.54.09-4.23a3,3,0,0,1,.07-.47,2.6,2.6,0,0,1,.17-.49,2.65,2.65,0,0,1,.31-.46,2.38,2.38,0,0,1,.45-.38,2.11,2.11,0,0,1,.59-.26,3,3,0,0,1,.76-.09l5.92.15c0,.63,0,.94-.06,1.57-2.35-.07-3.54-.1-5.9-.15A.63.63,0,0,0,96,144a.58.58,0,0,0-.18.47l-.1,4.22a.6.6,0,0,0,.16.47.66.66,0,0,0,.48.18c2.34,0,3.52.08,5.86.15Z"/><path class="cls-49" d="M110.89,149.11a2.25,2.25,0,0,1-.14.72,2.29,2.29,0,0,1-.3.56,1.73,1.73,0,0,1-.42.39,2.7,2.7,0,0,1-.5.27,3.23,3.23,0,0,1-.51.14,2.91,2.91,0,0,1-.5,0l-2.92-.1a3,3,0,0,1-.73-.14,2.32,2.32,0,0,1-.72-.4,1.93,1.93,0,0,1-.55-.7,2,2,0,0,1-.19-1c0-.84,0-1.27.07-2.11a2.07,2.07,0,0,1,.26-1,2,2,0,0,1,.59-.66,2.3,2.3,0,0,1,.76-.36,3.47,3.47,0,0,1,.75-.09l2.94.11a2.4,2.4,0,0,1,1.06.25,2.19,2.19,0,0,1,.69.57,2.16,2.16,0,0,1,.36.73,2.37,2.37,0,0,1,.09.72C110.94,147.84,110.93,148.27,110.89,149.11ZM109.35,147a.62.62,0,0,0-.15-.49.7.7,0,0,0-.48-.17c-1.17,0-1.76-.07-2.93-.1a.7.7,0,0,0-.5.14.59.59,0,0,0-.18.46c0,.84,0,1.27-.08,2.11a.65.65,0,0,0,.15.48.71.71,0,0,0,.49.18c1.17,0,1.75.05,2.92.1a.65.65,0,0,0,.5-.15.63.63,0,0,0,.18-.46C109.3,148.21,109.32,147.79,109.35,147Z"/><path class="cls-49" d="M119.67,149.5a2.13,2.13,0,0,1-.45,1.27,2,2,0,0,1-.43.4,2.34,2.34,0,0,1-.5.25,2.42,2.42,0,0,1-.51.14,2.79,2.79,0,0,1-.49,0l-2.92-.13a2.45,2.45,0,0,1-.75-.13,2.57,2.57,0,0,1-.57-.3,2,2,0,0,1-.41-.41,2.27,2.27,0,0,1-.27-.48,2.19,2.19,0,0,1-.14-.5,1.87,1.87,0,0,1,0-.46c0-.85,0-1.27.09-2.12a2.18,2.18,0,0,1,.27-1,2.12,2.12,0,0,1,.61-.65,2.19,2.19,0,0,1,.76-.35,2.88,2.88,0,0,1,.74-.08l3,.13c0,.63-.05.94-.08,1.57l-2.93-.14a.7.7,0,0,0-.5.14.6.6,0,0,0-.19.46l-.1,2.1a.67.67,0,0,0,.14.49.7.7,0,0,0,.48.18l2.92.13a.68.68,0,0,0,.51-.14.63.63,0,0,0,.18-.46c.15-2.81.22-4.22.37-7l1.63.08C119.9,145.28,119.82,146.69,119.67,149.5Z"/><path class="cls-49" d="M128.61,147.84a2.48,2.48,0,0,1-.17.69,2,2,0,0,1-.42.67,2.3,2.3,0,0,1-.73.5,2.16,2.16,0,0,1-1.05.15l-2.92-.16c0-.59.05-.89.08-1.48l2.93.16a.7.7,0,0,0,.53-.16.79.79,0,0,0,.21-.48.61.61,0,0,0-.18-.49.7.7,0,0,0-.48-.2l-2.93-.16a.67.67,0,0,0-.53.16.75.75,0,0,0-.2.48c0,.87-.08,1.31-.13,2.18a.63.63,0,0,0,.17.49.73.73,0,0,0,.5.2l2.91.17-.1,1.48-2.91-.16a2.51,2.51,0,0,1-.72-.15,2.26,2.26,0,0,1-.7-.41,2,2,0,0,1-.69-1.7c0-.88.07-1.32.12-2.2a2.43,2.43,0,0,1,.16-.69,2,2,0,0,1,.42-.67,2.17,2.17,0,0,1,.73-.51,2.47,2.47,0,0,1,1.06-.16l2.94.17a2.57,2.57,0,0,1,.72.15,2.11,2.11,0,0,1,1.22,1.11A2.2,2.2,0,0,1,128.61,147.84Z"/><path class="cls-49" d="M135.36,152.63l-1.61-.11c.24-3.44.37-5.16.61-8.6L136,144C135.74,147.47,135.61,149.19,135.36,152.63Z"/><path class="cls-49" d="M145.89,146.33l-3.58-.28c-.23,2.81-.35,4.22-.58,7l-1.61-.12c.22-2.82.34-4.23.56-7l-3.59-.26c0-.62.07-.94.12-1.56,3.53.25,5.29.38,8.82.66C146,145.4,146,145.71,145.89,146.33Z"/><path class="cls-50" d="M137,99c-.81,9.3-3.75,15.78-6.88,20.15-4.31,6-9,8-9,8a54.39,54.39,0,0,1-12.2-7.09,59.67,59.67,0,0,1-19.92-28.5,66.62,66.62,0,0,0,22.36,28.31,45.35,45.35,0,0,0,9.76,5.52v-4.65A33.07,33.07,0,0,1,118,119.4c-12.23-6-18.67-18.35-21.67-26.37l0,0A55,55,0,0,1,94,85.59h2.21l-.72,1.5,0,0c.35,1.52.75,3,1.21,4.37a.36.36,0,0,0,0,.11,45.47,45.47,0,0,0,24.46,27.53,29,29,0,0,0,12-22.54v-1.9l2.29.66Z"/><path class="cls-51" d="M206.46,149.8s-3.21,10.48-.18,26.77c0,0,1.52-20.65,2.66-22.45s4.32-1,4.32-1A74.72,74.72,0,0,0,206.46,149.8Z"/><path class="cls-52" d="M175.12,206.77c-2.8-2.45-6.16-6.54-9.51-13.24-6.7-13.39-8.62-22.33-8.93-23.89l1.59-2.45,2.13-20.6,2-1.19a84.28,84.28,0,0,0,12.51-19.7,5.61,5.61,0,0,1,.27.86h0c1.09,4.28,3.33,20.31,5.41,26a13.1,13.1,0,0,0,4.86,6.56s-12.31,18.26-12.91,31.29C172,202.31,174.64,206.17,175.12,206.77Z"/><path class="cls-53" d="M102.25,244.85S80.06,241.21,71,235.37h0a6.76,6.76,0,0,0,.11-1.48c-.19-5-4.51-9.43-5.11-12.27.1.27.75,1.77,3.9,4.47a66.94,66.94,0,0,0,9.52,6.58l.35.2c6.4,3.78,11.91,6.34,15.89,8.22l.07,0c3.58,1.68,5.9,2.79,6.52,3.73Z"/><path class="cls-54" d="M149.72,227.18c-.12.86-2.08,2.75-2.64,4.81,0,0-8.14,8.62-38.27,6,.2-.85,6.53.38,21.21-2.56C144.25,232.55,149.41,227.49,149.72,227.18Z"/><path class="cls-55" d="M154.26,109.86,135.32,116l-5.55,2.58h0l-3.61,1h-4.57l-3.14.25-1.67.13-4.73.37-2.38.19-23.41-8.47L82,110.56l-19.25-7,1.75-.69c12.92-5.12,25.6-11.33,25.6-11.33l4.87-6h2.56a70.26,70.26,0,0,0,3.94-11L102.76,69c.09-.54.13-.83.13-.83l6.69,3.53,22.56,18c0,1.23,0,2.34.09,3.27l.32,2.27c.06-.44.08-.7.08-.7l2.17.65,1.49,3.55s2.52,3.91,12.49,8.3A58.27,58.27,0,0,1,154.26,109.86Z"/><path class="cls-56" d="M140.1,93a31.37,31.37,0,0,1-18.89-2.78c-9.91-4.8-18.24-19-18.75-22.48s3.79-12.76,3.79-20-3.53-19.58,2.4-26.28,33.22-7.7,42.07.89c0,0,2.74,6.88,2.74,10.77a28.33,28.33,0,0,1-.42,3.91c-.08.59-.19,1.22-.29,1.87-.79,4.71-1.88,10.46-1.37,13a12.64,12.64,0,0,0,.79,2.46h0c1.09,2.52,2.71,4.53,3,6.71C155.55,63.93,151.73,84.14,140.1,93Z"/><path class="cls-57" d="M106.14,45.73s-2.46-6.15-8.61-6.24c0,0-3.6,1.42-4.17,4.16,0,0,1.32,10,2.84,14.59s7.07,4,7.07,4A23.57,23.57,0,0,0,106.14,45.73Z"/><path class="cls-58" d="M129.8,66a5.59,5.59,0,0,1,2.94.51c.88.66,4.1,3.79,8.18,4.64s6.8-2.62,7.67-2.8,1.82,1,1.82,1a3.42,3.42,0,0,0-2.49-2.06s-.86,3.27-6.77,2.15-8.41-3.74-8.41-3.74l-.3-.54A16.22,16.22,0,0,0,129.8,66Z"/><path class="cls-59" d="M121.09,35.09l.08-.63s5.89-10.33,17.54-10.62,14.29,7,14.29,7l2.15-3.27-4.91-10L116,17l-8.34,6.73-1,16.46L110.32,62l9,4.81,2.54-2.26c-.94-7.28-6.35-13.93-6.35-13.93l3.94-2.74s10.14,4.91,16,3.44c0,0,4.4-12.86,4.15-22.38C139.62,28.89,124.61,31.11,121.09,35.09Z"/><path class="cls-60" d="M120.57,36.15s.57-3.72,6.85-5.21c7-1.66,12.69-3.06,12.69-3.06s-1.24,4.08-3.58,5.61c0,0-7.4-.27-11.15.59S120.57,36.15,120.57,36.15Z"/><path class="cls-60" d="M153,31.16s-3.56,2.74-6,9.27c0,0,2.32-3,4.45-3a1.22,1.22,0,0,1,1.23,1.47A13.65,13.65,0,0,0,153,31.16Z"/><path class="cls-61" d="M122.92,46.69s.38-7.87,8-9.86a16.08,16.08,0,0,1,3,7.58S129.93,43.65,122.92,46.69Z"/><path class="cls-62" d="M144.9,49.81s.62-6.26,4.21-8.57c0,0,2.45,1.83,2.2,7.07C151.31,48.31,149.16,47.54,144.9,49.81Z"/><path class="cls-63" d="M122.92,46.69s2.49,3.06,9.47,3.66a10.89,10.89,0,0,0,1.2-6S127.18,43.75,122.92,46.69Z"/><path class="cls-63" d="M145.17,49.81v.92s1.07,2.24,4.93,2.62a10.75,10.75,0,0,0,1.34-5.07S149,47.66,145.17,49.81Z"/><path class="cls-64" d="M130.38,44.2a8.64,8.64,0,0,0-1.61,5.55,27.25,27.25,0,0,0,3.62.6,9.41,9.41,0,0,0,1.2-6A9.78,9.78,0,0,0,130.38,44.2Z"/><path class="cls-64" d="M148.55,48.38s-1,1.08-1.19,4.37a7.52,7.52,0,0,0,2.46.6,9.18,9.18,0,0,0,1.35-5.07A4.38,4.38,0,0,0,148.55,48.38Z"/><path class="cls-60" d="M129.8,50s-.63-4.24,1.8-5.87l2,.25a8.59,8.59,0,0,1-1.2,6S130.41,50.12,129.8,50Z"/><path class="cls-60" d="M149.43,48.2A18.14,18.14,0,0,0,148.11,53a5.55,5.55,0,0,0,1.71.32,8.27,8.27,0,0,0,1.35-5.07A4,4,0,0,0,149.43,48.2Z"/><path class="cls-65" d="M122.92,46.69s4.64-2.7,12.55-1.16L134,44.41A13.22,13.22,0,0,0,122.92,46.69Z"/><path class="cls-65" d="M144.9,49.81a12.57,12.57,0,0,1,8.06-.93l-1.79-1.32S148.26,47.11,144.9,49.81Z"/><path class="cls-49" d="M127.94,46.69a2.74,2.74,0,0,1,2.4.87A2.18,2.18,0,0,1,127.94,46.69Z"/><path class="cls-49" d="M146.6,50.35s2-.39,2.66.52C149.26,50.87,148.21,51.6,146.6,50.35Z"/><path class="cls-66" d="M123.38,47.14a18.19,18.19,0,0,0,9.39,4.42l.15-2.1-.53.89S126.83,50,123.38,47.14Z"/><path class="cls-66" d="M144.9,50.73s.64,2.3,5.34,3.35L150.09,53l-.27.4S146.48,52.92,144.9,50.73Z"/><path class="cls-67" d="M135.47,60.16a16.67,16.67,0,0,1,5,0c3.22.38,6.85,1.26,8.82,0,0,0-2.62,2.63-4.9,3s-5.75-1.6-5.75-1.6l-1.51,0A4.19,4.19,0,0,1,135.47,60.16Z"/><path class="cls-68" d="M137.32,61.4a2.46,2.46,0,0,1,1.45-.38c.66.13,1.34,1.09,1.34,1.09A6.61,6.61,0,0,0,137.32,61.4Z"/><path class="cls-69" d="M149.26,60c.85-.82-3.51-8.58-5.6-8.87s-4,8.7-4,8.7,2.9.41,5.71.78S149.26,60,149.26,60Z"/><path class="cls-70" d="M152.42,35.51c-1.18-.15-5.35,4.92-5.35,4.92s-2.65,8.21-2.13,10.64,7,3.73,7,3.73l.27-.43h0a12.64,12.64,0,0,1-.79-2.46c-.51-2.52.58-8.27,1.37-13a9.67,9.67,0,0,0,.29-1.87C153.07,36.29,153,35.57,152.42,35.51Z"/><path class="cls-71" d="M152.19,68.85c-1.33-2.78-.51-4.23-12.06-5.74C123.78,61,122.38,66,119.6,65.19a2.67,2.67,0,0,1-.33-.12c-3-1.17-10.1-8.14-10.28-17.53-.19-9.76,6.35-16.68,6.35-16.68-2.37-2-3.32-7.76-.76-10.23s6.92-1.89,17.62-.76,10.71.48,10.71.48c3.4.87,5.35,4.06,5.9,5.08.11.2.16.32.16.32l1.33-1.23a17.42,17.42,0,0,1,2.94,10.89s5.87-11.94,5.2-13.63a45.38,45.38,0,0,0-4.82-8h0s-1-9.09-3.79-9.09-15,2.74-15,2.74A17.22,17.22,0,0,0,136,.74l-.05.05c-4,3.55-7.83,3.94-13.31,6.48A13.87,13.87,0,0,0,117.5,11l-.37.44-.39.47c-.38.48-.77,1-1.24,1.47a.33.33,0,0,1-.06.06l0,0A15.68,15.68,0,0,1,113.82,15c-3.6,2.93-11.52,4.89-12.47,8s1.2,7.32,2.34,11.68a23.73,23.73,0,0,1,.61,8.21,16.13,16.13,0,0,1,2.52,12c-1.11,6.37-3.54,7.41-3.54,7.41a10.91,10.91,0,0,0-.9,6.79c3.5,13.92,18,22.21,18,22.21,12.88,4.8,21.35,2.71,21.35,2.71h0c9.37-6.11,12.58-26.33,12.72-27.27C154.28,66.89,152.54,69.59,152.19,68.85Zm-5.78,12.89c-2.27-.38-2.75-6.13-3.5-6.89s-4.87-.44-4.87-.44-3.79,4.3-5.3,4.42-9.6-3.16-7.85-8.08,7.85-5.56,7.85-5.56a14.8,14.8,0,0,0,7.89,3c4.74.31,6.45-.56,7-.81s3.62,1.13,3.54,5.43C151.13,75.76,148.69,82.12,146.41,81.74Z"/><path class="cls-72" d="M145.82,52.8s4.08,5.07,3.69,7c-.42,2.09-5.15,3.2-5.15,3.2s3.79-1.31,4.57-3.2A25.4,25.4,0,0,0,145.82,52.8Z"/><path class="cls-73" d="M153.24,35.41a17.42,17.42,0,0,0-2.94-10.89,29.09,29.09,0,0,0,3.31-10.71h0a36.71,36.71,0,0,1,1.54,7.1l3.28.86C159.11,23.47,153.24,35.41,153.24,35.41Z"/><path class="cls-74" d="M148.81,25.43c-.55-1-2.5-4.21-5.9-5.08,0,0,0,.66-10.71-.48s-15.06-1.7-17.62.76-1.61,8.24.76,10.23c0,0-6.54,6.92-6.35,16.68.18,9.39,7.27,16.36,10.28,17.53l-.14,1s.53,21.5,5.76,23.21S141,90.14,142,91.15s-.14,2.61-.24,2.76h0s-8.47,2.09-21.35-2.71c0,0-14.48-8.29-18-22.21a10.91,10.91,0,0,1,.9-6.79s2.43-1,3.54-7.41a16.13,16.13,0,0,0-2.52-12,23.73,23.73,0,0,0-.61-8.21c-1.14-4.36-3.29-8.59-2.34-11.68a13.64,13.64,0,0,0,10-2.21s1.06-1.47,5.75-2.23,23.54,1.14,23.54,1.14A16.2,16.2,0,0,0,134.81,17c-3.76-1-16.6.16-18,.27,1.47-.26,16-2.76,17.69-2.26s8.06,3.41,8.06,3.41c-.57-2.89-6.21-9.85-6.21-9.85A88.48,88.48,0,0,0,123.2,9.83a17,17,0,0,0-7.7,3.54l1.24-1.47.39-.47.37-.44,1.82-.31L128.46,7c3.07-1.64,7-5.7,7.48-6.2L136,.74a17.22,17.22,0,0,1-1.14,6.72c7.72-1,10.33-.47,10.33-.47C148.69,12,148.81,25.43,148.81,25.43Z"/><path class="cls-75" d="M120.36,91.21a48.15,48.15,0,0,1,11.87-.83c7.15.28,11.25.31,9.48,3.54C141.71,93.92,132.74,96,120.36,91.21Z"/><path class="cls-76" d="M145.18,7s4.34-1.69,6-1.41a3.31,3.31,0,0,0-1.38-1.1c-.72-.19-15,3-15,3S143.76,6.42,145.18,7Z"/><path class="cls-77" d="M136.37,8.6S136,13.33,134.52,15L116.83,17.3l-5.19-.91A13.11,13.11,0,0,0,115.85,13C118.06,10.37,129.6,7.84,136.37,8.6Z"/><path class="cls-78" d="M153.61,13.81a39.82,39.82,0,0,1,1.55,7.11l3.28.86A23.67,23.67,0,0,0,153.61,13.81Z"/><path class="cls-79" d="M105.41,54.08s-1.25-6-4.3-8.93a7.16,7.16,0,0,0-6.52-2s1,11.07,1.94,13.77S99,60.33,99,60.33a8.52,8.52,0,0,1-2.41-5.53c-.29-3.66-.38-8.83.42-9.44s4.06,1.78,4.06,1.78a10.77,10.77,0,0,0-1.64,4.53c-.62,3.26,1.66,5.63,2.51,5.58s0-3.77.09-4.85S104.11,51.56,105.41,54.08Z"/><path class="cls-80" d="M102.36,46.66a7.44,7.44,0,0,0-3,6.67c.36,4.49,2.93,4.29,2.94,3.35s-.49-3.37-.23-4.74,2.47-.75,2.47-.75A33,33,0,0,0,102.36,46.66Z"/><path class="cls-81" d="M154.44,66.64s-4.14,18.87-12.73,27.28C141.71,93.92,151.51,90.07,154.44,66.64Z"/><path class="cls-81" d="M149.85,4.48s2.18,1.7,2.59,7.6-2.14,12.44-2.14,12.44a23.73,23.73,0,0,0,3.6-10.27C154.21,8.89,151.57,5.16,149.85,4.48Z"/><path class="cls-82" d="M123.41,16.83A51.22,51.22,0,0,0,134,19l6.68.6s-2.23-2.16-7-2.81A48.08,48.08,0,0,0,123.41,16.83Z"/><path class="cls-83" d="M147.81,67.05s2.42,0,3.37,3a25.06,25.06,0,0,1,1,4.5l.85-3.33s-1.11-4.21-2.27-5.15c-.84-.68-2.28-1.38-3-1.21Z"/><path class="cls-84" d="M141.3,64l.41,3.6a12.75,12.75,0,0,0,4.89-.57l.35-2.17A27.38,27.38,0,0,0,141.3,64Z"/><path class="cls-81" d="M154.73,110.55s17.22,12.58,19.46,16.91,3.14,17.9,6.17,23.78c0,0-2.07-9.61-3.52-17.15s-1.1-7.64-1.91-9.48S161.26,113.83,154.73,110.55Z"/><path class="cls-81" d="M151.64,180.59s-8.3,35.55-7.92,37.95,5.75,7.3,6,8.64c0,0-4.11,5.5-3.92,6.72s7.2,8.92,7,11.31c-.05.69-4.6,8.19-4.6,8.19s5.14-7.37,5.39-8.55-6.3-11-6.49-12c-.5-2.59,3.27-4.49,3.4-6.2s-5.1-5.87-5.14-8.65S151.64,180.59,151.64,180.59Z"/><path class="cls-81" d="M153.33,265.32S171.28,306,177.4,346.59C177.4,346.59,176.38,306.94,153.33,265.32Z"/><path class="cls-69" d="M39.52,102.39s-4.65-1-6.57-5-.67-9.92-.67-9.92a102.24,102.24,0,0,0,5.45,9.36C39.54,99.17,40,101.89,39.52,102.39Z"/></g></g></g></svg>