<svg xmlns="http://www.w3.org/2000/svg" xmlns:xlink="http://www.w3.org/1999/xlink" viewBox="0 0 801.11 672.97"><defs><style>.cls-1{fill:url(#linear-gradient);}.cls-2{fill:url(#linear-gradient-2);}.cls-3{isolation:isolate;}.cls-4{opacity:0.5;}.cls-5{mask:url(#mask);}.cls-6{mix-blend-mode:multiply;}.cls-10,.cls-11,.cls-12,.cls-13,.cls-14,.cls-15,.cls-16,.cls-17,.cls-18,.cls-19,.cls-20,.cls-21,.cls-22,.cls-23,.cls-24,.cls-25,.cls-26,.cls-27,.cls-28,.cls-29,.cls-30,.cls-31,.cls-32,.cls-33,.cls-34,.cls-35,.cls-36,.cls-37,.cls-38,.cls-39,.cls-40,.cls-41,.cls-7,.cls-8,.cls-9{fill:#17dbff;}.cls-7{opacity:0.7;}.cls-8{opacity:0.22;}.cls-9{opacity:0.36;}.cls-10{opacity:0.21;}.cls-11{opacity:0.54;}.cls-12{opacity:0.27;}.cls-13{opacity:0.08;}.cls-14{opacity:0.59;}.cls-15{opacity:0.14;}.cls-16{opacity:0.26;}.cls-17{opacity:0.81;}.cls-18{opacity:0.16;}.cls-19{opacity:0.25;}.cls-20{opacity:0.37;}.cls-21{opacity:0.79;}.cls-22{opacity:0.64;}.cls-23{opacity:0.52;}.cls-24{opacity:0.1;}.cls-25{opacity:0.77;}.cls-26{opacity:0.6;}.cls-27{opacity:0.47;}.cls-28{opacity:0.69;}.cls-29{opacity:0.84;}.cls-30{opacity:0.71;}.cls-31{opacity:0.24;}.cls-32{opacity:0.19;}.cls-33{opacity:0.96;}.cls-34{opacity:0.99;}.cls-35{opacity:0.06;}.cls-36{opacity:0.41;}.cls-37{opacity:0.68;}.cls-38{opacity:0.88;}.cls-39{opacity:0.13;}.cls-40{opacity:0.78;}.cls-41{opacity:0.58;}.cls-42{mask:url(#mask-2);}</style><linearGradient id="linear-gradient" x1="-1371.83" y1="-2243.18" x2="-1371.83" y2="-2062.47" gradientTransform="translate(1805.23 2588.33)" gradientUnits="userSpaceOnUse"><stop offset="0.11" stop-color="#fff"/><stop offset="0.2" stop-color="#cfcfcf"/><stop offset="0.32" stop-color="#999"/><stop offset="0.44" stop-color="#6a6a6a"/><stop offset="0.55" stop-color="#444"/><stop offset="0.67" stop-color="#262626"/><stop offset="0.78" stop-color="#111"/><stop offset="0.89" stop-color="#040404"/><stop offset="1"/></linearGradient><linearGradient id="linear-gradient-2" x1="-1316.09" y1="-2321.71" x2="-1316.09" y2="-2203.48" gradientTransform="translate(1736.2 2750.15)" xlink:href="#linear-gradient"/><mask id="mask" x="-68.16" y="-94.69" width="1003.28" height="840.84" maskUnits="userSpaceOnUse"><rect class="cls-1" x="-11.74" y="94" width="890.44" height="463.46" transform="translate(971.02 396.76) rotate(150.61)"/></mask><mask id="mask-2" x="91.98" y="140.63" width="656.4" height="550.12" maskUnits="userSpaceOnUse"><rect class="cls-2" x="128.89" y="264.08" width="582.57" height="303.22" transform="translate(990.29 571.63) rotate(150.61)"/></mask></defs><g class="cls-3"><g id="Laag_2" data-name="Laag 2"><g id="Layer_1" data-name="Layer 1"><g class="cls-4"><g class="cls-5"><g class="cls-6"><rect class="cls-7" x="731.54" y="282.97" width="61.91" height="61.91" rx="9.79" transform="translate(-55.92 414.67) rotate(-29.39)"/><rect class="cls-8" x="660.45" y="323.03" width="61.91" height="61.91" rx="9.79" transform="translate(-84.73 384.93) rotate(-29.39)"/><rect class="cls-9" x="589.35" y="363.08" width="61.91" height="61.91" rx="9.79" transform="translate(-113.54 355.19) rotate(-29.39)"/><rect class="cls-10" x="518.25" y="403.13" width="61.91" height="61.91" rx="9.79" transform="translate(-142.36 325.45) rotate(-29.39)"/><rect class="cls-11" x="447.15" y="443.19" width="61.91" height="61.91" rx="9.79" transform="translate(-171.17 295.71) rotate(-29.39)"/><rect class="cls-12" x="376.05" y="483.24" width="61.91" height="61.91" rx="9.79" transform="translate(-199.98 265.97) rotate(-29.39)"/><rect class="cls-13" x="304.96" y="523.29" width="61.91" height="61.91" rx="9.79" transform="translate(-228.79 236.23) rotate(-29.39)"/><rect class="cls-14" x="233.86" y="563.35" width="61.91" height="61.91" rx="9.79" transform="translate(-257.61 206.49) rotate(-29.39)"/><rect class="cls-15" x="162.76" y="603.4" width="61.91" height="61.91" rx="9.79" transform="translate(-286.42 176.75) rotate(-29.39)"/><rect class="cls-16" x="692.77" y="214.15" width="61.91" height="61.91" rx="9.79" transform="translate(-27.13 386.78) rotate(-29.39)"/><rect class="cls-17" x="621.67" y="254.2" width="61.91" height="61.91" rx="9.79" transform="translate(-55.94 357.04) rotate(-29.39)"/><rect class="cls-7" x="550.57" y="294.25" width="61.91" height="61.91" rx="9.79" transform="translate(-84.75 327.3) rotate(-29.39)"/><rect class="cls-18" x="479.48" y="334.31" width="61.91" height="61.91" rx="9.79" transform="translate(-113.57 297.56) rotate(-29.39)"/><rect class="cls-19" x="408.38" y="374.36" width="61.91" height="61.91" rx="9.79" transform="translate(-142.38 267.82) rotate(-29.39)"/><rect class="cls-9" x="337.28" y="414.41" width="61.91" height="61.91" rx="9.79" transform="translate(-171.19 238.08) rotate(-29.39)"/><rect class="cls-20" x="266.18" y="454.47" width="61.91" height="61.91" rx="9.79" transform="translate(-200 208.34) rotate(-29.39)"/><rect class="cls-21" x="195.08" y="494.52" width="61.91" height="61.91" rx="9.79" transform="translate(-228.81 178.59) rotate(-29.39)"/><rect class="cls-22" x="123.99" y="534.57" width="61.91" height="61.91" rx="9.79" transform="translate(-257.63 148.86) rotate(-29.39)"/><rect class="cls-23" x="653.99" y="145.32" width="61.91" height="61.91" rx="9.79" transform="translate(1.66 358.88) rotate(-29.39)"/><rect class="cls-24" x="582.9" y="185.37" width="61.91" height="61.91" rx="9.79" transform="translate(-27.15 329.14) rotate(-29.39)"/><rect class="cls-25" x="511.8" y="225.43" width="61.91" height="61.91" rx="9.79" transform="translate(-55.96 299.4) rotate(-29.39)"/><rect class="cls-26" x="440.7" y="265.48" width="61.91" height="61.91" rx="9.79" transform="translate(-84.77 269.66) rotate(-29.39)"/><rect class="cls-27" x="369.6" y="305.53" width="61.91" height="61.91" rx="9.79" transform="translate(-113.59 239.92) rotate(-29.39)"/><rect class="cls-28" x="298.51" y="345.59" width="61.91" height="61.91" rx="9.79" transform="translate(-142.4 210.18) rotate(-29.39)"/><rect class="cls-29" x="227.41" y="385.64" width="61.91" height="61.91" rx="9.79" transform="translate(-171.21 180.44) rotate(-29.39)"/><rect class="cls-30" x="156.31" y="425.69" width="61.91" height="61.91" rx="9.79" transform="translate(-200.02 150.7) rotate(-29.39)"/><rect class="cls-31" x="85.21" y="465.74" width="61.91" height="61.91" rx="9.79" transform="translate(-228.84 120.96) rotate(-29.39)"/><rect class="cls-11" x="615.22" y="76.49" width="61.91" height="61.91" rx="9.79" transform="translate(30.45 330.99) rotate(-29.39)"/><rect class="cls-32" x="544.12" y="116.54" width="61.91" height="61.91" rx="9.79" transform="translate(1.64 301.25) rotate(-29.39)"/><rect class="cls-33" x="473.02" y="156.6" width="61.91" height="61.91" rx="9.79" transform="translate(-27.17 271.51) rotate(-29.39)"/><rect class="cls-34" x="401.93" y="196.65" width="61.91" height="61.91" rx="9.79" transform="translate(-55.98 241.77) rotate(-29.39)"/><rect class="cls-35" x="330.83" y="236.7" width="61.91" height="61.91" rx="9.79" transform="translate(-84.8 212.03) rotate(-29.39)"/><rect class="cls-36" x="259.73" y="276.76" width="61.91" height="61.91" rx="9.79" transform="translate(-113.61 182.29) rotate(-29.39)"/><rect class="cls-11" x="188.63" y="316.81" width="61.91" height="61.91" rx="9.79" transform="translate(-142.42 152.55) rotate(-29.39)"/><rect class="cls-37" x="117.54" y="356.86" width="61.91" height="61.91" rx="9.79" transform="translate(-171.23 122.81) rotate(-29.39)"/><rect class="cls-38" x="46.44" y="396.92" width="61.91" height="61.91" rx="9.79" transform="translate(-200.05 93.07) rotate(-29.39)"/><rect class="cls-31" x="576.45" y="7.66" width="61.91" height="61.91" rx="9.79" transform="translate(59.24 303.1) rotate(-29.39)"/><rect class="cls-30" x="505.35" y="47.72" width="61.91" height="61.91" rx="9.79" transform="translate(30.43 273.36) rotate(-29.39)"/><rect class="cls-39" x="434.25" y="87.77" width="61.91" height="61.91" rx="9.79" transform="translate(1.62 243.62) rotate(-29.39)"/><rect class="cls-8" x="363.15" y="127.82" width="61.91" height="61.91" rx="9.79" transform="translate(-27.19 213.88) rotate(-29.39)"/><rect class="cls-17" x="292.05" y="167.88" width="61.91" height="61.91" rx="9.79" transform="translate(-56.01 184.14) rotate(-29.39)"/><rect class="cls-32" x="220.96" y="207.93" width="61.91" height="61.91" rx="9.79" transform="translate(-84.82 154.4) rotate(-29.39)"/><rect class="cls-40" x="149.86" y="247.98" width="61.91" height="61.91" rx="9.79" transform="translate(-113.63 124.66) rotate(-29.39)"/><rect class="cls-41" x="78.76" y="288.04" width="61.91" height="61.91" rx="9.79" transform="translate(-142.44 94.92) rotate(-29.39)"/><rect class="cls-7" x="7.66" y="328.09" width="61.91" height="61.91" rx="9.79" transform="translate(-171.26 65.18) rotate(-29.39)"/></g></g><g class="cls-42"><g class="cls-6"><rect class="cls-7" x="615.19" y="387.72" width="40.5" height="40.5" rx="6.41" transform="translate(-118.43 364.41) rotate(-29.39)"/><rect class="cls-8" x="568.67" y="413.92" width="40.5" height="40.5" rx="6.41" transform="translate(-137.28 344.96) rotate(-29.4)"/><rect class="cls-9" x="522.16" y="440.13" width="40.5" height="40.5" rx="6.41" transform="translate(-156.14 325.5) rotate(-29.39)"/><rect class="cls-10" x="475.64" y="466.33" width="40.5" height="40.5" rx="6.41" transform="translate(-174.99 306.04) rotate(-29.39)"/><rect class="cls-11" x="429.13" y="492.54" width="40.5" height="40.5" rx="6.41" transform="translate(-193.84 286.58) rotate(-29.39)"/><rect class="cls-12" x="382.61" y="518.74" width="40.5" height="40.5" rx="6.41" transform="translate(-212.69 267.13) rotate(-29.39)"/><rect class="cls-13" x="336.09" y="544.95" width="40.5" height="40.5" rx="6.41" transform="translate(-231.54 247.67) rotate(-29.39)"/><rect class="cls-14" x="289.58" y="571.15" width="40.5" height="40.5" rx="6.41" transform="translate(-250.39 228.21) rotate(-29.39)"/><rect class="cls-15" x="243.06" y="597.36" width="40.5" height="40.5" rx="6.41" transform="translate(-269.24 208.75) rotate(-29.39)"/><rect class="cls-16" x="589.82" y="342.69" width="40.5" height="40.5" rx="6.41" transform="translate(-99.6 346.16) rotate(-29.39)"/><rect class="cls-17" x="543.31" y="368.89" width="40.5" height="40.5" rx="6.41" transform="translate(-118.45 326.71) rotate(-29.39)"/><rect class="cls-7" x="496.79" y="395.1" width="40.5" height="40.5" rx="6.41" transform="translate(-137.3 307.25) rotate(-29.39)"/><rect class="cls-18" x="450.27" y="421.3" width="40.5" height="40.5" rx="6.41" transform="translate(-156.15 287.79) rotate(-29.39)"/><rect class="cls-19" x="403.76" y="447.51" width="40.5" height="40.5" rx="6.41" transform="translate(-175 268.33) rotate(-29.39)"/><rect class="cls-9" x="357.24" y="473.71" width="40.5" height="40.5" rx="6.41" transform="translate(-193.85 248.88) rotate(-29.39)"/><rect class="cls-20" x="310.72" y="499.92" width="40.5" height="40.5" rx="6.41" transform="translate(-212.7 229.42) rotate(-29.39)"/><rect class="cls-21" x="264.21" y="526.12" width="40.5" height="40.5" rx="6.41" transform="translate(-231.55 209.96) rotate(-29.39)"/><rect class="cls-22" x="217.69" y="552.33" width="40.5" height="40.5" rx="6.41" transform="translate(-250.4 190.5) rotate(-29.39)"/><rect class="cls-23" x="564.45" y="297.66" width="40.5" height="40.5" rx="6.41" transform="translate(-80.76 327.92) rotate(-29.39)"/><rect class="cls-24" x="517.94" y="323.86" width="40.5" height="40.5" rx="6.41" transform="translate(-99.61 308.46) rotate(-29.39)"/><rect class="cls-25" x="471.42" y="350.07" width="40.5" height="40.5" rx="6.41" transform="translate(-118.46 289) rotate(-29.39)"/><rect class="cls-26" x="424.9" y="376.27" width="40.5" height="40.5" rx="6.41" transform="translate(-137.31 269.54) rotate(-29.39)"/><rect class="cls-27" x="378.39" y="402.48" width="40.5" height="40.5" rx="6.41" transform="translate(-156.16 250.09) rotate(-29.39)"/><rect class="cls-28" x="331.87" y="428.68" width="40.5" height="40.5" rx="6.41" transform="translate(-175.01 230.63) rotate(-29.39)"/><rect class="cls-29" x="285.36" y="454.89" width="40.5" height="40.5" rx="6.41" transform="translate(-193.86 211.17) rotate(-29.39)"/><rect class="cls-30" x="238.84" y="481.09" width="40.5" height="40.5" rx="6.41" transform="translate(-212.72 191.71) rotate(-29.39)"/><rect class="cls-31" x="192.32" y="507.3" width="40.5" height="40.5" rx="6.41" transform="translate(-231.57 172.26) rotate(-29.39)"/><rect class="cls-11" x="539.08" y="252.62" width="40.5" height="40.5" rx="6.41" transform="translate(-61.92 309.67) rotate(-29.39)"/><rect class="cls-32" x="492.57" y="278.83" width="40.5" height="40.5" rx="6.41" transform="translate(-80.78 290.21) rotate(-29.4)"/><rect class="cls-33" x="446.05" y="305.03" width="40.5" height="40.5" rx="6.41" transform="translate(-99.63 270.75) rotate(-29.39)"/><rect class="cls-34" x="399.54" y="331.24" width="40.5" height="40.5" rx="6.41" transform="translate(-118.48 251.29) rotate(-29.39)"/><rect class="cls-35" x="353.02" y="357.44" width="40.5" height="40.5" rx="6.41" transform="translate(-137.33 231.84) rotate(-29.39)"/><rect class="cls-36" x="306.5" y="383.65" width="40.5" height="40.5" rx="6.41" transform="translate(-156.18 212.38) rotate(-29.39)"/><rect class="cls-11" x="259.99" y="409.86" width="40.5" height="40.5" rx="6.41" transform="translate(-175.03 192.92) rotate(-29.39)"/><rect class="cls-37" x="213.47" y="436.06" width="40.5" height="40.5" rx="6.41" transform="translate(-193.88 173.46) rotate(-29.39)"/><rect class="cls-38" x="166.96" y="462.27" width="40.5" height="40.5" rx="6.41" transform="translate(-212.73 154.01) rotate(-29.4)"/><rect class="cls-31" x="513.72" y="207.59" width="40.5" height="40.5" rx="6.41" transform="translate(-43.09 291.42) rotate(-29.39)"/><rect class="cls-30" x="467.2" y="233.8" width="40.5" height="40.5" rx="6.41" transform="translate(-61.94 271.96) rotate(-29.39)"/><rect class="cls-39" x="420.68" y="260" width="40.5" height="40.5" rx="6.41" transform="translate(-80.79 252.5) rotate(-29.39)"/><rect class="cls-8" x="374.17" y="286.21" width="40.5" height="40.5" rx="6.41" transform="translate(-99.64 233.04) rotate(-29.39)"/><rect class="cls-17" x="327.65" y="312.41" width="40.5" height="40.5" rx="6.41" transform="translate(-118.49 213.59) rotate(-29.39)"/><rect class="cls-32" x="281.14" y="338.62" width="40.5" height="40.5" rx="6.41" transform="translate(-137.34 194.13) rotate(-29.39)"/><rect class="cls-40" x="234.62" y="364.82" width="40.5" height="40.5" rx="6.41" transform="translate(-156.19 174.67) rotate(-29.4)"/><rect class="cls-41" x="188.1" y="391.03" width="40.5" height="40.5" rx="6.41" transform="translate(-175.04 155.21) rotate(-29.39)"/><rect class="cls-7" x="141.59" y="417.23" width="40.5" height="40.5" rx="6.41" transform="translate(-193.89 135.76) rotate(-29.39)"/></g></g></g></g></g></g></svg>