<svg xmlns="http://www.w3.org/2000/svg" viewBox="0 0 342.63 325.7"><defs><style>.cls-1{isolation:isolate;}.cls-2{fill:#4e4778;mix-blend-mode:multiply;}</style></defs><g class="cls-1"><g id="Laag_2" data-name="Laag 2"><g id="Layer_1" data-name="Layer 1"><path class="cls-2" d="M342.47,325.7a1.54,1.54,0,0,0-2.72-1.44,1.56,1.56,0,0,0-.05,1.44Z"/><path class="cls-2" d="M342.47,325.7a1.53,1.53,0,1,0-2.76,0Z"/><path class="cls-2" d="M260.9,325.7a1.54,1.54,0,1,0-2.77,0Z"/><path class="cls-2" d="M260.91,325.7a1.54,1.54,0,1,0-2.77,0Z"/><path class="cls-2" d="M179.33,325.7a1.53,1.53,0,0,0-.61-2,1.53,1.53,0,0,0-2.15,2Z"/><path class="cls-2" d="M179.34,325.7a1.54,1.54,0,0,0-2.16-2,1.55,1.55,0,0,0-.61,2Z"/><path class="cls-2" d="M97.77,325.7a1.54,1.54,0,0,0-2.72-1.44,1.56,1.56,0,0,0,0,1.44Z"/><path class="cls-2" d="M341.09,277.73a.2.2,0,0,1,.2.21V325a.2.2,0,0,1-.2.21.21.21,0,0,1-.21-.21V277.94A.21.21,0,0,1,341.09,277.73Z"/><path class="cls-2" d="M339.55,277.94a1.54,1.54,0,1,1,1.54,1.54A1.54,1.54,0,0,1,339.55,277.94Z"/><path class="cls-2" d="M342.47,325.7a1.5,1.5,0,0,0,.16-.67,1.54,1.54,0,0,0-3.08,0,1.5,1.5,0,0,0,.16.67Z"/><path class="cls-2" d="M342.47,325.7a1.53,1.53,0,0,0-.6-2,1.54,1.54,0,0,0-2.16,2Z"/><path class="cls-2" d="M341.1,277.73a.2.2,0,0,1,.2.21V325a.2.2,0,0,1-.2.21.21.21,0,0,1-.21-.21V277.94A.21.21,0,0,1,341.1,277.73Z"/><path class="cls-2" d="M339.56,277.94a1.54,1.54,0,1,1,1.54,1.54A1.54,1.54,0,0,1,339.56,277.94Z"/><path class="cls-2" d="M342.48,325.7a1.64,1.64,0,0,0,.15-.67,1.54,1.54,0,1,0-3.07,0,1.64,1.64,0,0,0,.15.67Z"/><path class="cls-2" d="M300.31,254.18a.19.19,0,0,1,.1,0l40.79,23.55a.2.2,0,0,1,.07.28.2.2,0,0,1-.28.07l-40.78-23.54a.2.2,0,0,1-.08-.28A.21.21,0,0,1,300.31,254.18Z"/><path class="cls-2" d="M341.86,276.6a1.54,1.54,0,1,1-2.1.57A1.55,1.55,0,0,1,341.86,276.6Z"/><path class="cls-2" d="M301.08,253.06a1.54,1.54,0,1,0,.56,2.1A1.54,1.54,0,0,0,301.08,253.06Z"/><path class="cls-2" d="M300.31,254.18a.21.21,0,0,1,.18.11.21.21,0,0,1-.08.28l-40.79,23.54a.2.2,0,0,1-.28-.07.21.21,0,0,1,.08-.28l40.79-23.55A.17.17,0,0,1,300.31,254.18Z"/><path class="cls-2" d="M299.54,253.06a1.54,1.54,0,0,1,1.54,2.66,1.54,1.54,0,1,1-1.54-2.66Z"/><path class="cls-2" d="M258.75,276.6a1.54,1.54,0,1,0,2.1.57A1.54,1.54,0,0,0,258.75,276.6Z"/><path class="cls-2" d="M259.52,277.73a.21.21,0,0,1,.21.21V325a.21.21,0,0,1-.21.21.2.2,0,0,1-.2-.21V277.94A.2.2,0,0,1,259.52,277.73Z"/><path class="cls-2" d="M258,277.94a1.54,1.54,0,1,1,1.54,1.54A1.54,1.54,0,0,1,258,277.94Z"/><path class="cls-2" d="M260.9,325.7a1.5,1.5,0,0,0,.16-.67,1.54,1.54,0,0,0-3.08,0,1.5,1.5,0,0,0,.16.67Z"/><path class="cls-2" d="M260.91,325.7a1.54,1.54,0,1,0-2.77,0Z"/><path class="cls-2" d="M342.48,325.7a1.53,1.53,0,0,0-2.15-2,1.53,1.53,0,0,0-.61,2Z"/><path class="cls-2" d="M259.53,277.73a.2.2,0,0,1,.2.21V325a.2.2,0,0,1-.2.21.21.21,0,0,1-.21-.21V277.94A.21.21,0,0,1,259.53,277.73Z"/><path class="cls-2" d="M258,277.94a1.54,1.54,0,1,1,1.54,1.54A1.54,1.54,0,0,1,258,277.94Z"/><path class="cls-2" d="M260.91,325.7a1.5,1.5,0,0,0,.16-.67,1.54,1.54,0,0,0-3.08,0,1.5,1.5,0,0,0,.16.67Z"/><path class="cls-2" d="M218.74,254.18a.17.17,0,0,1,.1,0l40.79,23.55a.21.21,0,0,1,.08.28.2.2,0,0,1-.28.07l-40.79-23.54a.21.21,0,0,1-.08-.28A.21.21,0,0,1,218.74,254.18Z"/><path class="cls-2" d="M260.3,276.6a1.54,1.54,0,0,1-1.54,2.67,1.54,1.54,0,0,1,1.54-2.67Z"/><path class="cls-2" d="M219.51,253.06a1.54,1.54,0,1,0,.56,2.1A1.53,1.53,0,0,0,219.51,253.06Z"/><path class="cls-2" d="M218.74,254.18a.21.21,0,0,1,.18.11.2.2,0,0,1-.08.28l-40.78,23.54a.2.2,0,0,1-.28-.07.2.2,0,0,1,.07-.28l40.79-23.55A.19.19,0,0,1,218.74,254.18Z"/><path class="cls-2" d="M218,253.06a1.54,1.54,0,1,1-.56,2.1A1.53,1.53,0,0,1,218,253.06Z"/><path class="cls-2" d="M177.18,276.6a1.56,1.56,0,0,0-.56,2.11,1.54,1.54,0,1,0,.56-2.11Z"/><path class="cls-2" d="M178,277.73a.21.21,0,0,1,.21.21V325a.21.21,0,0,1-.21.21.2.2,0,0,1-.2-.21V277.94A.2.2,0,0,1,178,277.73Z"/><path class="cls-2" d="M176.41,277.94a1.54,1.54,0,1,1,1.54,1.54A1.54,1.54,0,0,1,176.41,277.94Z"/><path class="cls-2" d="M179.34,325.7a1.64,1.64,0,0,0,.15-.67,1.54,1.54,0,1,0-3.07,0,1.64,1.64,0,0,0,.15.67Z"/><path class="cls-2" d="M179.34,325.7a1.53,1.53,0,0,0-.61-2,1.53,1.53,0,0,0-2.15,2Z"/><path class="cls-2" d="M260.92,325.7a1.54,1.54,0,1,0-2.77,0Z"/><path class="cls-2" d="M178,277.73a.21.21,0,0,1,.21.21V325a.21.21,0,0,1-.21.21.2.2,0,0,1-.2-.21V277.94A.2.2,0,0,1,178,277.73Z"/><path class="cls-2" d="M176.42,277.94a1.54,1.54,0,1,1,1.54,1.54A1.54,1.54,0,0,1,176.42,277.94Z"/><path class="cls-2" d="M179.34,325.7a1.5,1.5,0,0,0,.16-.67,1.54,1.54,0,0,0-3.08,0,1.5,1.5,0,0,0,.16.67Z"/><path class="cls-2" d="M137.18,254.18a.19.19,0,0,1,.1,0l40.79,23.55a.21.21,0,0,1,.07.28.2.2,0,0,1-.28.07l-40.79-23.54a.2.2,0,0,1-.07-.28A.2.2,0,0,1,137.18,254.18Z"/><path class="cls-2" d="M178.73,276.6a1.54,1.54,0,1,1-2.1.57A1.55,1.55,0,0,1,178.73,276.6Z"/><path class="cls-2" d="M137.94,253.06a1.53,1.53,0,1,0,.57,2.1A1.53,1.53,0,0,0,137.94,253.06Z"/><path class="cls-2" d="M137.18,254.18a.2.2,0,0,1,.17.11.2.2,0,0,1-.07.28L96.49,278.11a.2.2,0,0,1-.28-.07.2.2,0,0,1,.08-.28l40.78-23.55A.23.23,0,0,1,137.18,254.18Z"/><path class="cls-2" d="M136.41,253.06a1.53,1.53,0,1,1-.57,2.1A1.53,1.53,0,0,1,136.41,253.06Z"/><path class="cls-2" d="M95.62,276.6a1.54,1.54,0,1,0,2.1.57A1.55,1.55,0,0,0,95.62,276.6Z"/><path class="cls-2" d="M96.39,277.73a.2.2,0,0,1,.2.21V325a.2.2,0,0,1-.2.21.21.21,0,0,1-.21-.21V277.94A.21.21,0,0,1,96.39,277.73Z"/><path class="cls-2" d="M94.85,277.94a1.54,1.54,0,1,1,1.54,1.54A1.54,1.54,0,0,1,94.85,277.94Z"/><path class="cls-2" d="M97.77,325.7a1.5,1.5,0,0,0,.16-.67,1.54,1.54,0,0,0-3.08,0,1.5,1.5,0,0,0,.16.67Z"/><path class="cls-2" d="M97.78,325.7a1.54,1.54,0,0,0-2.72-1.44,1.56,1.56,0,0,0,0,1.44Z"/><path class="cls-2" d="M179.35,325.7a1.54,1.54,0,0,0-2.16-2,1.55,1.55,0,0,0-.61,2Z"/><path class="cls-2" d="M300.31,254.18a.19.19,0,0,1,.1,0l40.78,23.55a.2.2,0,0,1,.07.28.2.2,0,0,1-.28.07l-40.77-23.54a.2.2,0,0,1-.08-.28A.21.21,0,0,1,300.31,254.18Z"/><path class="cls-2" d="M299.54,255.72a1.54,1.54,0,1,1,2.1-.56A1.54,1.54,0,0,1,299.54,255.72Z"/><path class="cls-2" d="M340.32,279.27a1.54,1.54,0,0,0,2.1-.56,1.54,1.54,0,1,0-2.67-1.54A1.54,1.54,0,0,0,340.32,279.27Z"/><path class="cls-2" d="M259.52,183.54a.22.22,0,0,1,.18.1.21.21,0,0,1-.08.28l-40.78,23.55a.21.21,0,0,1-.21-.36l40.79-23.54A.19.19,0,0,1,259.52,183.54Z"/><path class="cls-2" d="M258.75,182.41a1.54,1.54,0,1,1-.56,2.1A1.54,1.54,0,0,1,258.75,182.41Z"/><path class="cls-2" d="M218,206a1.54,1.54,0,1,0,2.11.56A1.54,1.54,0,0,0,218,206Z"/><path class="cls-2" d="M218.73,207.09a.2.2,0,0,1,.21.2v47.1a.2.2,0,0,1-.21.2.2.2,0,0,1-.2-.2v-47.1A.2.2,0,0,1,218.73,207.09Z"/><path class="cls-2" d="M217.19,207.29a1.54,1.54,0,1,1,1.54,1.54A1.54,1.54,0,0,1,217.19,207.29Z"/><path class="cls-2" d="M217.19,254.39a1.54,1.54,0,1,0,1.54-1.54A1.54,1.54,0,0,0,217.19,254.39Z"/><path class="cls-2" d="M218.74,254.18a.17.17,0,0,1,.1,0l40.78,23.55a.21.21,0,0,1,.08.28.2.2,0,0,1-.28.07l-40.78-23.54a.21.21,0,0,1-.08-.28A.21.21,0,0,1,218.74,254.18Z"/><path class="cls-2" d="M218,255.72a1.54,1.54,0,1,1,2.1-.56A1.53,1.53,0,0,1,218,255.72Z"/><path class="cls-2" d="M258.75,279.27a1.54,1.54,0,1,0-.56-2.1A1.53,1.53,0,0,0,258.75,279.27Z"/><path class="cls-2" d="M300.31,254.18a.21.21,0,0,1,.18.11.21.21,0,0,1-.08.28l-40.79,23.54a.2.2,0,0,1-.28-.07.21.21,0,0,1,.08-.28l40.79-23.55A.17.17,0,0,1,300.31,254.18Z"/><path class="cls-2" d="M260.29,279.27a1.54,1.54,0,1,1,.56-2.1A1.53,1.53,0,0,1,260.29,279.27Z"/><path class="cls-2" d="M301.08,255.72a1.54,1.54,0,1,0-2.11-.56A1.53,1.53,0,0,0,301.08,255.72Z"/><path class="cls-2" d="M218.74,207.09a.21.21,0,0,1,.21.2v47.1a.21.21,0,0,1-.21.2.2.2,0,0,1-.2-.2v-47.1A.2.2,0,0,1,218.74,207.09Z"/><path class="cls-2" d="M217.2,207.29a1.54,1.54,0,1,1,1.54,1.54A1.54,1.54,0,0,1,217.2,207.29Z"/><path class="cls-2" d="M217.2,254.39a1.54,1.54,0,1,0,1.54-1.54A1.54,1.54,0,0,0,217.2,254.39Z"/><path class="cls-2" d="M178,183.54a.23.23,0,0,1,.11,0l40.78,23.54a.2.2,0,0,1,.08.28.2.2,0,0,1-.28.08l-40.79-23.55a.2.2,0,0,1-.07-.28A.19.19,0,0,1,178,183.54Z"/><path class="cls-2" d="M219.51,206a1.54,1.54,0,1,1-2.1.56A1.53,1.53,0,0,1,219.51,206Z"/><path class="cls-2" d="M178.72,182.41a1.54,1.54,0,1,0,.57,2.1A1.55,1.55,0,0,0,178.72,182.41Z"/><path class="cls-2" d="M178,183.54a.22.22,0,0,1,.18.1.21.21,0,0,1-.07.28l-40.79,23.55a.2.2,0,0,1-.28-.08.21.21,0,0,1,.07-.28l40.79-23.54A.19.19,0,0,1,178,183.54Z"/><path class="cls-2" d="M177.18,182.41a1.54,1.54,0,1,1-.56,2.1A1.56,1.56,0,0,1,177.18,182.41Z"/><path class="cls-2" d="M136.4,206a1.54,1.54,0,1,0,2.1.56A1.54,1.54,0,0,0,136.4,206Z"/><path class="cls-2" d="M137.17,207.09a.2.2,0,0,1,.2.2v47.1a.2.2,0,0,1-.2.2.2.2,0,0,1-.21-.2v-47.1A.2.2,0,0,1,137.17,207.09Z"/><path class="cls-2" d="M135.63,207.29a1.54,1.54,0,1,1,1.54,1.54A1.54,1.54,0,0,1,135.63,207.29Z"/><path class="cls-2" d="M135.63,254.39a1.54,1.54,0,1,0,1.54-1.54A1.54,1.54,0,0,0,135.63,254.39Z"/><path class="cls-2" d="M137.18,254.18a.19.19,0,0,1,.1,0l40.78,23.55a.21.21,0,0,1,.07.28.2.2,0,0,1-.28.07l-40.78-23.54a.2.2,0,0,1-.07-.28A.2.2,0,0,1,137.18,254.18Z"/><path class="cls-2" d="M136.41,255.72a1.53,1.53,0,1,1,2.1-.56A1.54,1.54,0,0,1,136.41,255.72Z"/><path class="cls-2" d="M177.18,279.27a1.54,1.54,0,1,0-.56-2.1A1.55,1.55,0,0,0,177.18,279.27Z"/><path class="cls-2" d="M218.74,254.18a.21.21,0,0,1,.18.11.2.2,0,0,1-.08.28l-40.78,23.54a.2.2,0,0,1-.28-.07.2.2,0,0,1,.07-.28l40.79-23.55A.19.19,0,0,1,218.74,254.18Z"/><path class="cls-2" d="M178.72,279.27a1.54,1.54,0,0,1-2.1-.56,1.54,1.54,0,1,1,2.67-1.54A1.54,1.54,0,0,1,178.72,279.27Z"/><path class="cls-2" d="M219.51,255.72a1.54,1.54,0,1,0-2.1-.56A1.53,1.53,0,0,0,219.51,255.72Z"/><path class="cls-2" d="M137.18,207.09a.2.2,0,0,1,.2.2v47.1a.2.2,0,0,1-.2.2.2.2,0,0,1-.21-.2v-47.1A.2.2,0,0,1,137.18,207.09Z"/><path class="cls-2" d="M135.64,207.29a1.54,1.54,0,1,1,1.54,1.54A1.54,1.54,0,0,1,135.64,207.29Z"/><path class="cls-2" d="M135.64,254.39a1.54,1.54,0,1,0,1.54-1.54A1.54,1.54,0,0,0,135.64,254.39Z"/><path class="cls-2" d="M96.39,183.54a.19.19,0,0,1,.1,0l40.79,23.54a.21.21,0,0,1-.21.36L96.29,183.92a.2.2,0,0,1-.08-.28A.22.22,0,0,1,96.39,183.54Z"/><path class="cls-2" d="M137.94,206a1.53,1.53,0,1,1-2.1.56A1.54,1.54,0,0,1,137.94,206Z"/><path class="cls-2" d="M97.16,182.41a1.54,1.54,0,1,0-1.54,2.67,1.54,1.54,0,0,0,1.54-2.67Z"/><path class="cls-2" d="M96.39,183.54a.22.22,0,0,1,.18.1.21.21,0,0,1-.08.28L55.7,207.47a.2.2,0,0,1-.28-.08.21.21,0,0,1,.08-.28l40.79-23.54A.17.17,0,0,1,96.39,183.54Z"/><path class="cls-2" d="M95.62,182.41a1.54,1.54,0,1,1-.57,2.1A1.55,1.55,0,0,1,95.62,182.41Z"/><path class="cls-2" d="M54.83,206a1.54,1.54,0,1,0,2.1.56A1.53,1.53,0,0,0,54.83,206Z"/><path class="cls-2" d="M55.6,207.09a.21.21,0,0,1,.21.2v47.1a.21.21,0,0,1-.21.2.2.2,0,0,1-.2-.2v-47.1A.2.2,0,0,1,55.6,207.09Z"/><circle class="cls-2" cx="55.6" cy="207.29" r="1.54" transform="translate(-130.29 100.03) rotate(-45)"/><path class="cls-2" d="M54.06,254.39a1.54,1.54,0,1,0,1.54-1.54A1.54,1.54,0,0,0,54.06,254.39Z"/><path class="cls-2" d="M55.61,254.18a.19.19,0,0,1,.1,0l40.78,23.55a.21.21,0,0,1,.08.28.2.2,0,0,1-.28.07L55.51,254.57a.21.21,0,0,1-.08-.28A.21.21,0,0,1,55.61,254.18Z"/><path class="cls-2" d="M54.84,255.72a1.54,1.54,0,1,1,2.1-.56A1.53,1.53,0,0,1,54.84,255.72Z"/><path class="cls-2" d="M95.62,279.27a1.54,1.54,0,1,0-.57-2.1A1.54,1.54,0,0,0,95.62,279.27Z"/><path class="cls-2" d="M137.18,254.18a.2.2,0,0,1,.17.11.2.2,0,0,1-.07.28L96.49,278.11a.2.2,0,0,1-.28-.07.2.2,0,0,1,.08-.28l40.78-23.55A.23.23,0,0,1,137.18,254.18Z"/><path class="cls-2" d="M97.16,279.27a1.54,1.54,0,1,1,.56-2.1A1.55,1.55,0,0,1,97.16,279.27Z"/><path class="cls-2" d="M137.94,255.72a1.53,1.53,0,1,0-2.1-.56A1.54,1.54,0,0,0,137.94,255.72Z"/><path class="cls-2" d="M218.74,112.89a.21.21,0,0,1,.18.11.2.2,0,0,1-.08.28l-40.78,23.54a.2.2,0,0,1-.28-.07.2.2,0,0,1,.07-.28l40.79-23.55A.19.19,0,0,1,218.74,112.89Z"/><path class="cls-2" d="M218,111.77a1.54,1.54,0,1,1-.56,2.1A1.53,1.53,0,0,1,218,111.77Z"/><path class="cls-2" d="M177.18,135.31a1.54,1.54,0,1,0,2.11.57A1.56,1.56,0,0,0,177.18,135.31Z"/><path class="cls-2" d="M178,136.44a.21.21,0,0,1,.21.21v47.09a.21.21,0,0,1-.21.21.2.2,0,0,1-.2-.21V136.65A.2.2,0,0,1,178,136.44Z"/><path class="cls-2" d="M176.41,136.65a1.54,1.54,0,1,1,1.54,1.54A1.54,1.54,0,0,1,176.41,136.65Z"/><path class="cls-2" d="M176.42,183.74A1.54,1.54,0,1,0,178,182.2,1.53,1.53,0,0,0,176.42,183.74Z"/><path class="cls-2" d="M178,183.54a.23.23,0,0,1,.11,0l40.77,23.54a.2.2,0,0,1,.08.28.2.2,0,0,1-.28.08l-40.78-23.55a.2.2,0,0,1-.07-.28A.19.19,0,0,1,178,183.54Z"/><path class="cls-2" d="M177.19,185.08a1.54,1.54,0,1,1,2.11-.57A1.55,1.55,0,0,1,177.19,185.08Z"/><path class="cls-2" d="M218,208.62a1.54,1.54,0,1,0-.56-2.1A1.53,1.53,0,0,0,218,208.62Z"/><path class="cls-2" d="M259.53,183.54a.22.22,0,0,1,.18.1.21.21,0,0,1-.08.28l-40.79,23.55a.2.2,0,0,1-.28-.08.21.21,0,0,1,.08-.28l40.79-23.54A.17.17,0,0,1,259.53,183.54Z"/><path class="cls-2" d="M219.51,208.62a1.54,1.54,0,1,1,.56-2.1A1.53,1.53,0,0,1,219.51,208.62Z"/><path class="cls-2" d="M260.3,185.08a1.54,1.54,0,0,0-1.54-2.67,1.54,1.54,0,0,0,1.54,2.67Z"/><path class="cls-2" d="M178,136.44a.21.21,0,0,1,.21.21v47.09a.21.21,0,0,1-.21.21.2.2,0,0,1-.2-.21V136.65A.2.2,0,0,1,178,136.44Z"/><path class="cls-2" d="M176.42,136.65a1.54,1.54,0,1,1,1.54,1.54A1.54,1.54,0,0,1,176.42,136.65Z"/><path class="cls-2" d="M176.42,183.74A1.54,1.54,0,1,0,178,182.2,1.54,1.54,0,0,0,176.42,183.74Z"/><path class="cls-2" d="M137.18,112.89a.19.19,0,0,1,.1,0l40.79,23.55a.21.21,0,0,1,.07.28.2.2,0,0,1-.28.07l-40.79-23.54A.2.2,0,0,1,137,113,.2.2,0,0,1,137.18,112.89Z"/><path class="cls-2" d="M178.73,135.31a1.54,1.54,0,1,1-2.1.57A1.55,1.55,0,0,1,178.73,135.31Z"/><path class="cls-2" d="M137.94,111.77a1.53,1.53,0,1,0,.57,2.1A1.53,1.53,0,0,0,137.94,111.77Z"/><path class="cls-2" d="M137.18,112.89a.2.2,0,0,1,.17.11.2.2,0,0,1-.07.28L96.49,136.82a.2.2,0,0,1-.28-.07.2.2,0,0,1,.08-.28l40.78-23.55A.23.23,0,0,1,137.18,112.89Z"/><path class="cls-2" d="M136.41,111.77a1.53,1.53,0,1,1-.57,2.1A1.53,1.53,0,0,1,136.41,111.77Z"/><path class="cls-2" d="M95.62,135.31a1.54,1.54,0,1,0,2.1.57A1.55,1.55,0,0,0,95.62,135.31Z"/><path class="cls-2" d="M96.39,136.44a.2.2,0,0,1,.2.21v47.09a.2.2,0,0,1-.2.21.21.21,0,0,1-.21-.21V136.65A.21.21,0,0,1,96.39,136.44Z"/><path class="cls-2" d="M94.85,136.65a1.54,1.54,0,1,1,1.54,1.54A1.54,1.54,0,0,1,94.85,136.65Z"/><path class="cls-2" d="M94.85,183.74a1.54,1.54,0,1,0,1.54-1.54A1.54,1.54,0,0,0,94.85,183.74Z"/><path class="cls-2" d="M96.4,183.54a.19.19,0,0,1,.1,0l40.78,23.54a.21.21,0,0,1-.21.36L96.29,183.92a.21.21,0,0,1-.07-.28A.22.22,0,0,1,96.4,183.54Z"/><path class="cls-2" d="M95.63,185.08a1.54,1.54,0,1,1,2.1-.57A1.55,1.55,0,0,1,95.63,185.08Z"/><path class="cls-2" d="M136.41,208.62a1.53,1.53,0,1,0-.57-2.1A1.53,1.53,0,0,0,136.41,208.62Z"/><path class="cls-2" d="M178,183.54a.22.22,0,0,1,.18.1.21.21,0,0,1-.07.28l-40.79,23.55a.21.21,0,0,1-.21-.36l40.79-23.54A.19.19,0,0,1,178,183.54Z"/><path class="cls-2" d="M137.94,208.62a1.53,1.53,0,1,1,.57-2.1A1.53,1.53,0,0,1,137.94,208.62Z"/><path class="cls-2" d="M178.73,185.08a1.54,1.54,0,1,0-2.1-.57A1.55,1.55,0,0,0,178.73,185.08Z"/><path class="cls-2" d="M218.73,65.8a.2.2,0,0,1,.21.2v47.1a.2.2,0,0,1-.21.2.2.2,0,0,1-.2-.2V66A.2.2,0,0,1,218.73,65.8Z"/><path class="cls-2" d="M217.19,66a1.54,1.54,0,1,1,1.54,1.54A1.54,1.54,0,0,1,217.19,66Z"/><path class="cls-2" d="M217.19,113.1a1.54,1.54,0,1,0,1.54-1.54A1.54,1.54,0,0,0,217.19,113.1Z"/><path class="cls-2" d="M218.74,65.8a.21.21,0,0,1,.21.2v47.1a.21.21,0,0,1-.21.2.2.2,0,0,1-.2-.2V66A.2.2,0,0,1,218.74,65.8Z"/><path class="cls-2" d="M217.2,66a1.54,1.54,0,1,1,1.54,1.54A1.54,1.54,0,0,1,217.2,66Z"/><path class="cls-2" d="M217.2,113.1a1.54,1.54,0,1,0,1.54-1.54A1.54,1.54,0,0,0,217.2,113.1Z"/><path class="cls-2" d="M178,42.25a.23.23,0,0,1,.11,0l40.78,23.54a.2.2,0,0,1,.08.28.21.21,0,0,1-.28.08L177.85,42.63a.2.2,0,0,1-.07-.28A.18.18,0,0,1,178,42.25Z"/><path class="cls-2" d="M219.51,64.67a1.54,1.54,0,1,1-2.1.56A1.53,1.53,0,0,1,219.51,64.67Z"/><path class="cls-2" d="M178.72,41.12a1.54,1.54,0,0,0-2.1.56,1.54,1.54,0,1,0,2.67,1.54A1.54,1.54,0,0,0,178.72,41.12Z"/><path class="cls-2" d="M178,42.25a.2.2,0,0,1,.18.1.21.21,0,0,1-.07.28L137.27,66.18a.21.21,0,0,1-.21-.36l40.79-23.54A.19.19,0,0,1,178,42.25Z"/><path class="cls-2" d="M177.18,41.12a1.54,1.54,0,1,1-.56,2.1A1.55,1.55,0,0,1,177.18,41.12Z"/><path class="cls-2" d="M136.4,64.67a1.54,1.54,0,1,0,2.1.56A1.54,1.54,0,0,0,136.4,64.67Z"/><path class="cls-2" d="M137.17,65.8a.2.2,0,0,1,.2.2v47.1a.2.2,0,0,1-.2.2.2.2,0,0,1-.21-.2V66A.2.2,0,0,1,137.17,65.8Z"/><path class="cls-2" d="M135.63,66a1.54,1.54,0,1,1,1.54,1.54A1.54,1.54,0,0,1,135.63,66Z"/><path class="cls-2" d="M135.63,113.1a1.54,1.54,0,1,0,1.54-1.54A1.54,1.54,0,0,0,135.63,113.1Z"/><path class="cls-2" d="M137.18,112.89a.19.19,0,0,1,.1,0l40.78,23.55a.21.21,0,0,1,.07.28.2.2,0,0,1-.28.07l-40.78-23.54A.2.2,0,0,1,137,113,.2.2,0,0,1,137.18,112.89Z"/><path class="cls-2" d="M136.41,114.43a1.53,1.53,0,1,1,2.1-.56A1.54,1.54,0,0,1,136.41,114.43Z"/><path class="cls-2" d="M177.18,138a1.54,1.54,0,1,0-.56-2.1A1.56,1.56,0,0,0,177.18,138Z"/><path class="cls-2" d="M218.74,112.89a.21.21,0,0,1,.18.11.2.2,0,0,1-.08.28l-40.78,23.54a.2.2,0,0,1-.28-.07.2.2,0,0,1,.07-.28l40.79-23.55A.19.19,0,0,1,218.74,112.89Z"/><path class="cls-2" d="M178.72,138a1.54,1.54,0,1,1,.57-2.1A1.55,1.55,0,0,1,178.72,138Z"/><path class="cls-2" d="M219.51,114.43a1.54,1.54,0,1,0-2.1-.56A1.53,1.53,0,0,0,219.51,114.43Z"/><path class="cls-2" d="M137.18,65.8a.2.2,0,0,1,.2.2v47.1a.2.2,0,0,1-.2.2.2.2,0,0,1-.21-.2V66A.2.2,0,0,1,137.18,65.8Z"/><path class="cls-2" d="M135.64,66a1.54,1.54,0,1,1,1.54,1.54A1.54,1.54,0,0,1,135.64,66Z"/><path class="cls-2" d="M135.64,113.1a1.54,1.54,0,1,0,1.54-1.54A1.54,1.54,0,0,0,135.64,113.1Z"/><path class="cls-2" d="M96.39,42.25a.19.19,0,0,1,.1,0l40.79,23.54a.2.2,0,0,1,.07.28.21.21,0,0,1-.28.08L96.29,42.63a.2.2,0,0,1,.1-.38Z"/><path class="cls-2" d="M137.94,64.67a1.53,1.53,0,1,1-2.1.56A1.54,1.54,0,0,1,137.94,64.67Z"/><path class="cls-2" d="M97.16,41.12a1.54,1.54,0,1,0,.56,2.1A1.55,1.55,0,0,0,97.16,41.12Z"/><path class="cls-2" d="M96.39,42.25a.2.2,0,0,1,.18.1.21.21,0,0,1-.08.28L55.7,66.18a.21.21,0,0,1-.28-.08.21.21,0,0,1,.08-.28L96.29,42.28A.17.17,0,0,1,96.39,42.25Z"/><path class="cls-2" d="M95.62,41.12a1.54,1.54,0,1,1-.57,2.1A1.54,1.54,0,0,1,95.62,41.12Z"/><path class="cls-2" d="M54.83,64.67a1.54,1.54,0,1,0,2.1.56A1.53,1.53,0,0,0,54.83,64.67Z"/><path class="cls-2" d="M55.6,65.8a.21.21,0,0,1,.21.2v47.1a.21.21,0,0,1-.21.2.2.2,0,0,1-.2-.2V66A.2.2,0,0,1,55.6,65.8Z"/><path class="cls-2" d="M54.06,66a1.54,1.54,0,1,1,1.54,1.54A1.54,1.54,0,0,1,54.06,66Z"/><path class="cls-2" d="M54.06,113.1a1.54,1.54,0,1,0,1.54-1.54A1.54,1.54,0,0,0,54.06,113.1Z"/><path class="cls-2" d="M55.61,112.89a.19.19,0,0,1,.1,0l40.78,23.55a.21.21,0,0,1,.08.28.2.2,0,0,1-.28.07L55.51,113.28a.21.21,0,0,1-.08-.28A.21.21,0,0,1,55.61,112.89Z"/><path class="cls-2" d="M54.84,114.43a1.54,1.54,0,1,1,2.1-.56A1.53,1.53,0,0,1,54.84,114.43Z"/><path class="cls-2" d="M95.62,138a1.54,1.54,0,1,0-.57-2.1A1.55,1.55,0,0,0,95.62,138Z"/><path class="cls-2" d="M137.18,112.89a.2.2,0,0,1,.17.11.2.2,0,0,1-.07.28L96.49,136.82a.2.2,0,0,1-.28-.07.2.2,0,0,1,.08-.28l40.78-23.55A.23.23,0,0,1,137.18,112.89Z"/><path class="cls-2" d="M97.16,138a1.54,1.54,0,1,1-1.54-2.67A1.54,1.54,0,0,1,97.16,138Z"/><path class="cls-2" d="M137.94,114.43a1.53,1.53,0,1,0-2.1-.56A1.54,1.54,0,0,0,137.94,114.43Z"/><path class="cls-2" d="M177.75,0V42.45a.2.2,0,0,0,.2.21.21.21,0,0,0,.21-.21V0Z"/><path class="cls-2" d="M176.42,42.45A1.54,1.54,0,1,0,178,40.91,1.53,1.53,0,0,0,176.42,42.45Z"/><path class="cls-2" d="M178,42.25a.23.23,0,0,1,.11,0l40.77,23.54a.2.2,0,0,1,.08.28.21.21,0,0,1-.28.08L177.86,42.63a.2.2,0,0,1-.07-.28A.18.18,0,0,1,178,42.25Z"/><path class="cls-2" d="M177.19,43.79a1.54,1.54,0,1,1,2.11-.57A1.55,1.55,0,0,1,177.19,43.79Z"/><path class="cls-2" d="M218,67.33a1.54,1.54,0,1,0-.56-2.1A1.53,1.53,0,0,0,218,67.33Z"/><path class="cls-2" d="M177.76,0V42.45a.2.2,0,0,0,.2.21.21.21,0,0,0,.21-.21V0Z"/><path class="cls-2" d="M176.42,42.45A1.54,1.54,0,1,0,178,40.91,1.54,1.54,0,0,0,176.42,42.45Z"/><path class="cls-2" d="M96.18,0V42.45a.21.21,0,0,0,.21.21.2.2,0,0,0,.2-.21V0Z"/><path class="cls-2" d="M94.85,42.45a1.54,1.54,0,1,0,1.54-1.54A1.54,1.54,0,0,0,94.85,42.45Z"/><path class="cls-2" d="M96.4,42.25a.19.19,0,0,1,.1,0l40.78,23.54a.2.2,0,0,1,.07.28.21.21,0,0,1-.28.08L96.29,42.63a.21.21,0,0,1-.07-.28A.2.2,0,0,1,96.4,42.25Z"/><path class="cls-2" d="M95.63,43.79a1.54,1.54,0,1,1,2.1-.57A1.55,1.55,0,0,1,95.63,43.79Z"/><path class="cls-2" d="M136.41,67.33a1.53,1.53,0,1,0-.57-2.1A1.53,1.53,0,0,0,136.41,67.33Z"/><path class="cls-2" d="M178,42.25a.2.2,0,0,1,.18.1.21.21,0,0,1-.07.28L137.28,66.18a.21.21,0,0,1-.28-.08.2.2,0,0,1,.07-.28l40.79-23.54A.19.19,0,0,1,178,42.25Z"/><path class="cls-2" d="M137.94,67.33a1.53,1.53,0,1,1,.57-2.1A1.53,1.53,0,0,1,137.94,67.33Z"/><path class="cls-2" d="M178.73,43.79a1.54,1.54,0,1,0-2.1-.57A1.55,1.55,0,0,0,178.73,43.79Z"/><path class="cls-2" d="M4.27,0H3.45L35.77,18.65a.2.2,0,0,0,.28-.07A.21.21,0,0,0,36,18.3Z"/><path class="cls-2" d="M0,84.87,36,64.1a.2.2,0,0,0,.07-.28.19.19,0,0,0-.17-.1.23.23,0,0,0-.11,0L0,84.4Z"/><path class="cls-2" d="M35.88,18.27a.2.2,0,0,1,.2.21V63.92a.2.2,0,0,1-.2.21.21.21,0,0,1-.21-.21V18.48A.21.21,0,0,1,35.88,18.27Z"/><path class="cls-2" d="M4.28,0H3.46L35.77,18.65a.2.2,0,0,0,.28-.07A.21.21,0,0,0,36,18.3Z"/><path class="cls-2" d="M35.87,18.27a.2.2,0,0,1,.2.21V63.92a.2.2,0,0,1-.2.21.21.21,0,0,1-.21-.21V18.48A.21.21,0,0,1,35.87,18.27Z"/><path class="cls-2" d="M35.87,63.72a.19.19,0,0,1,.1,0L75.33,86.47a.2.2,0,0,1,.07.28.2.2,0,0,1-.28.07L35.77,64.1a.2.2,0,0,1-.08-.28A.22.22,0,0,1,35.87,63.72Z"/><path class="cls-2" d="M0,134.34,35.77,155a.2.2,0,0,0,.28-.07.21.21,0,0,0-.08-.28L0,133.87Z"/><path class="cls-2" d="M75.23,131.89a.19.19,0,0,1,.17.1.2.2,0,0,1-.07.28L36,155a.2.2,0,0,1-.28-.07.2.2,0,0,1,.08-.28l39.35-22.72A.23.23,0,0,1,75.23,131.89Z"/><path class="cls-2" d="M75.23,86.44a.2.2,0,0,1,.2.21v45.44a.2.2,0,0,1-.2.21.21.21,0,0,1-.21-.21V86.65A.21.21,0,0,1,75.23,86.44Z"/><path class="cls-2" d="M35.87,63.72a.19.19,0,0,1,.1,0L75.32,86.47a.21.21,0,0,1,.08.28.2.2,0,0,1-.28.07L35.77,64.1a.2.2,0,0,1-.08-.28A.22.22,0,0,1,35.87,63.72Z"/><path class="cls-2" d="M0,84.87,36,64.1a.21.21,0,0,0,.08-.28.22.22,0,0,0-.18-.1.17.17,0,0,0-.1,0L0,84.4Z"/><path class="cls-2" d="M75.22,86.44a.2.2,0,0,1,.2.21v45.44a.2.2,0,0,1-.2.21.21.21,0,0,1-.21-.21V86.65A.21.21,0,0,1,75.22,86.44Z"/><path class="cls-2" d="M0,221.21l36-20.77a.2.2,0,0,0,.07-.28.18.18,0,0,0-.17-.1.23.23,0,0,0-.11,0L0,220.74Z"/><path class="cls-2" d="M35.88,154.61a.2.2,0,0,1,.2.21v45.44a.2.2,0,0,1-.2.21.21.21,0,0,1-.21-.21V154.82A.21.21,0,0,1,35.88,154.61Z"/><path class="cls-2" d="M0,134.34,35.77,155a.2.2,0,0,0,.28-.07.21.21,0,0,0-.08-.28L0,133.87Z"/><path class="cls-2" d="M35.87,154.61a.2.2,0,0,1,.2.21v45.44a.2.2,0,0,1-.2.21.21.21,0,0,1-.21-.21V154.82A.21.21,0,0,1,35.87,154.61Z"/><path class="cls-2" d="M35.87,200.06l.1,0,39.36,22.73a.2.2,0,0,1-.21.35L35.77,200.44a.2.2,0,0,1,.1-.38Z"/><path class="cls-2" d="M75.23,131.89a.19.19,0,0,1,.17.1.2.2,0,0,1-.07.28L36,155a.2.2,0,0,1-.28-.07.2.2,0,0,1,.08-.28l39.35-22.72A.23.23,0,0,1,75.23,131.89Z"/><path class="cls-2" d="M0,270.68l35.77,20.65a.2.2,0,0,0,.28-.07A.21.21,0,0,0,36,291L0,270.21Z"/><path class="cls-2" d="M75.23,268.23a.18.18,0,0,1,.17.1.2.2,0,0,1-.07.28L36,291.33a.2.2,0,1,1-.2-.35l39.35-22.73Z"/><path class="cls-2" d="M75.23,222.78a.2.2,0,0,1,.2.21v45.44a.21.21,0,1,1-.41,0V223A.21.21,0,0,1,75.23,222.78Z"/><path class="cls-2" d="M35.87,200.06l.1,0,39.35,22.73a.21.21,0,0,1,.08.28.2.2,0,0,1-.28.07L35.77,200.44a.2.2,0,0,1,.1-.38Z"/><path class="cls-2" d="M0,221.21l36-20.77a.21.21,0,0,0,.08-.28.2.2,0,0,0-.18-.1.17.17,0,0,0-.1,0L0,220.73Z"/><path class="cls-2" d="M75.22,222.78a.2.2,0,0,1,.2.21v45.44a.21.21,0,1,1-.41,0V223A.21.21,0,0,1,75.22,222.78Z"/><path class="cls-2" d="M75.22,268.23l.1,0L114.68,291a.2.2,0,1,1-.21.35L75.12,268.61a.2.2,0,0,1,.1-.38Z"/><path class="cls-2" d="M36.08,325.7V291.16a.2.2,0,0,0-.2-.21.21.21,0,0,0-.21.21V325.7Z"/><path class="cls-2" d="M0,270.68l35.77,20.65a.2.2,0,0,0,.28-.07A.21.21,0,0,0,36,291L0,270.21Z"/><path class="cls-2" d="M36.07,325.7V291.16a.2.2,0,0,0-.2-.21.21.21,0,0,0-.21.21V325.7Z"/><path class="cls-2" d="M114.79,325.7V291.16a.21.21,0,0,0-.21-.21.2.2,0,0,0-.2.21V325.7Z"/><path class="cls-2" d="M75.23,268.23l.1,0L114.68,291a.2.2,0,1,1-.21.35L75.12,268.61a.21.21,0,0,1-.07-.28A.2.2,0,0,1,75.23,268.23Z"/><path class="cls-2" d="M75.23,268.23a.18.18,0,0,1,.17.1.2.2,0,0,1-.07.28L36,291.33a.2.2,0,1,1-.2-.35l39.35-22.73Z"/><path class="cls-2" d="M114.78,325.7V291.16a.2.2,0,0,0-.2-.21.21.21,0,0,0-.21.21V325.7Z"/><path class="cls-2" d="M0,13.42l7.42,4.29a.21.21,0,0,0,.28-.08.21.21,0,0,0-.07-.28L0,13Z"/><path class="cls-2" d="M6.75,18.86a1.54,1.54,0,1,0-.56-2.1A1.54,1.54,0,0,0,6.75,18.86Z"/><path class="cls-2" d="M31.7,3.36a.21.21,0,0,1,.18.11.21.21,0,0,1-.07.28l-24.18,14a.21.21,0,0,1-.28-.08.2.2,0,0,1,.07-.28l24.18-14A.19.19,0,0,1,31.7,3.36Z"/><path class="cls-2" d="M8.29,18.86a1.54,1.54,0,1,1,.57-2.1A1.53,1.53,0,0,1,8.29,18.86Z"/><path class="cls-2" d="M32.47,4.9a1.54,1.54,0,1,0-2.1-.56A1.54,1.54,0,0,0,32.47,4.9Z"/><path class="cls-2" d="M31.7,3.36a.19.19,0,0,1,.1,0L56,17.35a.2.2,0,0,1,.07.28.21.21,0,0,1-.28.08L31.6,3.75a.2.2,0,0,1-.08-.28A.21.21,0,0,1,31.7,3.36Z"/><path class="cls-2" d="M30.93,4.9A1.54,1.54,0,1,1,33,4.34,1.53,1.53,0,0,1,30.93,4.9Z"/><path class="cls-2" d="M55.11,18.86a1.54,1.54,0,1,0-.57-2.1A1.53,1.53,0,0,0,55.11,18.86Z"/><path class="cls-2" d="M0,50l7.63-4.4a.21.21,0,0,0,.08-.28.21.21,0,0,0-.18-.11.17.17,0,0,0-.1,0L0,49.56Z"/><path class="cls-2" d="M8.3,46.78a1.54,1.54,0,1,0-2.1-.56A1.53,1.53,0,0,0,8.3,46.78Z"/><path class="cls-2" d="M7.53,17.32a.21.21,0,0,1,.2.21V45.45a.2.2,0,0,1-.2.2.21.21,0,0,1-.21-.2V17.53A.22.22,0,0,1,7.53,17.32Z"/><path class="cls-2" d="M9.07,45.45a1.54,1.54,0,1,1-1.54-1.54A1.54,1.54,0,0,1,9.07,45.45Z"/><path class="cls-2" d="M9.07,17.53a1.54,1.54,0,1,0-1.54,1.54A1.54,1.54,0,0,0,9.07,17.53Z"/><path class="cls-2" d="M0,13.42l7.42,4.29a.21.21,0,0,0,.28-.08.21.21,0,0,0-.07-.28L0,13Z"/><path class="cls-2" d="M8.29,16.2a1.54,1.54,0,1,1-2.1.56A1.54,1.54,0,0,1,8.29,16.2Z"/><path class="cls-2" d="M7.52,17.32a.21.21,0,0,1,.21.21V45.45a.2.2,0,0,1-.21.2.2.2,0,0,1-.2-.2V17.53A.21.21,0,0,1,7.52,17.32Z"/><path class="cls-2" d="M9.06,45.45a1.54,1.54,0,1,1-1.54-1.54A1.54,1.54,0,0,1,9.06,45.45Z"/><path class="cls-2" d="M9.06,17.53a1.54,1.54,0,1,0-1.54,1.54A1.54,1.54,0,0,0,9.06,17.53Z"/><path class="cls-2" d="M7.52,45.24a.23.23,0,0,1,.11,0l24.18,14a.21.21,0,0,1,.07.28.21.21,0,0,1-.28.08l-24.18-14a.2.2,0,0,1-.07-.28A.18.18,0,0,1,7.52,45.24Z"/><path class="cls-2" d="M6.75,46.78a1.54,1.54,0,1,1,2.11-.56A1.54,1.54,0,0,1,6.75,46.78Z"/><path class="cls-2" d="M30.93,60.74a1.54,1.54,0,1,0,1.54-2.66,1.54,1.54,0,0,0-1.54,2.66Z"/><path class="cls-2" d="M55.88,45.24a.21.21,0,0,1,.18.11.2.2,0,0,1-.08.28l-24.17,14a.21.21,0,0,1-.28-.08.2.2,0,0,1,.07-.28l24.18-14A.19.19,0,0,1,55.88,45.24Z"/><path class="cls-2" d="M32.47,60.74a1.54,1.54,0,1,1,.57-2.1A1.54,1.54,0,0,1,32.47,60.74Z"/><path class="cls-2" d="M56.65,46.78a1.54,1.54,0,1,0-2.1-.56A1.54,1.54,0,0,0,56.65,46.78Z"/><path class="cls-2" d="M55.88,17.32a.21.21,0,0,1,.21.21V45.45a.2.2,0,0,1-.21.2.2.2,0,0,1-.2-.2V17.53A.21.21,0,0,1,55.88,17.32Z"/><path class="cls-2" d="M57.42,45.45a1.54,1.54,0,1,1-1.54-1.54A1.54,1.54,0,0,1,57.42,45.45Z"/><path class="cls-2" d="M57.42,17.53a1.54,1.54,0,1,0-1.54,1.54A1.54,1.54,0,0,0,57.42,17.53Z"/><path class="cls-2" d="M31.7,3.36a.23.23,0,0,1,.11,0L56,17.35a.2.2,0,0,1,.07.28.21.21,0,0,1-.28.08L31.6,3.75a.2.2,0,0,1-.07-.28A.18.18,0,0,1,31.7,3.36Z"/><path class="cls-2" d="M56.65,16.2a1.54,1.54,0,1,1-2.11.56A1.53,1.53,0,0,1,56.65,16.2Z"/><path class="cls-2" d="M32.47,2.24A1.54,1.54,0,1,0,33,4.34,1.53,1.53,0,0,0,32.47,2.24Z"/><path class="cls-2" d="M31.7,3.36a.21.21,0,0,1,.18.11.21.21,0,0,1-.07.28l-24.18,14a.21.21,0,0,1-.28-.08.2.2,0,0,1,.07-.28l24.18-14A.19.19,0,0,1,31.7,3.36Z"/><path class="cls-2" d="M30.93,2.24a1.54,1.54,0,1,1-.56,2.1A1.54,1.54,0,0,1,30.93,2.24Z"/><path class="cls-2" d="M6.75,16.2a1.54,1.54,0,1,0,2.11.56A1.54,1.54,0,0,0,6.75,16.2Z"/><path class="cls-2" d="M55.88,17.32a.21.21,0,0,1,.2.21V45.45a.2.2,0,0,1-.2.2.2.2,0,0,1-.21-.2V17.53A.21.21,0,0,1,55.88,17.32Z"/><path class="cls-2" d="M57.42,45.45a1.54,1.54,0,1,1-1.54-1.54A1.54,1.54,0,0,1,57.42,45.45Z"/><path class="cls-2" d="M57.42,17.53a1.54,1.54,0,1,0-1.54,1.54A1.54,1.54,0,0,0,57.42,17.53Z"/><path class="cls-2" d="M55.88,45.24a.19.19,0,0,1,.1,0l24.18,14a.2.2,0,0,1,.07.28.21.21,0,0,1-.28.08l-24.18-14a.21.21,0,0,1,.11-.39Z"/><path class="cls-2" d="M55.11,46.78a1.54,1.54,0,1,1,2.1-.56A1.54,1.54,0,0,1,55.11,46.78Z"/><path class="cls-2" d="M79.29,60.74a1.54,1.54,0,1,0-.57-2.1A1.54,1.54,0,0,0,79.29,60.74Z"/><path class="cls-2" d="M31.7,59.2a.21.21,0,0,1,.21.21V87.33a.2.2,0,0,1-.21.2.2.2,0,0,1-.2-.2V59.41A.21.21,0,0,1,31.7,59.2Z"/><path class="cls-2" d="M33.24,87.33a1.54,1.54,0,1,1-1.54-1.54A1.54,1.54,0,0,1,33.24,87.33Z"/><path class="cls-2" d="M33.24,59.41A1.54,1.54,0,1,0,31.7,61,1.54,1.54,0,0,0,33.24,59.41Z"/><path class="cls-2" d="M7.52,45.24a.23.23,0,0,1,.11,0l24.17,14a.21.21,0,0,1,.08.28.21.21,0,0,1-.28.08l-24.18-14a.2.2,0,0,1-.07-.28A.18.18,0,0,1,7.52,45.24Z"/><path class="cls-2" d="M32.47,58.08a1.54,1.54,0,1,1-2.1.56A1.53,1.53,0,0,1,32.47,58.08Z"/><path class="cls-2" d="M8.29,44.12a1.54,1.54,0,0,0-1.54,2.66,1.54,1.54,0,1,0,1.54-2.66Z"/><path class="cls-2" d="M0,50l7.63-4.4a.21.21,0,0,0-.11-.39.19.19,0,0,0-.1,0L0,49.56Z"/><path class="cls-2" d="M6.75,44.12a1.54,1.54,0,1,1-.56,2.1A1.54,1.54,0,0,1,6.75,44.12Z"/><path class="cls-2" d="M31.7,59.2a.21.21,0,0,1,.2.21V87.33a.2.2,0,0,1-.2.2.21.21,0,0,1-.21-.2V59.41A.22.22,0,0,1,31.7,59.2Z"/><path class="cls-2" d="M33.24,87.33a1.54,1.54,0,1,1-1.54-1.54A1.54,1.54,0,0,1,33.24,87.33Z"/><path class="cls-2" d="M33.24,59.41A1.54,1.54,0,1,0,31.7,61,1.54,1.54,0,0,0,33.24,59.41Z"/><path class="cls-2" d="M31.7,87.12a.19.19,0,0,1,.1,0l24.18,14a.2.2,0,0,1,.07.28.21.21,0,0,1-.28.08l-24.17-14a.2.2,0,0,1-.08-.28A.21.21,0,0,1,31.7,87.12Z"/><path class="cls-2" d="M30.93,88.66A1.54,1.54,0,1,1,33,88.1,1.53,1.53,0,0,1,30.93,88.66Z"/><path class="cls-2" d="M55.11,102.62a1.54,1.54,0,1,0-.57-2.1A1.54,1.54,0,0,0,55.11,102.62Z"/><path class="cls-2" d="M80.06,87.12a.18.18,0,0,1,.17.11.2.2,0,0,1-.07.28L56,101.47a.21.21,0,0,1-.28-.08.21.21,0,0,1,.07-.28L80,87.15A.23.23,0,0,1,80.06,87.12Z"/><path class="cls-2" d="M56.65,102.62a1.54,1.54,0,1,1,.56-2.1A1.55,1.55,0,0,1,56.65,102.62Z"/><path class="cls-2" d="M80.83,88.66a1.54,1.54,0,1,0-2.11-.56A1.55,1.55,0,0,0,80.83,88.66Z"/><path class="cls-2" d="M80.06,59.2a.21.21,0,0,1,.2.21V87.33a.2.2,0,0,1-.2.2.2.2,0,0,1-.21-.2V59.41A.21.21,0,0,1,80.06,59.2Z"/><path class="cls-2" d="M81.6,87.33a1.54,1.54,0,1,1-1.54-1.54A1.54,1.54,0,0,1,81.6,87.33Z"/><circle class="cls-2" cx="80.06" cy="59.41" r="1.54"/><path class="cls-2" d="M55.88,45.24a.19.19,0,0,1,.1,0l24.17,14a.2.2,0,0,1,.08.28.21.21,0,0,1-.28.08l-24.18-14a.21.21,0,0,1,.11-.39Z"/><path class="cls-2" d="M80.82,58.08a1.54,1.54,0,1,1-2.1.56A1.53,1.53,0,0,1,80.82,58.08Z"/><path class="cls-2" d="M56.65,44.12a1.54,1.54,0,1,0,.56,2.1A1.54,1.54,0,0,0,56.65,44.12Z"/><path class="cls-2" d="M55.88,45.24a.18.18,0,0,1,.17.11.2.2,0,0,1-.07.28l-24.18,14a.21.21,0,0,1-.28-.08.2.2,0,0,1,.08-.28l24.17-14A.23.23,0,0,1,55.88,45.24Z"/><path class="cls-2" d="M55.11,44.12a1.54,1.54,0,0,1,1.54,2.66,1.54,1.54,0,1,1-1.54-2.66Z"/><path class="cls-2" d="M30.93,58.08a1.54,1.54,0,1,0,2.1.56A1.53,1.53,0,0,0,30.93,58.08Z"/><path class="cls-2" d="M80.05,59.2a.22.22,0,0,1,.21.21V87.33a.21.21,0,0,1-.21.2.2.2,0,0,1-.2-.2V59.41A.21.21,0,0,1,80.05,59.2Z"/><path class="cls-2" d="M81.59,87.33a1.54,1.54,0,1,1-1.54-1.54A1.54,1.54,0,0,1,81.59,87.33Z"/><path class="cls-2" d="M81.59,59.41A1.54,1.54,0,1,0,80.05,61,1.54,1.54,0,0,0,81.59,59.41Z"/><path class="cls-2" d="M80.05,87.12a.17.17,0,0,1,.1,0l24.18,14a.21.21,0,0,1-.2.36L80,87.51a.21.21,0,0,1-.08-.28A.21.21,0,0,1,80.05,87.12Z"/><path class="cls-2" d="M79.28,88.66a1.54,1.54,0,1,1,2.1-.56A1.54,1.54,0,0,1,79.28,88.66Z"/><path class="cls-2" d="M103.46,102.62a1.54,1.54,0,1,0-.56-2.1A1.53,1.53,0,0,0,103.46,102.62Z"/><path class="cls-2" d="M7.52,129a.23.23,0,0,1,.11,0l24.18,14a.21.21,0,0,1,.07.28.2.2,0,0,1-.28.07l-24.18-14a.2.2,0,0,1-.07-.28A.19.19,0,0,1,7.52,129Z"/><path class="cls-2" d="M6.75,130.54A1.54,1.54,0,1,1,8.86,130,1.55,1.55,0,0,1,6.75,130.54Z"/><path class="cls-2" d="M30.93,144.5a1.54,1.54,0,1,0-.56-2.1A1.55,1.55,0,0,0,30.93,144.5Z"/><path class="cls-2" d="M55.88,129a.22.22,0,0,1,.18.1.2.2,0,0,1-.08.28l-24.17,14a.2.2,0,0,1-.28-.07.2.2,0,0,1,.07-.28l24.18-14A.19.19,0,0,1,55.88,129Z"/><path class="cls-2" d="M32.47,144.5a1.54,1.54,0,0,1-2.1-.56A1.54,1.54,0,1,1,33,142.4,1.54,1.54,0,0,1,32.47,144.5Z"/><path class="cls-2" d="M56.65,130.54a1.54,1.54,0,1,0-2.1-.56A1.54,1.54,0,0,0,56.65,130.54Z"/><path class="cls-2" d="M55.88,101.08a.21.21,0,0,1,.21.21v27.92a.2.2,0,0,1-.21.2.2.2,0,0,1-.2-.2V101.29A.21.21,0,0,1,55.88,101.08Z"/><path class="cls-2" d="M57.42,129.21a1.54,1.54,0,1,1-1.54-1.54A1.54,1.54,0,0,1,57.42,129.21Z"/><path class="cls-2" d="M57.42,101.29a1.54,1.54,0,1,0-1.54,1.54A1.54,1.54,0,0,0,57.42,101.29Z"/><path class="cls-2" d="M31.7,87.12a.23.23,0,0,1,.11,0l24.17,14a.2.2,0,0,1,.07.28.21.21,0,0,1-.28.08l-24.17-14a.2.2,0,0,1-.07-.28A.18.18,0,0,1,31.7,87.12Z"/><path class="cls-2" d="M56.65,100a1.54,1.54,0,1,1-2.11.56A1.53,1.53,0,0,1,56.65,100Z"/><path class="cls-2" d="M32.47,86a1.54,1.54,0,0,0-1.54,2.66A1.54,1.54,0,1,0,32.47,86Z"/><path class="cls-2" d="M55.88,101.08a.21.21,0,0,1,.2.21v27.92a.2.2,0,0,1-.2.2.2.2,0,0,1-.21-.2V101.29A.21.21,0,0,1,55.88,101.08Z"/><path class="cls-2" d="M57.42,129.21a1.54,1.54,0,1,1-1.54-1.54A1.54,1.54,0,0,1,57.42,129.21Z"/><path class="cls-2" d="M57.42,101.29a1.54,1.54,0,1,0-1.54,1.54A1.54,1.54,0,0,0,57.42,101.29Z"/><path class="cls-2" d="M55.88,129a.19.19,0,0,1,.1,0l24.18,14a.2.2,0,0,1,.07.28.2.2,0,0,1-.28.07l-24.18-14a.21.21,0,0,1-.07-.28A.22.22,0,0,1,55.88,129Z"/><path class="cls-2" d="M55.11,130.54a1.54,1.54,0,1,1,2.1-.56A1.54,1.54,0,0,1,55.11,130.54Z"/><path class="cls-2" d="M79.29,144.5a1.54,1.54,0,0,0,2.1-.56,1.54,1.54,0,1,0-2.67-1.54A1.54,1.54,0,0,0,79.29,144.5Z"/><path class="cls-2" d="M104.24,129a.19.19,0,0,1,.17.1.2.2,0,0,1-.07.28l-24.18,14a.2.2,0,0,1-.28-.07A.21.21,0,0,1,80,143l24.18-14A.23.23,0,0,1,104.24,129Z"/><path class="cls-2" d="M80.83,144.5a1.54,1.54,0,1,1,.56-2.1A1.55,1.55,0,0,1,80.83,144.5Z"/><path class="cls-2" d="M105,130.54a1.54,1.54,0,1,0-2.11-.56A1.55,1.55,0,0,0,105,130.54Z"/><path class="cls-2" d="M104.24,101.08a.21.21,0,0,1,.2.21v27.92a.2.2,0,0,1-.2.2.2.2,0,0,1-.21-.2V101.29A.21.21,0,0,1,104.24,101.08Z"/><path class="cls-2" d="M105.78,129.21a1.54,1.54,0,1,1-1.54-1.54A1.54,1.54,0,0,1,105.78,129.21Z"/><path class="cls-2" d="M105.77,101.29a1.54,1.54,0,1,0-1.53,1.54A1.53,1.53,0,0,0,105.77,101.29Z"/><path class="cls-2" d="M80.06,87.12a.19.19,0,0,1,.1,0l24.17,14a.21.21,0,0,1-.2.36L80,87.51a.21.21,0,0,1,.11-.39Z"/><path class="cls-2" d="M105,100a1.54,1.54,0,1,1-2.1.56A1.53,1.53,0,0,1,105,100Z"/><path class="cls-2" d="M80.83,86a1.54,1.54,0,1,0,.56,2.1A1.54,1.54,0,0,0,80.83,86Z"/><path class="cls-2" d="M80.06,87.12a.18.18,0,0,1,.17.11.2.2,0,0,1-.07.28L56,101.47a.21.21,0,0,1-.28-.08.21.21,0,0,1,.07-.28L80,87.15A.23.23,0,0,1,80.06,87.12Z"/><path class="cls-2" d="M79.29,86a1.54,1.54,0,0,1,1.54,2.66A1.54,1.54,0,1,1,79.29,86Z"/><path class="cls-2" d="M55.11,100a1.54,1.54,0,1,0,2.1.57A1.55,1.55,0,0,0,55.11,100Z"/><path class="cls-2" d="M104.23,101.08a.22.22,0,0,1,.21.21v27.92a.21.21,0,0,1-.21.2.2.2,0,0,1-.2-.2V101.29A.21.21,0,0,1,104.23,101.08Z"/><path class="cls-2" d="M105.77,129.21a1.54,1.54,0,1,1-1.54-1.54A1.54,1.54,0,0,1,105.77,129.21Z"/><path class="cls-2" d="M105.77,101.29a1.54,1.54,0,1,0-1.54,1.54A1.54,1.54,0,0,0,105.77,101.29Z"/><path class="cls-2" d="M31.7,170.88a.22.22,0,0,1,.18.1.21.21,0,0,1-.07.28l-24.18,14a.2.2,0,0,1-.28-.07.2.2,0,0,1,.07-.28l24.18-14A.19.19,0,0,1,31.7,170.88Z"/><path class="cls-2" d="M8.29,186.38a1.54,1.54,0,1,1,.57-2.1A1.55,1.55,0,0,1,8.29,186.38Z"/><path class="cls-2" d="M32.47,172.42a1.54,1.54,0,1,0-2.1-.56A1.54,1.54,0,0,0,32.47,172.42Z"/><path class="cls-2" d="M31.7,143a.21.21,0,0,1,.21.21v27.92a.2.2,0,0,1-.21.2.2.2,0,0,1-.2-.2V143.17A.2.2,0,0,1,31.7,143Z"/><path class="cls-2" d="M33.24,171.09a1.54,1.54,0,1,1-1.54-1.54A1.54,1.54,0,0,1,33.24,171.09Z"/><path class="cls-2" d="M33.24,143.17a1.54,1.54,0,1,0-1.54,1.54A1.54,1.54,0,0,0,33.24,143.17Z"/><path class="cls-2" d="M7.52,129a.23.23,0,0,1,.11,0L31.8,143a.21.21,0,0,1,.08.28.2.2,0,0,1-.28.07l-24.18-14a.2.2,0,0,1-.07-.28A.19.19,0,0,1,7.52,129Z"/><path class="cls-2" d="M32.47,141.83a1.54,1.54,0,0,1-1.54,2.67,1.54,1.54,0,0,1,1.54-2.67Z"/><path class="cls-2" d="M8.29,127.87A1.54,1.54,0,1,0,8.86,130,1.54,1.54,0,0,0,8.29,127.87Z"/><path class="cls-2" d="M31.7,143a.2.2,0,0,1,.2.21v27.92a.2.2,0,0,1-.2.2.21.21,0,0,1-.21-.2V143.17A.21.21,0,0,1,31.7,143Z"/><path class="cls-2" d="M33.24,171.09a1.54,1.54,0,1,1-1.54-1.54A1.54,1.54,0,0,1,33.24,171.09Z"/><path class="cls-2" d="M33.24,143.17a1.54,1.54,0,1,0-1.54,1.54A1.54,1.54,0,0,0,33.24,143.17Z"/><path class="cls-2" d="M31.7,170.88a.19.19,0,0,1,.1,0l24.18,14a.2.2,0,0,1,.07.28.2.2,0,0,1-.28.07l-24.17-14a.2.2,0,0,1-.08-.28A.22.22,0,0,1,31.7,170.88Z"/><path class="cls-2" d="M30.93,172.42a1.54,1.54,0,0,1,1.54-2.67,1.54,1.54,0,0,1-1.54,2.67Z"/><path class="cls-2" d="M55.11,186.38a1.54,1.54,0,1,0-.57-2.1A1.55,1.55,0,0,0,55.11,186.38Z"/><path class="cls-2" d="M80.06,170.88a.19.19,0,0,1,.17.1.2.2,0,0,1-.07.28L56,185.22a.2.2,0,0,1-.28-.07.21.21,0,0,1,.07-.28l24.18-14A.23.23,0,0,1,80.06,170.88Z"/><path class="cls-2" d="M56.65,186.38a1.54,1.54,0,1,1-1.54-2.67,1.54,1.54,0,0,1,1.54,2.67Z"/><path class="cls-2" d="M80.83,172.42a1.54,1.54,0,1,0-2.11-.56A1.55,1.55,0,0,0,80.83,172.42Z"/><path class="cls-2" d="M80.06,143a.2.2,0,0,1,.2.21v27.92a.2.2,0,0,1-.2.2.2.2,0,0,1-.21-.2V143.17A.21.21,0,0,1,80.06,143Z"/><path class="cls-2" d="M81.6,171.09a1.54,1.54,0,1,1-1.54-1.54A1.54,1.54,0,0,1,81.6,171.09Z"/><path class="cls-2" d="M81.6,143.17a1.54,1.54,0,1,0-1.54,1.54A1.54,1.54,0,0,0,81.6,143.17Z"/><path class="cls-2" d="M55.88,129a.19.19,0,0,1,.1,0l24.17,14a.2.2,0,0,1,.08.28.2.2,0,0,1-.28.07l-24.18-14a.21.21,0,0,1-.07-.28A.22.22,0,0,1,55.88,129Z"/><path class="cls-2" d="M80.82,141.83a1.54,1.54,0,1,1-2.1.57A1.54,1.54,0,0,1,80.82,141.83Z"/><path class="cls-2" d="M56.65,127.87a1.54,1.54,0,1,0,.56,2.11A1.55,1.55,0,0,0,56.65,127.87Z"/><path class="cls-2" d="M55.88,129a.19.19,0,0,1,.17.1.2.2,0,0,1-.07.28l-24.18,14a.2.2,0,0,1-.28-.07.2.2,0,0,1,.08-.28l24.17-14A.23.23,0,0,1,55.88,129Z"/><path class="cls-2" d="M55.11,127.87a1.54,1.54,0,1,1-.57,2.11A1.54,1.54,0,0,1,55.11,127.87Z"/><path class="cls-2" d="M30.93,141.83a1.54,1.54,0,1,0,2.1.57A1.54,1.54,0,0,0,30.93,141.83Z"/><path class="cls-2" d="M80.05,143a.21.21,0,0,1,.21.21v27.92a.21.21,0,0,1-.21.2.2.2,0,0,1-.2-.2V143.17A.2.2,0,0,1,80.05,143Z"/><path class="cls-2" d="M81.59,171.09a1.54,1.54,0,1,1-1.54-1.54A1.54,1.54,0,0,1,81.59,171.09Z"/><path class="cls-2" d="M81.59,143.17a1.54,1.54,0,1,0-1.54,1.54A1.54,1.54,0,0,0,81.59,143.17Z"/><path class="cls-2" d="M80.05,170.88a.17.17,0,0,1,.1,0l24.18,14a.21.21,0,0,1,.08.28.2.2,0,0,1-.28.07L80,171.26a.21.21,0,0,1-.08-.28A.22.22,0,0,1,80.05,170.88Z"/><path class="cls-2" d="M79.28,172.42a1.54,1.54,0,1,1,2.1-.56A1.54,1.54,0,0,1,79.28,172.42Z"/><path class="cls-2" d="M103.46,186.38a1.54,1.54,0,1,0-.56-2.1A1.54,1.54,0,0,0,103.46,186.38Z"/><path class="cls-2" d="M104.23,129a.22.22,0,0,1,.18.1.21.21,0,0,1-.08.28l-24.18,14a.2.2,0,0,1-.28-.07A.21.21,0,0,1,80,143l24.18-14A.19.19,0,0,1,104.23,129Z"/><path class="cls-2" d="M103.46,127.87a1.54,1.54,0,1,1-.56,2.11A1.54,1.54,0,0,1,103.46,127.87Z"/><path class="cls-2" d="M79.28,141.83a1.54,1.54,0,0,0,1.54,2.67,1.54,1.54,0,0,0-1.54-2.67Z"/><path class="cls-2" d="M0,217.55l7.63-4.41a.21.21,0,0,0,.08-.28.22.22,0,0,0-.18-.1.17.17,0,0,0-.1,0L0,217.08Z"/><path class="cls-2" d="M8.3,214.3a1.54,1.54,0,1,0-2.1-.56A1.54,1.54,0,0,0,8.3,214.3Z"/><path class="cls-2" d="M7.53,184.84a.2.2,0,0,1,.2.21V213a.2.2,0,0,1-.2.2.21.21,0,0,1-.21-.2V185.05A.21.21,0,0,1,7.53,184.84Z"/><path class="cls-2" d="M9.07,213a1.54,1.54,0,1,1-1.54-1.54A1.54,1.54,0,0,1,9.07,213Z"/><path class="cls-2" d="M9.07,185.05a1.54,1.54,0,1,0-1.54,1.54A1.54,1.54,0,0,0,9.07,185.05Z"/><path class="cls-2" d="M7.52,184.84a.21.21,0,0,1,.21.21V213a.2.2,0,0,1-.21.2.2.2,0,0,1-.2-.2V185.05A.2.2,0,0,1,7.52,184.84Z"/><path class="cls-2" d="M9.06,213a1.54,1.54,0,1,1-1.54-1.54A1.54,1.54,0,0,1,9.06,213Z"/><path class="cls-2" d="M9.06,185.05a1.54,1.54,0,1,0-1.54,1.54A1.54,1.54,0,0,0,9.06,185.05Z"/><path class="cls-2" d="M7.52,212.76a.23.23,0,0,1,.11,0l24.18,14a.21.21,0,0,1,.07.28.2.2,0,0,1-.28.07l-24.18-14a.2.2,0,0,1-.07-.28A.19.19,0,0,1,7.52,212.76Z"/><path class="cls-2" d="M6.75,214.3a1.54,1.54,0,1,1,2.11-.56A1.55,1.55,0,0,1,6.75,214.3Z"/><path class="cls-2" d="M30.93,228.26a1.54,1.54,0,1,0-.56-2.1A1.56,1.56,0,0,0,30.93,228.26Z"/><path class="cls-2" d="M55.88,212.76a.22.22,0,0,1,.18.1.2.2,0,0,1-.08.28l-24.17,14a.2.2,0,0,1-.21-.35l24.18-14A.19.19,0,0,1,55.88,212.76Z"/><path class="cls-2" d="M32.47,228.26a1.54,1.54,0,1,1,.57-2.1A1.55,1.55,0,0,1,32.47,228.26Z"/><path class="cls-2" d="M56.65,214.3a1.54,1.54,0,1,0-2.1-.56A1.54,1.54,0,0,0,56.65,214.3Z"/><path class="cls-2" d="M55.88,184.84a.21.21,0,0,1,.21.21V213a.2.2,0,0,1-.21.2.2.2,0,0,1-.2-.2V185.05A.2.2,0,0,1,55.88,184.84Z"/><path class="cls-2" d="M57.42,213a1.54,1.54,0,1,1-1.54-1.54A1.54,1.54,0,0,1,57.42,213Z"/><path class="cls-2" d="M57.42,185.05a1.54,1.54,0,1,0-1.54,1.54A1.54,1.54,0,0,0,57.42,185.05Z"/><path class="cls-2" d="M31.7,170.88a.23.23,0,0,1,.11,0l24.17,14a.2.2,0,0,1,.07.28.2.2,0,0,1-.28.07l-24.17-14a.2.2,0,0,1-.07-.28A.19.19,0,0,1,31.7,170.88Z"/><path class="cls-2" d="M56.65,183.71a1.54,1.54,0,1,1-2.11.57A1.55,1.55,0,0,1,56.65,183.71Z"/><path class="cls-2" d="M32.47,169.75a1.54,1.54,0,1,0,.57,2.11A1.54,1.54,0,0,0,32.47,169.75Z"/><path class="cls-2" d="M31.7,170.88a.22.22,0,0,1,.18.1.21.21,0,0,1-.07.28l-24.18,14a.2.2,0,0,1-.28-.07.2.2,0,0,1,.07-.28l24.18-14A.19.19,0,0,1,31.7,170.88Z"/><path class="cls-2" d="M30.93,169.75a1.54,1.54,0,1,1-.56,2.11A1.55,1.55,0,0,1,30.93,169.75Z"/><path class="cls-2" d="M6.75,183.71a1.54,1.54,0,1,0,2.11.57A1.56,1.56,0,0,0,6.75,183.71Z"/><path class="cls-2" d="M55.88,184.84a.2.2,0,0,1,.2.21V213a.2.2,0,0,1-.2.2.2.2,0,0,1-.21-.2V185.05A.21.21,0,0,1,55.88,184.84Z"/><path class="cls-2" d="M57.42,213a1.54,1.54,0,1,1-1.54-1.54A1.54,1.54,0,0,1,57.42,213Z"/><path class="cls-2" d="M57.42,185.05a1.54,1.54,0,1,0-1.54,1.54A1.54,1.54,0,0,0,57.42,185.05Z"/><path class="cls-2" d="M55.88,212.76a.19.19,0,0,1,.1,0l24.18,14a.2.2,0,0,1-.21.35l-24.18-14a.21.21,0,0,1-.07-.28A.22.22,0,0,1,55.88,212.76Z"/><path class="cls-2" d="M55.11,214.3a1.54,1.54,0,1,1,2.1-.56A1.54,1.54,0,0,1,55.11,214.3Z"/><path class="cls-2" d="M79.29,228.26a1.54,1.54,0,1,0-.57-2.1A1.55,1.55,0,0,0,79.29,228.26Z"/><path class="cls-2" d="M104.24,212.76a.19.19,0,0,1,.17.1.2.2,0,0,1-.07.28l-24.18,14a.2.2,0,0,1-.28-.07.21.21,0,0,1,.07-.28l24.18-14A.23.23,0,0,1,104.24,212.76Z"/><path class="cls-2" d="M80.83,228.26a1.54,1.54,0,1,1,.56-2.1A1.56,1.56,0,0,1,80.83,228.26Z"/><path class="cls-2" d="M105,214.3a1.54,1.54,0,1,0-2.11-.56A1.55,1.55,0,0,0,105,214.3Z"/><path class="cls-2" d="M104.24,184.84a.2.2,0,0,1,.2.21V213a.2.2,0,0,1-.2.2.2.2,0,0,1-.21-.2V185.05A.21.21,0,0,1,104.24,184.84Z"/><path class="cls-2" d="M105.78,213a1.54,1.54,0,1,1-1.54-1.54A1.54,1.54,0,0,1,105.78,213Z"/><path class="cls-2" d="M105.77,185.05a1.54,1.54,0,1,0-1.53,1.54A1.53,1.53,0,0,0,105.77,185.05Z"/><path class="cls-2" d="M80.06,170.88a.19.19,0,0,1,.1,0l24.17,14a.21.21,0,0,1,.08.28.2.2,0,0,1-.28.07L80,171.26a.21.21,0,0,1-.07-.28A.22.22,0,0,1,80.06,170.88Z"/><path class="cls-2" d="M105,183.71a1.54,1.54,0,1,1-2.1.57A1.54,1.54,0,0,1,105,183.71Z"/><path class="cls-2" d="M80.83,169.75a1.54,1.54,0,1,0,.56,2.11A1.55,1.55,0,0,0,80.83,169.75Z"/><path class="cls-2" d="M80.06,170.88a.19.19,0,0,1,.17.1.2.2,0,0,1-.07.28L56,185.22a.2.2,0,0,1-.28-.07.21.21,0,0,1,.07-.28l24.18-14A.23.23,0,0,1,80.06,170.88Z"/><path class="cls-2" d="M79.29,169.75a1.54,1.54,0,1,1-.57,2.11A1.54,1.54,0,0,1,79.29,169.75Z"/><path class="cls-2" d="M55.11,183.71a1.54,1.54,0,1,0,2.1.57A1.55,1.55,0,0,0,55.11,183.71Z"/><path class="cls-2" d="M104.23,184.84a.21.21,0,0,1,.21.21V213a.21.21,0,0,1-.21.2.2.2,0,0,1-.2-.2V185.05A.2.2,0,0,1,104.23,184.84Z"/><path class="cls-2" d="M105.77,213a1.54,1.54,0,1,1-1.54-1.54A1.54,1.54,0,0,1,105.77,213Z"/><path class="cls-2" d="M105.77,185.05a1.54,1.54,0,1,0-1.54,1.54A1.54,1.54,0,0,0,105.77,185.05Z"/><path class="cls-2" d="M104.23,212.76a.17.17,0,0,1,.1,0l24.18,14a.21.21,0,0,1,.08.28.2.2,0,0,1-.28.07l-24.18-14a.21.21,0,0,1-.08-.28A.22.22,0,0,1,104.23,212.76Z"/><path class="cls-2" d="M103.46,214.3a1.54,1.54,0,1,1,2.1-.56A1.53,1.53,0,0,1,103.46,214.3Z"/><path class="cls-2" d="M127.64,228.26a1.54,1.54,0,1,0-.56-2.1A1.54,1.54,0,0,0,127.64,228.26Z"/><path class="cls-2" d="M7.52,212.76a.23.23,0,0,1,.11,0l24.17,14a.21.21,0,0,1,.08.28.2.2,0,0,1-.28.07l-24.18-14a.2.2,0,0,1-.07-.28A.19.19,0,0,1,7.52,212.76Z"/><path class="cls-2" d="M32.47,225.59a1.54,1.54,0,0,1-1.54,2.67,1.54,1.54,0,0,1,1.54-2.67Z"/><path class="cls-2" d="M8.29,211.63a1.54,1.54,0,1,0,.57,2.11A1.54,1.54,0,0,0,8.29,211.63Z"/><path class="cls-2" d="M0,217.55l7.63-4.41a.21.21,0,0,0,.07-.28.22.22,0,0,0-.18-.1.19.19,0,0,0-.1,0L0,217.07Z"/><path class="cls-2" d="M6.75,211.63a1.54,1.54,0,1,1-.56,2.11A1.55,1.55,0,0,1,6.75,211.63Z"/><path class="cls-2" d="M80.06,254.64a.19.19,0,0,1,.17.1.2.2,0,0,1-.07.28L56,269a.2.2,0,0,1-.28-.07.21.21,0,0,1,.07-.28l24.18-14A.23.23,0,0,1,80.06,254.64Z"/><path class="cls-2" d="M56.65,270.14a1.54,1.54,0,1,1,.56-2.1A1.55,1.55,0,0,1,56.65,270.14Z"/><path class="cls-2" d="M80.83,256.18a1.54,1.54,0,1,0-2.11-.56A1.55,1.55,0,0,0,80.83,256.18Z"/><path class="cls-2" d="M80.06,226.72a.2.2,0,0,1,.2.21v27.92a.2.2,0,0,1-.2.2.2.2,0,0,1-.21-.2V226.93A.21.21,0,0,1,80.06,226.72Z"/><path class="cls-2" d="M81.6,254.85a1.54,1.54,0,1,1-1.54-1.54A1.53,1.53,0,0,1,81.6,254.85Z"/><circle class="cls-2" cx="80.06" cy="226.93" r="1.54"/><path class="cls-2" d="M55.88,212.76a.19.19,0,0,1,.1,0l24.17,14a.2.2,0,1,1-.2.35l-24.18-14a.21.21,0,0,1-.07-.28A.22.22,0,0,1,55.88,212.76Z"/><path class="cls-2" d="M80.82,225.59a1.54,1.54,0,1,1-2.1.57A1.54,1.54,0,0,1,80.82,225.59Z"/><path class="cls-2" d="M56.65,211.63a1.54,1.54,0,1,0,.56,2.11A1.55,1.55,0,0,0,56.65,211.63Z"/><path class="cls-2" d="M55.88,212.76a.19.19,0,0,1,.17.1.2.2,0,0,1-.07.28l-24.18,14a.2.2,0,1,1-.2-.35l24.17-14A.23.23,0,0,1,55.88,212.76Z"/><path class="cls-2" d="M55.11,211.63a1.54,1.54,0,0,1,1.54,2.67,1.54,1.54,0,1,1-1.54-2.67Z"/><path class="cls-2" d="M30.93,225.59a1.54,1.54,0,1,0,2.1.57A1.54,1.54,0,0,0,30.93,225.59Z"/><path class="cls-2" d="M80.05,226.72a.21.21,0,0,1,.21.21v27.92a.21.21,0,0,1-.21.2.2.2,0,0,1-.2-.2V226.93A.2.2,0,0,1,80.05,226.72Z"/><path class="cls-2" d="M81.59,254.85a1.54,1.54,0,1,1-1.54-1.54A1.53,1.53,0,0,1,81.59,254.85Z"/><path class="cls-2" d="M81.59,226.93a1.54,1.54,0,1,0-1.54,1.54A1.54,1.54,0,0,0,81.59,226.93Z"/><path class="cls-2" d="M80.05,254.64a.17.17,0,0,1,.1,0l24.18,14a.21.21,0,0,1,.08.28.2.2,0,0,1-.28.07L80,255a.21.21,0,0,1-.08-.28A.22.22,0,0,1,80.05,254.64Z"/><path class="cls-2" d="M79.28,256.18a1.54,1.54,0,1,1,2.1-.56A1.54,1.54,0,0,1,79.28,256.18Z"/><path class="cls-2" d="M103.46,270.14a1.54,1.54,0,1,0-.56-2.1A1.54,1.54,0,0,0,103.46,270.14Z"/><path class="cls-2" d="M128.41,254.64a.22.22,0,0,1,.18.1.21.21,0,0,1-.08.28l-24.18,14a.2.2,0,0,1-.28-.07.21.21,0,0,1,.08-.28l24.18-14A.17.17,0,0,1,128.41,254.64Z"/><path class="cls-2" d="M105,270.14a1.54,1.54,0,1,1,.56-2.1A1.54,1.54,0,0,1,105,270.14Z"/><path class="cls-2" d="M129.18,256.18a1.54,1.54,0,1,0-2.1-.56A1.53,1.53,0,0,0,129.18,256.18Z"/><path class="cls-2" d="M128.41,226.72a.2.2,0,0,1,.2.21v27.92a.2.2,0,0,1-.2.2.21.21,0,0,1-.21-.2V226.93A.21.21,0,0,1,128.41,226.72Z"/><path class="cls-2" d="M130,254.85a1.54,1.54,0,1,1-1.54-1.54A1.53,1.53,0,0,1,130,254.85Z"/><path class="cls-2" d="M130,226.93a1.54,1.54,0,1,0-1.54,1.54A1.54,1.54,0,0,0,130,226.93Z"/><path class="cls-2" d="M104.23,212.76a.17.17,0,0,1,.1,0l24.18,14a.2.2,0,1,1-.21.35l-24.17-14a.21.21,0,0,1-.08-.28A.22.22,0,0,1,104.23,212.76Z"/><path class="cls-2" d="M129.17,225.59a1.54,1.54,0,1,1-2.1.57A1.55,1.55,0,0,1,129.17,225.59Z"/><circle class="cls-2" cx="104.23" cy="212.97" r="1.54" transform="translate(-110.12 314.32) rotate(-89.23)"/><path class="cls-2" d="M104.23,212.76a.22.22,0,0,1,.18.1.21.21,0,0,1-.08.28l-24.18,14a.2.2,0,0,1-.28-.07.21.21,0,0,1,.08-.28l24.18-14A.19.19,0,0,1,104.23,212.76Z"/><path class="cls-2" d="M103.46,211.63a1.54,1.54,0,1,1-.56,2.11A1.54,1.54,0,0,1,103.46,211.63Z"/><path class="cls-2" d="M79.28,225.59a1.54,1.54,0,0,0,1.54,2.67,1.54,1.54,0,0,0-1.54-2.67Z"/><path class="cls-2" d="M128.4,226.72a.21.21,0,0,1,.21.21v27.92a.2.2,0,0,1-.21.2.2.2,0,0,1-.2-.2V226.93A.2.2,0,0,1,128.4,226.72Z"/><path class="cls-2" d="M129.94,254.85a1.54,1.54,0,1,1-1.54-1.54A1.53,1.53,0,0,1,129.94,254.85Z"/><path class="cls-2" d="M129.94,226.93a1.54,1.54,0,1,0-1.54,1.54A1.54,1.54,0,0,0,129.94,226.93Z"/><path class="cls-2" d="M128.4,254.64a.23.23,0,0,1,.11,0l24.18,14a.21.21,0,0,1,.07.28.2.2,0,0,1-.28.07L128.3,255a.2.2,0,0,1-.07-.28A.21.21,0,0,1,128.4,254.64Z"/><path class="cls-2" d="M127.64,256.18a1.54,1.54,0,1,1,2.1-.56A1.54,1.54,0,0,1,127.64,256.18Z"/><path class="cls-2" d="M151.81,270.14a1.54,1.54,0,1,0-.56-2.1A1.55,1.55,0,0,0,151.81,270.14Z"/><path class="cls-2" d="M176.76,254.64a.22.22,0,0,1,.18.1.21.21,0,0,1-.07.28l-24.18,14a.2.2,0,1,1-.21-.35l24.18-14A.19.19,0,0,1,176.76,254.64Z"/><path class="cls-2" d="M153.35,270.14a1.54,1.54,0,1,1,.57-2.1A1.54,1.54,0,0,1,153.35,270.14Z"/><path class="cls-2" d="M177.53,256.18a1.54,1.54,0,1,0-2.1-.56A1.54,1.54,0,0,0,177.53,256.18Z"/><path class="cls-2" d="M176.76,226.72a.21.21,0,0,1,.21.21v27.92a.2.2,0,0,1-.21.2.2.2,0,0,1-.2-.2V226.93A.2.2,0,0,1,176.76,226.72Z"/><path class="cls-2" d="M178.3,254.85a1.54,1.54,0,1,1-1.54-1.54A1.53,1.53,0,0,1,178.3,254.85Z"/><path class="cls-2" d="M178.3,226.93a1.54,1.54,0,1,0-1.54,1.54A1.54,1.54,0,0,0,178.3,226.93Z"/><path class="cls-2" d="M176.76,226.72a.2.2,0,0,1,.2.21v27.92a.2.2,0,0,1-.2.2.2.2,0,0,1-.21-.2V226.93A.21.21,0,0,1,176.76,226.72Z"/><path class="cls-2" d="M178.3,254.85a1.54,1.54,0,1,1-1.54-1.54A1.53,1.53,0,0,1,178.3,254.85Z"/><path class="cls-2" d="M178.3,226.93a1.54,1.54,0,1,0-1.54,1.54A1.54,1.54,0,0,0,178.3,226.93Z"/><path class="cls-2" d="M176.76,254.64a.19.19,0,0,1,.1,0l24.18,14a.2.2,0,0,1-.21.35l-24.17-14a.2.2,0,0,1-.08-.28A.22.22,0,0,1,176.76,254.64Z"/><path class="cls-2" d="M176,256.18a1.54,1.54,0,1,1,2.1-.56A1.54,1.54,0,0,1,176,256.18Z"/><path class="cls-2" d="M200.17,270.14a1.54,1.54,0,1,0-.57-2.1A1.54,1.54,0,0,0,200.17,270.14Z"/><path class="cls-2" d="M104.24,268.6a.2.2,0,0,1,.2.21v27.91a.2.2,0,0,1-.2.21.21.21,0,0,1-.21-.21V268.81A.21.21,0,0,1,104.24,268.6Z"/><path class="cls-2" d="M105.78,296.72a1.54,1.54,0,1,1-1.54-1.53A1.54,1.54,0,0,1,105.78,296.72Z"/><path class="cls-2" d="M105.77,268.81a1.54,1.54,0,1,0-1.53,1.53A1.53,1.53,0,0,0,105.77,268.81Z"/><path class="cls-2" d="M80.06,254.64a.19.19,0,0,1,.1,0l24.17,14a.21.21,0,0,1,.08.28.2.2,0,0,1-.28.07L80,255a.21.21,0,0,1-.07-.28A.22.22,0,0,1,80.06,254.64Z"/><path class="cls-2" d="M105,267.47a1.54,1.54,0,1,1-2.1.57A1.53,1.53,0,0,1,105,267.47Z"/><path class="cls-2" d="M80.83,253.51a1.54,1.54,0,1,0,.56,2.11A1.55,1.55,0,0,0,80.83,253.51Z"/><path class="cls-2" d="M80.06,254.64a.19.19,0,0,1,.17.1.2.2,0,0,1-.07.28L56,269a.2.2,0,0,1-.28-.07.21.21,0,0,1,.07-.28l24.18-14A.23.23,0,0,1,80.06,254.64Z"/><path class="cls-2" d="M79.29,253.51a1.54,1.54,0,1,1-.57,2.11A1.54,1.54,0,0,1,79.29,253.51Z"/><path class="cls-2" d="M55.11,267.47a1.54,1.54,0,1,0,2.1.57A1.54,1.54,0,0,0,55.11,267.47Z"/><path class="cls-2" d="M104.23,268.6a.21.21,0,0,1,.21.21v27.91a.21.21,0,0,1-.21.21.2.2,0,0,1-.2-.21V268.81A.2.2,0,0,1,104.23,268.6Z"/><path class="cls-2" d="M105.77,296.72a1.54,1.54,0,1,1-1.54-1.53A1.54,1.54,0,0,1,105.77,296.72Z"/><path class="cls-2" d="M105.77,268.81a1.54,1.54,0,1,0-1.54,1.53A1.54,1.54,0,0,0,105.77,268.81Z"/><path class="cls-2" d="M104.23,296.52a.17.17,0,0,1,.1,0l24.18,14a.2.2,0,1,1-.2.35l-24.18-14a.21.21,0,0,1-.08-.28A.22.22,0,0,1,104.23,296.52Z"/><path class="cls-2" d="M103.46,298.06a1.54,1.54,0,1,1,2.1-.57A1.54,1.54,0,0,1,103.46,298.06Z"/><path class="cls-2" d="M127.64,312a1.54,1.54,0,1,0-.56-2.11A1.54,1.54,0,0,0,127.64,312Z"/><path class="cls-2" d="M152.59,296.52a.22.22,0,0,1,.18.1.21.21,0,0,1-.08.28l-24.18,14a.2.2,0,1,1-.2-.35l24.18-14A.17.17,0,0,1,152.59,296.52Z"/><path class="cls-2" d="M129.18,312a1.54,1.54,0,1,1,.56-2.11A1.54,1.54,0,0,1,129.18,312Z"/><path class="cls-2" d="M153.36,298.06a1.54,1.54,0,0,0-1.54-2.67,1.54,1.54,0,0,0,1.54,2.67Z"/><path class="cls-2" d="M152.59,268.6a.2.2,0,0,1,.2.21v27.91a.2.2,0,0,1-.2.21.21.21,0,0,1-.21-.21V268.81A.21.21,0,0,1,152.59,268.6Z"/><path class="cls-2" d="M154.13,296.72a1.54,1.54,0,1,1-1.54-1.53A1.54,1.54,0,0,1,154.13,296.72Z"/><path class="cls-2" d="M154.13,268.81a1.54,1.54,0,1,0-1.54,1.53A1.54,1.54,0,0,0,154.13,268.81Z"/><path class="cls-2" d="M128.41,254.64a.19.19,0,0,1,.1,0l24.18,14a.21.21,0,0,1,.07.28.2.2,0,0,1-.28.07l-24.17-14a.21.21,0,0,1-.08-.28A.22.22,0,0,1,128.41,254.64Z"/><path class="cls-2" d="M153.35,267.47a1.54,1.54,0,1,1-2.1.57A1.54,1.54,0,0,1,153.35,267.47Z"/><path class="cls-2" d="M129.18,253.51a1.54,1.54,0,1,0,.56,2.11A1.54,1.54,0,0,0,129.18,253.51Z"/><path class="cls-2" d="M128.41,254.64a.22.22,0,0,1,.18.1.21.21,0,0,1-.08.28l-24.18,14a.2.2,0,0,1-.28-.07.21.21,0,0,1,.08-.28l24.18-14A.17.17,0,0,1,128.41,254.64Z"/><path class="cls-2" d="M127.64,253.51a1.54,1.54,0,1,1-.56,2.11A1.54,1.54,0,0,1,127.64,253.51Z"/><path class="cls-2" d="M103.46,267.47a1.54,1.54,0,1,0,2.1.57A1.53,1.53,0,0,0,103.46,267.47Z"/><path class="cls-2" d="M152.58,268.6a.21.21,0,0,1,.21.21v27.91a.21.21,0,0,1-.21.21.2.2,0,0,1-.2-.21V268.81A.2.2,0,0,1,152.58,268.6Z"/><path class="cls-2" d="M154.12,296.72a1.54,1.54,0,1,1-1.54-1.53A1.54,1.54,0,0,1,154.12,296.72Z"/><path class="cls-2" d="M154.12,268.81a1.54,1.54,0,1,0-1.54,1.53A1.54,1.54,0,0,0,154.12,268.81Z"/><path class="cls-2" d="M152.58,296.52a.23.23,0,0,1,.11,0l24.18,14a.21.21,0,0,1,.07.28.21.21,0,0,1-.28.07l-24.18-14a.2.2,0,0,1-.07-.28A.19.19,0,0,1,152.58,296.52Z"/><path class="cls-2" d="M151.81,298.06a1.54,1.54,0,1,1,2.11-.57A1.56,1.56,0,0,1,151.81,298.06Z"/><path class="cls-2" d="M176,312a1.54,1.54,0,1,0-.56-2.11A1.55,1.55,0,0,0,176,312Z"/><path class="cls-2" d="M200.94,296.52a.22.22,0,0,1,.18.1.21.21,0,0,1-.07.28l-24.18,14a.21.21,0,0,1-.28-.07.2.2,0,0,1,.07-.28l24.18-14A.19.19,0,0,1,200.94,296.52Z"/><path class="cls-2" d="M177.53,312a1.54,1.54,0,1,1,.57-2.11A1.54,1.54,0,0,1,177.53,312Z"/><path class="cls-2" d="M201.71,298.06a1.54,1.54,0,1,0-2.1-.57A1.55,1.55,0,0,0,201.71,298.06Z"/><path class="cls-2" d="M200.94,268.6a.21.21,0,0,1,.21.21v27.91a.21.21,0,0,1-.21.21.2.2,0,0,1-.2-.21V268.81A.2.2,0,0,1,200.94,268.6Z"/><path class="cls-2" d="M202.48,296.72a1.54,1.54,0,1,1-1.54-1.53A1.54,1.54,0,0,1,202.48,296.72Z"/><path class="cls-2" d="M202.48,268.81a1.54,1.54,0,1,0-1.54,1.53A1.54,1.54,0,0,0,202.48,268.81Z"/><path class="cls-2" d="M176.76,254.64a.23.23,0,0,1,.11,0l24.17,14a.2.2,0,0,1-.21.35l-24.17-14a.2.2,0,0,1-.07-.28A.19.19,0,0,1,176.76,254.64Z"/><path class="cls-2" d="M201.71,267.47a1.54,1.54,0,1,1-2.11.57A1.54,1.54,0,0,1,201.71,267.47Z"/><path class="cls-2" d="M177.53,253.51a1.54,1.54,0,1,0,.57,2.11A1.54,1.54,0,0,0,177.53,253.51Z"/><path class="cls-2" d="M176.76,254.64a.22.22,0,0,1,.18.1.21.21,0,0,1-.07.28l-24.18,14a.2.2,0,1,1-.21-.35l24.18-14A.19.19,0,0,1,176.76,254.64Z"/><path class="cls-2" d="M176,253.51a1.54,1.54,0,1,1-.56,2.11A1.55,1.55,0,0,1,176,253.51Z"/><path class="cls-2" d="M151.81,267.47a1.54,1.54,0,1,0,2.11.57A1.55,1.55,0,0,0,151.81,267.47Z"/><path class="cls-2" d="M200.94,268.6a.2.2,0,0,1,.2.21v27.91a.2.2,0,0,1-.2.21.21.21,0,0,1-.21-.21V268.81A.21.21,0,0,1,200.94,268.6Z"/><path class="cls-2" d="M202.48,296.72a1.54,1.54,0,1,1-1.54-1.53A1.54,1.54,0,0,1,202.48,296.72Z"/><path class="cls-2" d="M202.48,268.81a1.54,1.54,0,1,0-1.54,1.53A1.54,1.54,0,0,0,202.48,268.81Z"/><path class="cls-2" d="M200.94,296.52a.19.19,0,0,1,.1,0l24.18,14a.2.2,0,0,1,.07.28.21.21,0,0,1-.28.07l-24.18-14a.21.21,0,0,1-.07-.28A.22.22,0,0,1,200.94,296.52Z"/><path class="cls-2" d="M200.17,298.06a1.54,1.54,0,1,1,2.1-.57A1.55,1.55,0,0,1,200.17,298.06Z"/><path class="cls-2" d="M224.35,312a1.54,1.54,0,1,0-.57-2.11A1.54,1.54,0,0,0,224.35,312Z"/><path class="cls-2" d="M249.3,296.52a.19.19,0,0,1,.17.1.2.2,0,0,1-.07.28l-24.18,14a.21.21,0,0,1-.28-.07.21.21,0,0,1,.07-.28l24.18-14A.23.23,0,0,1,249.3,296.52Z"/><path class="cls-2" d="M225.89,312a1.54,1.54,0,1,1,.56-2.11A1.55,1.55,0,0,1,225.89,312Z"/><path class="cls-2" d="M250.07,298.06a1.54,1.54,0,1,0-2.11-.57A1.56,1.56,0,0,0,250.07,298.06Z"/><path class="cls-2" d="M128.61,325.7v-15a.2.2,0,0,0-.2-.2.21.21,0,0,0-.21.2v15Z"/><path class="cls-2" d="M130,310.68a1.54,1.54,0,1,0-1.54,1.54A1.53,1.53,0,0,0,130,310.68Z"/><path class="cls-2" d="M104.23,296.52a.17.17,0,0,1,.1,0l24.18,14a.2.2,0,0,1,.07.28.21.21,0,0,1-.28.07l-24.17-14a.21.21,0,0,1-.08-.28A.22.22,0,0,1,104.23,296.52Z"/><path class="cls-2" d="M129.17,309.35a1.54,1.54,0,1,1-2.1.56A1.54,1.54,0,0,1,129.17,309.35Z"/><path class="cls-2" d="M105,295.39a1.54,1.54,0,1,0,.56,2.1A1.54,1.54,0,0,0,105,295.39Z"/><path class="cls-2" d="M128.61,325.7v-15a.2.2,0,0,0-.21-.2.2.2,0,0,0-.2.2v15Z"/><path class="cls-2" d="M129.94,310.68a1.54,1.54,0,1,0-1.54,1.54A1.53,1.53,0,0,0,129.94,310.68Z"/><path class="cls-2" d="M177,325.7v-15a.2.2,0,0,0-.21-.2.2.2,0,0,0-.2.2v15Z"/><path class="cls-2" d="M178.3,310.68a1.54,1.54,0,1,0-1.54,1.54A1.53,1.53,0,0,0,178.3,310.68Z"/><path class="cls-2" d="M152.58,296.52a.23.23,0,0,1,.11,0l24.17,14a.2.2,0,1,1-.2.35l-24.18-14a.2.2,0,0,1-.07-.28A.19.19,0,0,1,152.58,296.52Z"/><path class="cls-2" d="M177.53,309.35a1.54,1.54,0,1,1-2.1.56A1.54,1.54,0,0,1,177.53,309.35Z"/><path class="cls-2" d="M153.35,295.39a1.54,1.54,0,1,0,.57,2.1A1.55,1.55,0,0,0,153.35,295.39Z"/><path class="cls-2" d="M152.58,296.52a.22.22,0,0,1,.18.1.21.21,0,0,1-.07.28l-24.18,14a.21.21,0,0,1-.28-.07.2.2,0,0,1,.07-.28l24.18-14A.19.19,0,0,1,152.58,296.52Z"/><path class="cls-2" d="M151.81,295.39a1.54,1.54,0,1,1-.56,2.1A1.56,1.56,0,0,1,151.81,295.39Z"/><path class="cls-2" d="M127.64,309.35a1.54,1.54,0,1,0,2.1.56A1.54,1.54,0,0,0,127.64,309.35Z"/><path class="cls-2" d="M177,325.7v-15a.2.2,0,0,0-.2-.2.2.2,0,0,0-.21.2v15Z"/><path class="cls-2" d="M178.3,310.68a1.54,1.54,0,1,0-1.54,1.54A1.53,1.53,0,0,0,178.3,310.68Z"/><path class="cls-2" d="M225.32,325.7v-15a.2.2,0,0,0-.2-.2.2.2,0,0,0-.21.2v15Z"/><path class="cls-2" d="M226.66,310.68a1.54,1.54,0,1,0-1.54,1.54A1.53,1.53,0,0,0,226.66,310.68Z"/><path class="cls-2" d="M200.94,296.52a.19.19,0,0,1,.1,0l24.17,14a.2.2,0,1,1-.2.35l-24.18-14a.21.21,0,0,1-.07-.28A.22.22,0,0,1,200.94,296.52Z"/><path class="cls-2" d="M225.88,309.35a1.54,1.54,0,0,1-1.54,2.67,1.54,1.54,0,0,1,1.54-2.67Z"/><path class="cls-2" d="M201.71,295.39a1.54,1.54,0,1,0-1.54,2.67,1.54,1.54,0,0,0,1.54-2.67Z"/><path class="cls-2" d="M200.94,296.52a.19.19,0,0,1,.17.1.2.2,0,0,1-.07.28l-24.18,14a.21.21,0,0,1-.28-.07.2.2,0,0,1,.08-.28l24.17-14A.23.23,0,0,1,200.94,296.52Z"/><path class="cls-2" d="M200.17,295.39a1.54,1.54,0,1,1-.57,2.1A1.55,1.55,0,0,1,200.17,295.39Z"/><path class="cls-2" d="M176,309.35a1.54,1.54,0,1,0,2.1.56A1.54,1.54,0,0,0,176,309.35Z"/><path class="cls-2" d="M225.32,325.7v-15a.21.21,0,0,0-.21-.2.2.2,0,0,0-.2.2v15Z"/><path class="cls-2" d="M226.65,310.68a1.54,1.54,0,1,0-1.54,1.54A1.53,1.53,0,0,0,226.65,310.68Z"/><path class="cls-2" d="M249.29,296.52a.22.22,0,0,1,.18.1.21.21,0,0,1-.08.28l-24.18,14a.2.2,0,1,1-.2-.35l24.18-14A.19.19,0,0,1,249.29,296.52Z"/><path class="cls-2" d="M248.52,295.39a1.54,1.54,0,1,1-.56,2.1A1.54,1.54,0,0,1,248.52,295.39Z"/><path class="cls-2" d="M224.34,309.35a1.54,1.54,0,1,0,2.1.56A1.54,1.54,0,0,0,224.34,309.35Z"/></g></g></g></svg>