<svg id="Layer_1" data-name="Layer 1" xmlns="http://www.w3.org/2000/svg" xmlns:xlink="http://www.w3.org/1999/xlink" viewBox="0 0 272.6 288"><defs><style>.cls-1{fill:none;}.cls-2{clip-path:url(#clip-path);}.cls-3{opacity:0.3;}.cls-4{fill:#002e51;}.cls-5{fill:#ebebeb;}.cls-6{fill:#00caf9;}.cls-7{fill:#17dbff;}.cls-8{fill:#3d2e8c;}.cls-9{fill:#ededed;}</style><clipPath id="clip-path"><rect class="cls-1" width="272.6" height="288"/></clipPath></defs><g class="cls-2"><g class="cls-3"><polygon class="cls-4" points="304.51 -122.75 257.62 -122.75 196 16.37 242.88 16.37 304.51 -122.75"/><polygon class="cls-4" points="275.03 153.59 268.05 153.59 258.88 174.31 265.86 174.31 275.03 153.59"/><polygon class="cls-5" points="271.93 110.43 139.05 110.43 48.83 314.12 181.7 314.12 271.93 110.43"/><polygon class="cls-4" points="308.67 363.13 239.45 363.13 148.47 157.73 217.69 157.73 308.67 363.13"/><polygon class="cls-4" points="129.77 223.41 89.82 223.41 37.3 104.85 77.26 104.85 129.77 223.41"/><polygon class="cls-6" points="214.56 11.01 140.45 11.01 90.13 -102.6 164.24 -102.6 214.56 11.01"/><polygon class="cls-5" points="74.99 223.22 64.63 223.22 54.13 199.52 64.49 199.52 74.99 223.22"/><polygon class="cls-5" points="264.43 -0.15 263.23 2.55 293.69 2.55 294.89 -0.15 264.43 -0.15"/><polygon class="cls-5" points="261.93 5.49 260.73 8.2 291.19 8.2 292.39 5.49 261.93 5.49"/><polygon class="cls-5" points="259.43 11.14 258.23 13.85 288.69 13.85 289.89 11.14 259.43 11.14"/><polygon class="cls-5" points="256.92 16.79 255.73 19.49 286.19 19.49 287.38 16.79 256.92 16.79"/><polygon class="cls-5" points="254.42 22.43 253.22 25.14 283.69 25.14 284.88 22.43 254.42 22.43"/><polygon class="cls-5" points="251.92 28.08 250.72 30.79 281.18 30.79 282.38 28.08 251.92 28.08"/><polygon class="cls-5" points="249.42 33.73 248.22 36.43 278.68 36.43 279.88 33.73 249.42 33.73"/><polygon class="cls-5" points="246.92 39.37 245.72 42.08 276.18 42.08 277.38 39.37 246.92 39.37"/><polygon class="cls-5" points="244.42 45.02 243.22 47.73 273.68 47.73 274.88 45.02 244.42 45.02"/><polygon class="cls-5" points="241.92 50.66 240.72 53.37 271.18 53.37 272.38 50.66 241.92 50.66"/><polygon class="cls-5" points="218.06 249.26 215.78 254.41 273.69 254.41 275.97 249.26 218.06 249.26"/><polygon class="cls-5" points="213.3 259.99 211.03 265.14 268.94 265.14 271.21 259.99 213.3 259.99"/><polygon class="cls-5" points="208.54 270.74 206.27 275.88 264.18 275.88 266.46 270.74 208.54 270.74"/><polygon class="cls-5" points="203.79 281.47 201.51 286.61 259.42 286.61 261.7 281.47 203.79 281.47"/><polygon class="cls-4" points="231.6 109.44 230.68 107.36 254.13 107.36 255.05 109.44 231.6 109.44"/><polygon class="cls-4" points="229.68 105.1 228.75 103.01 252.2 103.01 253.12 105.1 229.68 105.1"/><polygon class="cls-4" points="227.75 100.75 226.83 98.66 250.28 98.66 251.2 100.75 227.75 100.75"/><polygon class="cls-4" points="225.83 96.4 224.9 94.32 248.35 94.32 249.27 96.4 225.83 96.4"/><polygon class="cls-4" points="223.9 92.06 222.98 89.97 246.43 89.97 247.35 92.06 223.9 92.06"/><polygon class="cls-4" points="221.98 87.71 221.05 85.63 244.5 85.63 245.42 87.71 221.98 87.71"/><polygon class="cls-4" points="220.05 83.36 219.13 81.28 242.57 81.28 243.5 83.36 220.05 83.36"/><polygon class="cls-4" points="218.13 79.02 217.2 76.94 240.65 76.94 241.57 79.02 218.13 79.02"/><polygon class="cls-4" points="216.2 74.67 215.28 72.59 238.72 72.59 239.65 74.67 216.2 74.67"/><polygon class="cls-4" points="214.28 70.32 213.35 68.24 236.8 68.24 237.72 70.32 214.28 70.32"/><polygon class="cls-4" points="212.35 65.98 211.43 63.9 234.87 63.9 235.8 65.98 212.35 65.98"/><polygon class="cls-4" points="210.43 61.63 209.5 59.55 232.95 59.55 233.87 61.63 210.43 61.63"/><polygon class="cls-4" points="208.5 57.28 207.58 55.2 231.02 55.2 231.95 57.28 208.5 57.28"/><polygon class="cls-4" points="164.94 141.57 162.31 135.64 229.03 135.64 231.66 141.57 164.94 141.57"/><polygon class="cls-4" points="159.46 129.2 156.83 123.28 223.56 123.28 226.18 129.2 159.46 129.2"/><polygon class="cls-4" points="153.98 116.83 151.35 110.9 218.07 110.9 220.7 116.83 153.98 116.83"/><polygon class="cls-4" points="148.5 104.46 145.87 98.54 212.6 98.54 215.22 104.46 148.5 104.46"/><polygon class="cls-4" points="143.02 92.1 140.4 86.17 207.12 86.17 209.74 92.1 143.02 92.1"/><polygon class="cls-4" points="137.54 79.72 134.91 73.8 201.64 73.8 204.26 79.72 137.54 79.72"/><polygon class="cls-4" points="132.06 67.36 129.44 61.43 196.16 61.43 198.78 67.36 132.06 67.36"/><polygon class="cls-4" points="126.59 54.99 123.96 49.06 190.68 49.06 193.31 54.99 126.59 54.99"/><polygon class="cls-4" points="121.1 42.62 118.48 36.69 185.2 36.69 187.83 42.62 121.1 42.62"/><polygon class="cls-4" points="115.63 30.25 113 24.32 179.72 24.32 182.35 30.25 115.63 30.25"/><polygon class="cls-4" points="110.15 17.89 107.52 11.96 174.25 11.96 176.87 17.89 110.15 17.89"/><polygon class="cls-4" points="104.67 5.51 102.04 -0.42 168.76 -0.42 171.39 5.51 104.67 5.51"/><polygon class="cls-6" points="273.65 227.98 272.51 225.41 301.38 225.41 302.52 227.98 273.65 227.98"/><polygon class="cls-7" points="271.28 222.63 270.14 220.06 299.01 220.06 300.15 222.63 271.28 222.63"/><polygon class="cls-7" points="268.91 217.28 267.77 214.71 296.64 214.71 297.78 217.28 268.91 217.28"/><polygon class="cls-7" points="266.54 211.92 265.4 209.35 294.27 209.35 295.41 211.92 266.54 211.92"/><polygon class="cls-7" points="264.17 206.57 263.03 204 291.9 204 293.04 206.57 264.17 206.57"/><polygon class="cls-7" points="261.8 201.22 260.66 198.65 289.53 198.65 290.67 201.22 261.8 201.22"/><polygon class="cls-7" points="259.42 195.86 258.29 193.3 287.16 193.3 288.3 195.86 259.42 195.86"/><polygon class="cls-7" points="257.05 190.51 255.92 187.95 284.79 187.95 285.93 190.51 257.05 190.51"/><polygon class="cls-5" points="95.79 39.93 95.53 39.34 102.22 39.34 102.48 39.93 95.79 39.93"/><polygon class="cls-5" points="95.24 38.69 94.98 38.1 101.67 38.1 101.93 38.69 95.24 38.69"/><polygon class="cls-5" points="94.69 37.45 94.43 36.86 101.12 36.86 101.38 37.45 94.69 37.45"/><polygon class="cls-5" points="94.14 36.21 93.88 35.62 100.57 35.62 100.83 36.21 94.14 36.21"/><polygon class="cls-5" points="93.59 34.97 93.33 34.38 100.02 34.38 100.28 34.97 93.59 34.97"/><polygon class="cls-5" points="93.04 33.73 92.78 33.14 99.47 33.14 99.73 33.73 93.04 33.73"/><polygon class="cls-5" points="92.49 32.49 92.23 31.9 98.92 31.9 99.18 32.49 92.49 32.49"/><polygon class="cls-5" points="91.94 31.25 91.68 30.66 98.37 30.66 98.64 31.25 91.94 31.25"/><polygon class="cls-5" points="91.39 30.01 91.13 29.42 97.82 29.42 98.08 30.01 91.39 30.01"/></g><polygon class="cls-8" points="69.66 308.63 104.47 308.63 150.22 205.34 115.41 205.34 69.66 308.63"/><polygon class="cls-8" points="91.54 103.47 96.73 103.47 103.54 88.09 98.35 88.09 91.54 103.47"/><polygon class="cls-5" points="49.42 212.42 65.69 212.42 76.74 187.48 60.47 187.48 49.42 212.42"/><polygon class="cls-5" points="93.85 135.51 192.5 135.51 259.48 -15.71 160.84 -15.71 93.85 135.51"/><polygon class="cls-7" points="77.77 160.59 82.76 160.59 87.81 149.19 82.82 149.19 77.77 160.59"/><polygon class="cls-8" points="66.57 -52.09 117.96 -52.09 185.51 100.4 134.12 100.4 66.57 -52.09"/><polygon class="cls-8" points="199.38 51.64 229.05 51.64 268.04 139.66 238.37 139.66 199.38 51.64"/><polygon class="cls-7" points="136.44 209.33 191.46 209.33 228.82 293.67 173.8 293.67 136.44 209.33"/><polygon class="cls-5" points="240.06 51.78 247.75 51.78 255.54 69.37 247.85 69.37 240.06 51.78"/><polygon class="cls-5" points="93.85 230.19 94.74 228.18 72.12 228.18 71.23 230.19 93.85 230.19"/><polygon class="cls-5" points="95.7 226 96.59 223.99 73.98 223.99 73.09 226 95.7 226"/><polygon class="cls-5" points="97.56 221.8 98.45 219.79 75.84 219.79 74.95 221.8 97.56 221.8"/><polygon class="cls-5" points="99.42 217.61 100.31 215.6 77.69 215.6 76.8 217.61 99.42 217.61"/><polygon class="cls-5" points="101.27 213.42 102.16 211.41 79.55 211.41 78.66 213.42 101.27 213.42"/><polygon class="cls-5" points="103.13 209.23 104.02 207.22 81.41 207.22 80.52 209.23 103.13 209.23"/><polygon class="cls-5" points="104.99 205.04 105.88 203.03 83.26 203.03 82.37 205.04 104.99 205.04"/><polygon class="cls-5" points="106.84 200.85 107.73 198.84 85.12 198.84 84.23 200.85 106.84 200.85"/><polygon class="cls-5" points="108.7 196.65 109.59 194.64 86.98 194.64 86.09 196.65 108.7 196.65"/><polygon class="cls-5" points="110.56 192.46 111.45 190.45 88.83 190.45 87.94 192.46 110.56 192.46"/><polygon class="cls-5" points="112.42 188.27 113.31 186.26 90.69 186.26 89.8 188.27 112.42 188.27"/><polygon class="cls-5" points="114.27 184.07 115.16 182.07 92.55 182.07 91.66 184.07 114.27 184.07"/><polygon class="cls-5" points="116.13 179.88 117.02 177.88 94.41 177.88 93.52 179.88 116.13 179.88"/><polygon class="cls-5" points="133.84 32.45 135.53 28.63 92.54 28.63 90.85 32.45 133.84 32.45"/><polygon class="cls-5" points="137.37 24.48 139.06 20.66 96.07 20.66 94.38 24.48 137.37 24.48"/><polygon class="cls-5" points="140.91 16.5 142.6 12.69 99.6 12.69 97.91 16.5 140.91 16.5"/><polygon class="cls-5" points="144.43 8.54 146.13 4.72 103.13 4.72 101.44 8.54 144.43 8.54"/><polygon class="cls-5" points="147.96 0.57 149.66 -3.25 106.66 -3.25 104.97 0.57 147.96 0.57"/><polygon class="cls-8" points="32.46 286.25 33.73 283.39 1.54 283.39 0.27 286.25 32.46 286.25"/><polygon class="cls-8" points="35.11 280.28 36.38 277.42 4.18 277.42 2.92 280.28 35.11 280.28"/><polygon class="cls-8" points="37.75 274.31 39.02 271.45 6.83 271.45 5.56 274.31 37.75 274.31"/><polygon class="cls-8" points="40.39 268.35 41.66 265.49 9.47 265.49 8.2 268.35 40.39 268.35"/><polygon class="cls-8" points="43.04 262.38 44.31 259.52 12.11 259.52 10.85 262.38 43.04 262.38"/><polygon class="cls-8" points="45.68 256.41 46.95 253.55 14.76 253.55 13.49 256.41 45.68 256.41"/><polygon class="cls-8" points="48.32 250.45 49.59 247.59 17.4 247.59 16.13 250.45 48.32 250.45"/><polygon class="cls-8" points="50.97 244.47 52.24 241.61 20.04 241.61 18.78 244.47 50.97 244.47"/><polygon class="cls-8" points="53.61 238.51 54.88 235.65 22.68 235.65 21.42 238.51 53.61 238.51"/><polygon class="cls-9" points="54.7 171.05 56.59 166.78 8.6 166.78 6.71 171.05 54.7 171.05"/><polygon class="cls-9" points="58.65 162.14 60.54 157.88 12.54 157.88 10.65 162.14 58.65 162.14"/><polygon class="cls-9" points="62.59 153.25 64.48 148.99 16.48 148.99 14.59 153.25 62.59 153.25"/><polygon class="cls-9" points="66.53 144.35 68.42 140.09 20.42 140.09 18.53 144.35 66.53 144.35"/><polygon class="cls-9" points="70.47 135.45 72.36 131.19 24.36 131.19 22.47 135.45 70.47 135.45"/><polygon class="cls-9" points="74.41 126.56 76.3 122.29 28.3 122.29 26.41 126.56 74.41 126.56"/><polygon class="cls-9" points="78.35 117.66 80.24 113.4 32.24 113.4 30.35 117.66 78.35 117.66"/><polygon class="cls-9" points="82.29 108.76 84.18 104.5 36.19 104.5 34.3 108.76 82.29 108.76"/><polygon class="cls-9" points="86.23 99.86 88.12 95.6 40.13 95.6 38.24 99.86 86.23 99.86"/><polygon class="cls-7" points="105.93 292.95 108.54 287.06 42.29 287.06 39.68 292.95 105.93 292.95"/><polygon class="cls-7" points="111.37 280.67 113.98 274.79 47.73 274.79 45.12 280.67 111.37 280.67"/><polygon class="cls-7" points="116.81 268.39 119.42 262.51 53.17 262.51 50.56 268.39 116.81 268.39"/><polygon class="cls-7" points="122.25 256.11 124.86 250.22 58.61 250.22 56 256.11 122.25 256.11"/><polygon class="cls-7" points="127.69 243.83 130.3 237.94 64.05 237.94 61.44 243.83 127.69 243.83"/><polygon class="cls-8" points="123.79 136.25 124.47 137.79 107.07 137.79 106.38 136.25 123.79 136.25"/><polygon class="cls-8" points="125.22 139.47 125.9 141.02 108.49 141.02 107.81 139.47 125.22 139.47"/><polygon class="cls-8" points="126.65 142.7 127.33 144.25 109.92 144.25 109.24 142.7 126.65 142.7"/><polygon class="cls-8" points="128.07 145.93 128.76 147.47 111.35 147.47 110.67 145.93 128.07 145.93"/><polygon class="cls-8" points="129.5 149.16 130.19 150.7 112.78 150.7 112.1 149.16 129.5 149.16"/><polygon class="cls-8" points="130.93 152.38 131.62 153.93 114.21 153.93 113.53 152.38 130.93 152.38"/><polygon class="cls-8" points="132.36 155.61 133.05 157.16 115.64 157.16 114.96 155.61 132.36 155.61"/><polygon class="cls-8" points="133.79 158.84 134.48 160.38 117.07 160.38 116.39 158.84 133.79 158.84"/><polygon class="cls-8" points="135.22 162.06 135.91 163.61 118.5 163.61 117.81 162.06 135.22 162.06"/><polygon class="cls-8" points="136.65 165.29 137.34 166.84 119.93 166.84 119.24 165.29 136.65 165.29"/><polygon class="cls-8" points="138.08 168.51 138.76 170.06 121.36 170.06 120.67 168.51 138.08 168.51"/><polygon class="cls-8" points="139.51 171.74 140.19 173.29 122.79 173.29 122.1 171.74 139.51 171.74"/><polygon class="cls-8" points="140.94 174.97 141.62 176.52 124.22 176.52 123.53 174.97 140.94 174.97"/><polygon class="cls-8" points="173.28 112.4 175.23 116.8 125.7 116.8 123.75 112.4 173.28 112.4"/><polygon class="cls-8" points="177.35 121.58 179.3 125.98 129.76 125.98 127.81 121.58 177.35 121.58"/><polygon class="cls-8" points="181.42 130.76 183.37 135.17 133.83 135.17 131.88 130.76 181.42 130.76"/><polygon class="cls-8" points="185.48 139.94 187.43 144.34 137.9 144.34 135.95 139.94 185.48 139.94"/><polygon class="cls-8" points="189.55 149.12 191.5 153.53 141.96 153.53 140.01 149.12 189.55 149.12"/><polygon class="cls-8" points="193.62 158.31 195.57 162.71 146.03 162.71 144.09 158.31 193.62 158.31"/><polygon class="cls-8" points="197.69 167.49 199.63 171.89 150.1 171.89 148.15 167.49 197.69 167.49"/><polygon class="cls-8" points="201.75 176.67 203.7 181.07 154.17 181.07 152.22 176.67 201.75 176.67"/><polygon class="cls-8" points="205.82 185.86 207.77 190.26 158.24 190.26 156.29 185.86 205.82 185.86"/><polygon class="cls-8" points="209.89 195.04 211.84 199.44 162.3 199.44 160.35 195.04 209.89 195.04"/><polygon class="cls-8" points="213.95 204.22 215.9 208.62 166.37 208.62 164.42 204.22 213.95 204.22"/><polygon class="cls-8" points="218.02 213.41 219.97 217.81 170.44 217.81 168.49 213.41 218.02 213.41"/><polygon class="cls-8" points="222.09 222.59 224.04 226.99 174.5 226.99 172.56 222.59 222.09 222.59"/><polygon class="cls-7" points="78.49 16.46 79.33 18.36 57.9 18.36 57.06 16.46 78.49 16.46"/><polygon class="cls-7" points="80.25 20.43 81.09 22.34 59.66 22.34 58.82 20.43 80.25 20.43"/><polygon class="cls-7" points="82.01 24.41 82.86 26.31 61.42 26.31 60.58 24.41 82.01 24.41"/><polygon class="cls-7" points="83.77 28.38 84.61 30.29 63.18 30.29 62.34 28.38 83.77 28.38"/><polygon class="cls-7" points="85.53 32.35 86.38 34.26 64.94 34.26 64.1 32.35 85.53 32.35"/><polygon class="cls-7" points="87.29 36.33 88.14 38.23 66.7 38.23 65.86 36.33 87.29 36.33"/><polygon class="cls-7" points="89.05 40.3 89.89 42.2 68.46 42.2 67.62 40.3 89.05 40.3"/><polygon class="cls-7" points="90.81 44.27 91.66 46.18 70.22 46.18 69.38 44.27 90.81 44.27"/><polygon class="cls-7" points="92.57 48.25 93.42 50.15 71.98 50.15 71.14 48.25 92.57 48.25"/><polygon class="cls-7" points="94.33 52.22 95.17 54.13 73.74 54.13 72.9 52.22 94.33 52.22"/><polygon class="cls-7" points="96.09 56.19 96.94 58.1 75.5 58.1 74.66 56.19 96.09 56.19"/><polygon class="cls-7" points="97.85 60.17 98.7 62.07 77.26 62.07 76.42 60.17 97.85 60.17"/><polygon class="cls-7" points="99.61 64.14 100.46 66.05 79.02 66.05 78.18 64.14 99.61 64.14"/><polygon class="cls-7" points="101.37 68.11 102.22 70.02 80.78 70.02 79.94 68.11 101.37 68.11"/><polygon class="cls-7" points="103.13 72.09 103.98 73.99 82.54 73.99 81.7 72.09 103.13 72.09"/><polygon class="cls-7" points="104.89 76.06 105.74 77.97 84.3 77.97 83.46 76.06 104.89 76.06"/><polygon class="cls-5" points="224.61 187.85 224.81 188.29 219.84 188.29 219.65 187.85 224.61 187.85"/><polygon class="cls-5" points="225.02 188.77 225.22 189.21 220.25 189.21 220.06 188.77 225.02 188.77"/><polygon class="cls-5" points="225.43 189.69 225.63 190.13 220.66 190.13 220.46 189.69 225.43 189.69"/><polygon class="cls-5" points="225.84 190.61 226.03 191.06 221.07 191.06 220.87 190.61 225.84 190.61"/><polygon class="cls-5" points="226.25 191.53 226.44 191.98 221.47 191.98 221.28 191.53 226.25 191.53"/><polygon class="cls-5" points="226.65 192.46 226.85 192.9 221.88 192.9 221.69 192.46 226.65 192.46"/><polygon class="cls-5" points="227.06 193.38 227.26 193.82 222.29 193.82 222.09 193.38 227.06 193.38"/><polygon class="cls-5" points="227.47 194.3 227.66 194.74 222.7 194.74 222.5 194.3 227.47 194.3"/><polygon class="cls-5" points="227.88 195.22 228.07 195.66 223.11 195.66 222.91 195.22 227.88 195.22"/></g></svg>