<svg xmlns="http://www.w3.org/2000/svg" xmlns:xlink="http://www.w3.org/1999/xlink" viewBox="0 0 648.69 1020.34"><defs><style>.cls-1{fill:url(#linear-gradient);}.cls-2{fill:url(#linear-gradient-2);}.cls-3{fill:url(#linear-gradient-3);}.cls-4{fill:url(#linear-gradient-4);}.cls-5{fill:none;}.cls-6{isolation:isolate;}.cls-7{clip-path:url(#clip-path);}.cls-8{opacity:0.5;}.cls-9{mask:url(#mask);}.cls-10{mix-blend-mode:multiply;}.cls-11,.cls-12,.cls-13,.cls-14,.cls-15,.cls-16,.cls-17,.cls-18,.cls-19,.cls-20,.cls-21,.cls-22,.cls-23,.cls-24,.cls-25,.cls-26,.cls-27,.cls-28,.cls-29,.cls-30,.cls-31,.cls-32,.cls-33,.cls-35,.cls-36{fill:#6457a6;}.cls-11,.cls-38{opacity:0.36;}.cls-12,.cls-40{opacity:0.81;}.cls-13,.cls-41{opacity:0.7;}.cls-14,.cls-42{opacity:0.16;}.cls-15,.cls-43{opacity:0.25;}.cls-16,.cls-44{opacity:0.1;}.cls-17,.cls-45{opacity:0.77;}.cls-18,.cls-46{opacity:0.6;}.cls-19,.cls-47{opacity:0.47;}.cls-20,.cls-48{opacity:0.69;}.cls-21,.cls-50{opacity:0.54;}.cls-22,.cls-51{opacity:0.19;}.cls-23,.cls-52{opacity:0.96;}.cls-24,.cls-53{opacity:0.99;}.cls-25,.cls-54{opacity:0.06;}.cls-26,.cls-55{opacity:0.41;}.cls-27,.cls-56{opacity:0.68;}.cls-28,.cls-58{opacity:0.24;}.cls-29,.cls-59{opacity:0.71;}.cls-30,.cls-60{opacity:0.13;}.cls-31,.cls-61{opacity:0.22;}.cls-32,.cls-62{opacity:0.78;}.cls-33,.cls-63{opacity:0.58;}.cls-34{mask:url(#mask-2);}.cls-35,.cls-65{opacity:0.26;}.cls-36,.cls-66{opacity:0.52;}.cls-37{mask:url(#mask-3);}.cls-38,.cls-39,.cls-40,.cls-41,.cls-42,.cls-43,.cls-44,.cls-45,.cls-46,.cls-47,.cls-48,.cls-49,.cls-50,.cls-51,.cls-52,.cls-53,.cls-54,.cls-55,.cls-56,.cls-57,.cls-58,.cls-59,.cls-60,.cls-61,.cls-62,.cls-63,.cls-65,.cls-66{fill:#17dbff;}.cls-39{opacity:0.21;}.cls-49{opacity:0.84;}.cls-57{opacity:0.88;}.cls-64{mask:url(#mask-4);}</style><linearGradient id="linear-gradient" x1="-1619.73" y1="-2284.2" x2="-1619.73" y2="-1948.6" gradientTransform="matrix(0.49, 0.87, -0.87, 0.49, -660.57, 2873.32)" gradientUnits="userSpaceOnUse"><stop offset="0.11" stop-color="#fff"/><stop offset="0.2" stop-color="#cfcfcf"/><stop offset="0.32" stop-color="#999"/><stop offset="0.44" stop-color="#6a6a6a"/><stop offset="0.55" stop-color="#444"/><stop offset="0.67" stop-color="#262626"/><stop offset="0.78" stop-color="#111"/><stop offset="0.89" stop-color="#040404"/><stop offset="1"/></linearGradient><linearGradient id="linear-gradient-2" x1="-1523.74" y1="-2424.01" x2="-1523.74" y2="-2204.44" xlink:href="#linear-gradient"/><linearGradient id="linear-gradient-3" x1="-1737.3" y1="-2368.32" x2="-1737.3" y2="-2165.02" xlink:href="#linear-gradient"/><linearGradient id="linear-gradient-4" x1="-1679.15" y1="-2453.02" x2="-1679.15" y2="-2320" xlink:href="#linear-gradient"/><clipPath id="clip-path"><rect class="cls-5" x="-25.9" y="0.25" width="674.11" height="1052.77"/></clipPath><mask id="mask" x="-175.45" y="-473.33" width="1478.68" height="1591.41" maskUnits="userSpaceOnUse"><polygon class="cls-1" points="593.83 1118.08 -175.45 -111.98 533.95 -473.33 1303.23 756.73 593.83 1118.08"/></mask><mask id="mask-2" x="238.31" y="-177.25" width="967.44" height="1041.19" maskUnits="userSpaceOnUse"><polygon class="cls-2" points="741.62 863.95 238.31 59.17 702.44 -177.25 1205.75 627.53 741.62 863.95"/></mask><mask id="mask-3" x="119.17" y="-296.44" width="895.76" height="964.05" maskUnits="userSpaceOnUse"><polygon class="cls-3" points="585.18 667.61 119.17 -77.54 548.91 -296.44 1014.93 448.71 585.18 667.61"/></mask><mask id="mask-4" x="369.82" y="-117.07" width="586.06" height="630.74" maskUnits="userSpaceOnUse"><polygon class="cls-4" points="674.71 513.66 369.82 26.14 650.98 -117.07 955.87 370.44 674.71 513.66"/></mask></defs><g class="cls-6"><g id="Layer_1" data-name="Layer 1"><g class="cls-7"><g class="cls-8"><g class="cls-9"><g class="cls-10"><path class="cls-11" d="M678,85.19c-8.28,4.21-18.77,1.58-23.45-5.89L618,20.83c-4.67-7.47-1.75-16.94,6.53-21.16l64.78-33c8.28-4.21,18.78-1.58,23.45,5.89L749.34,31C754,38.5,751.09,48,742.81,52.19Z"/><path class="cls-12" d="M486.61,34.05c-8.28,4.22-18.78,1.58-23.45-5.89L426.6-30.3c-4.67-7.47-1.75-16.95,6.53-21.16l64.78-33c8.28-4.22,18.77-1.58,23.45,5.89L557.92-20.1c4.67,7.47,1.75,16.94-6.53,21.16Z"/><path class="cls-13" d="M557.11,146.78c-8.28,4.22-18.77,1.58-23.45-5.89L497.1,82.42c-4.67-7.47-1.75-16.94,6.53-21.16l64.78-33c8.28-4.22,18.77-1.58,23.45,5.89l36.56,58.46c4.67,7.47,1.75,16.95-6.53,21.16Z"/><path class="cls-14" d="M627.61,259.51c-8.28,4.22-18.77,1.58-23.45-5.89L567.6,195.15c-4.67-7.47-1.75-16.94,6.53-21.16l64.78-33c8.28-4.21,18.78-1.58,23.45,5.89l36.56,58.47c4.67,7.47,1.75,17-6.53,21.16Z"/><path class="cls-15" d="M698.11,372.24c-8.28,4.22-18.77,1.58-23.45-5.89L638.1,307.88c-4.67-7.47-1.75-16.94,6.53-21.16l64.78-33c8.28-4.21,18.78-1.58,23.45,5.89l36.56,58.47c4.67,7.47,1.75,16.94-6.53,21.16Z"/><path class="cls-16" d="M365.69,95.65c-8.28,4.21-18.78,1.58-23.45-5.89L305.68,31.29c-4.67-7.47-1.75-16.94,6.53-21.16l64.78-33c8.28-4.21,18.77-1.58,23.45,5.89L437,41.49c4.67,7.47,1.75,16.94-6.53,21.16Z"/><path class="cls-17" d="M436.19,208.38c-8.28,4.21-18.77,1.58-23.45-5.89L376.18,144c-4.67-7.47-1.75-16.94,6.53-21.16l64.78-33c8.28-4.22,18.77-1.58,23.45,5.89l36.56,58.47c4.67,7.47,1.75,16.94-6.53,21.16Z"/><path class="cls-18" d="M506.69,321.1c-8.28,4.22-18.77,1.58-23.45-5.89l-36.56-58.46c-4.67-7.47-1.75-16.95,6.53-21.16l64.78-33c8.28-4.22,18.77-1.58,23.45,5.89L578,267c4.67,7.47,1.75,16.94-6.53,21.16Z"/><path class="cls-19" d="M577.19,433.83c-8.28,4.22-18.77,1.58-23.45-5.89l-36.56-58.47c-4.67-7.47-1.75-16.94,6.53-21.15l64.78-33c8.28-4.22,18.78-1.58,23.45,5.89l36.56,58.46c4.67,7.47,1.75,16.95-6.53,21.16Z"/><path class="cls-20" d="M647.69,546.56c-8.28,4.22-18.77,1.58-23.45-5.89L587.68,482.2c-4.67-7.47-1.75-16.94,6.53-21.16L659,428c8.28-4.21,18.78-1.57,23.45,5.9L719,492.4c4.67,7.47,1.75,17-6.53,21.16Z"/><path class="cls-21" d="M174.27,44.51c-8.28,4.22-18.78,1.58-23.45-5.89L114.26-19.84c-4.68-7.47-1.75-16.95,6.52-21.16l64.79-33c8.28-4.22,18.77-1.58,23.44,5.89L245.58-9.64c4.67,7.47,1.75,16.94-6.53,21.16Z"/><path class="cls-22" d="M244.77,157.24c-8.28,4.22-18.78,1.58-23.45-5.89L184.76,92.88c-4.67-7.47-1.75-16.94,6.53-21.15l64.78-33c8.28-4.22,18.77-1.58,23.45,5.89l36.56,58.46c4.67,7.47,1.75,17-6.53,21.16Z"/><path class="cls-23" d="M315.27,270c-8.28,4.22-18.78,1.58-23.45-5.89l-36.56-58.47c-4.67-7.47-1.75-16.94,6.53-21.16l64.78-33c8.28-4.21,18.77-1.58,23.45,5.89l36.56,58.47c4.67,7.47,1.75,16.95-6.53,21.16Z"/><path class="cls-24" d="M385.77,382.7c-8.28,4.22-18.77,1.58-23.45-5.89l-36.56-58.47c-4.67-7.47-1.75-16.94,6.53-21.16l64.78-33c8.28-4.21,18.77-1.58,23.45,5.89l36.56,58.47c4.67,7.47,1.75,16.94-6.53,21.16Z"/><path class="cls-25" d="M456.27,495.43c-8.28,4.21-18.77,1.58-23.45-5.89l-36.56-58.47c-4.67-7.47-1.75-16.94,6.53-21.16l64.78-33c8.28-4.22,18.78-1.58,23.45,5.89l36.56,58.47c4.67,7.47,1.75,16.94-6.53,21.16Z"/><path class="cls-26" d="M526.77,608.16c-8.28,4.21-18.77,1.57-23.45-5.9L466.76,543.8c-4.67-7.47-1.75-16.95,6.53-21.16l64.78-33c8.28-4.22,18.78-1.58,23.45,5.89L598.08,554c4.67,7.47,1.75,16.94-6.53,21.16Z"/><path class="cls-21" d="M597.27,720.88c-8.28,4.22-18.77,1.58-23.45-5.89l-36.56-58.47c-4.67-7.46-1.75-16.94,6.53-21.15l64.78-33c8.28-4.22,18.78-1.58,23.45,5.89l36.56,58.46c4.67,7.47,1.75,16.95-6.53,21.16Z"/><path class="cls-27" d="M667.77,833.61c-8.28,4.22-18.77,1.58-23.44-5.89l-36.57-58.47c-4.67-7.47-1.75-16.94,6.53-21.16l64.78-33c8.28-4.21,18.78-1.57,23.45,5.9l36.56,58.46c4.68,7.47,1.75,16.95-6.52,21.16Z"/><path class="cls-28" d="M53.35,106.11c-8.28,4.22-18.78,1.58-23.45-5.89L-6.66,41.75c-4.68-7.47-1.75-16.94,6.52-21.16l64.79-33C72.93-16.62,83.42-14,88.09-6.52L124.66,52c4.67,7.47,1.75,16.94-6.53,21.16Z"/><path class="cls-29" d="M123.85,218.84c-8.28,4.21-18.78,1.58-23.45-5.89L63.84,154.48c-4.68-7.47-1.75-16.94,6.52-21.16l64.79-33c8.28-4.22,18.77-1.58,23.44,5.89l36.57,58.47c4.67,7.47,1.75,16.94-6.53,21.16Z"/><path class="cls-30" d="M194.35,331.57c-8.28,4.21-18.78,1.57-23.45-5.9l-36.56-58.46c-4.67-7.47-1.75-16.95,6.53-21.16l64.78-33c8.28-4.22,18.77-1.58,23.45,5.89l36.56,58.47c4.67,7.47,1.75,16.94-6.53,21.16Z"/><path class="cls-31" d="M264.85,444.29c-8.28,4.22-18.78,1.58-23.45-5.89l-36.56-58.47c-4.67-7.47-1.75-16.94,6.53-21.15l64.78-33c8.28-4.22,18.77-1.58,23.45,5.89l36.56,58.46c4.67,7.47,1.75,16.95-6.53,21.16Z"/><path class="cls-12" d="M335.35,557c-8.28,4.22-18.78,1.58-23.45-5.89l-36.56-58.47c-4.67-7.47-1.75-16.94,6.53-21.16l64.78-33c8.28-4.21,18.77-1.57,23.45,5.9l36.56,58.46c4.67,7.47,1.75,16.95-6.53,21.16Z"/><path class="cls-22" d="M405.85,669.75c-8.28,4.22-18.77,1.58-23.45-5.89l-36.56-58.47c-4.67-7.47-1.75-16.94,6.53-21.16l64.78-33c8.28-4.21,18.77-1.58,23.45,5.89l36.56,58.47c4.67,7.47,1.75,16.94-6.53,21.16Z"/><path class="cls-32" d="M476.35,782.48c-8.28,4.21-18.77,1.58-23.45-5.89l-36.56-58.47c-4.67-7.47-1.75-16.94,6.53-21.16l64.78-33c8.28-4.22,18.78-1.58,23.45,5.89l36.56,58.47c4.67,7.47,1.75,16.94-6.53,21.16Z"/><path class="cls-33" d="M546.85,895.21c-8.28,4.21-18.77,1.57-23.45-5.9l-36.56-58.46c-4.67-7.47-1.75-17,6.53-21.16l64.78-33c8.28-4.22,18.78-1.58,23.45,5.89l36.56,58.47c4.67,7.47,1.75,16.94-6.53,21.16Z"/><path class="cls-13" d="M617.35,1007.93c-8.28,4.22-18.77,1.58-23.44-5.89l-36.57-58.46c-4.67-7.47-1.75-17,6.53-21.16l64.78-33c8.28-4.22,18.78-1.58,23.45,5.89l36.56,58.46c4.68,7.47,1.75,17-6.52,21.16Z"/></g></g><g class="cls-34"><g class="cls-10"><path class="cls-35" d="M625.34,81c-5.41,2.76-12.28,1-15.34-3.85L586.08,38.86C583,34,584.93,27.77,590.35,25L632.74,3.42c5.41-2.76,12.28-1,15.34,3.86L672,45.53c3,4.89,1.14,11.09-4.27,13.84Z"/><path class="cls-12" d="M671.47,154.72c-5.42,2.76-12.29,1-15.34-3.86L632.2,112.61c-3.05-4.89-1.14-11.09,4.28-13.84l42.38-21.59c5.42-2.76,12.28-1,15.34,3.85l23.92,38.25c3.06,4.89,1.15,11.09-4.27,13.85Z"/><path class="cls-36" d="M546.23,121.26c-5.42,2.76-12.28,1-15.34-3.85L507,79.16c-3.06-4.89-1.15-11.09,4.27-13.85l42.38-21.59c5.42-2.76,12.29-1,15.34,3.86l23.93,38.25c3.05,4.89,1.14,11.08-4.28,13.84Z"/><path class="cls-16" d="M592.35,195c-5.41,2.75-12.28,1-15.34-3.86l-23.92-38.25C550,148,552,141.82,557.36,139.06l42.39-21.59c5.41-2.75,12.28-1,15.34,3.86L639,159.58c3.06,4.89,1.15,11.09-4.27,13.85Z"/><path class="cls-17" d="M638.48,268.77c-5.42,2.76-12.28,1-15.34-3.86l-23.92-38.25c-3.06-4.89-1.15-11.08,4.27-13.84l42.38-21.59c5.42-2.76,12.29-1,15.34,3.85l23.93,38.25c3.05,4.89,1.14,11.09-4.27,13.85Z"/><path class="cls-18" d="M684.61,342.52c-5.42,2.76-12.29,1-15.34-3.85l-23.93-38.25c-3.05-4.89-1.14-11.09,4.27-13.85L692,265c5.41-2.76,12.28-1,15.34,3.86l23.92,38.25c3.06,4.89,1.15,11.08-4.27,13.84Z"/><path class="cls-21" d="M467.12,161.56c-5.42,2.76-12.29,1-15.34-3.85l-23.93-38.26c-3.05-4.88-1.14-11.08,4.27-13.84L474.51,84c5.41-2.76,12.28-1,15.34,3.85l23.92,38.26c3.06,4.88,1.15,11.08-4.27,13.84Z"/><path class="cls-22" d="M513.24,235.31c-5.41,2.76-12.28,1-15.34-3.85L474,193.21c-3.06-4.89-1.15-11.09,4.27-13.85l42.38-21.59c5.42-2.76,12.29-1,15.34,3.86l23.93,38.25c3.05,4.89,1.14,11.09-4.27,13.84Z"/><path class="cls-23" d="M559.37,309.07c-5.42,2.76-12.29,1-15.34-3.86L520.1,267c-3.05-4.89-1.14-11.09,4.27-13.84l42.39-21.59c5.42-2.76,12.28-1,15.34,3.85L606,273.63c3.06,4.89,1.15,11.09-4.27,13.85Z"/><path class="cls-24" d="M605.49,382.82c-5.41,2.76-12.28,1-15.34-3.85l-23.92-38.26c-3.06-4.88-1.14-11.08,4.27-13.84l42.39-21.59c5.41-2.76,12.28-1,15.34,3.85l23.92,38.26c3.06,4.88,1.14,11.08-4.27,13.84Z"/><path class="cls-25" d="M651.62,456.57c-5.42,2.76-12.29,1-15.34-3.85l-23.93-38.25c-3.05-4.89-1.14-11.09,4.28-13.85L659,379c5.42-2.76,12.28-1,15.34,3.86l23.92,38.25c3.06,4.89,1.15,11.08-4.27,13.84Z"/><path class="cls-28" d="M388,201.86c-5.41,2.76-12.28,1-15.34-3.86l-23.92-38.25c-3.06-4.89-1.14-11.08,4.27-13.84l42.39-21.59c5.41-2.76,12.28-1,15.34,3.85l23.92,38.26c3.06,4.88,1.14,11.08-4.27,13.84Z"/><path class="cls-29" d="M434.13,275.61c-5.42,2.76-12.28,1-15.34-3.85l-23.92-38.25c-3.06-4.89-1.15-11.09,4.27-13.85l42.38-21.59c5.42-2.76,12.29-1,15.34,3.86l23.92,38.25c3.06,4.89,1.15,11.08-4.27,13.84Z"/><path class="cls-30" d="M480.25,349.37c-5.41,2.75-12.28,1-15.34-3.86L441,307.26c-3.06-4.89-1.14-11.09,4.27-13.85l42.39-21.59c5.41-2.75,12.28-1,15.34,3.86l23.92,38.25c3.06,4.89,1.14,11.09-4.27,13.85Z"/><path class="cls-31" d="M526.38,423.12c-5.42,2.76-12.28,1-15.34-3.86L487.12,381c-3.06-4.89-1.15-11.08,4.27-13.84l42.38-21.59c5.42-2.76,12.29-1,15.34,3.85L573,387.68c3.05,4.89,1.14,11.09-4.28,13.85Z"/><path class="cls-12" d="M572.5,496.87c-5.41,2.76-12.28,1-15.34-3.85l-23.92-38.26c-3-4.88-1.14-11.08,4.27-13.84l42.39-21.59c5.41-2.76,12.28-1,15.34,3.86l23.92,38.25c3.06,4.89,1.15,11.08-4.27,13.84Z"/><path class="cls-22" d="M618.63,570.62c-5.42,2.76-12.28,1-15.34-3.85l-23.92-38.25c-3.06-4.89-1.15-11.09,4.27-13.85L626,493.08c5.42-2.75,12.29-1,15.34,3.86l23.93,38.25c3.05,4.89,1.14,11.09-4.27,13.84Z"/><path class="cls-32" d="M664.76,644.38c-5.42,2.76-12.29,1-15.34-3.86l-23.93-38.25c-3-4.89-1.14-11.08,4.27-13.84l42.39-21.59c5.41-2.76,12.28-1,15.34,3.85l23.92,38.25c3.06,4.89,1.15,11.09-4.27,13.85Z"/></g></g></g><g class="cls-37"><g class="cls-10"><path class="cls-38" d="M636.19,41.9c-5,2.56-11.37,1-14.2-3.57L599.84,2.92C597-1.61,598.78-7.35,603.79-9.9l39.25-20c5-2.56,11.37-1,14.2,3.57L679.39,9.1c2.83,4.52,1.06,10.26-3.95,12.81Z"/><path class="cls-39" d="M678.9,110.19c-5,2.56-11.37,1-14.2-3.57L642.55,71.21c-2.83-4.53-1.06-10.27,4-12.82l39.25-20c5-2.56,11.37-1,14.2,3.57L722.1,77.38c2.83,4.53,1.06,10.27-4,12.82Z"/><path class="cls-40" d="M520.23,10.93c-5,2.55-11.37,1-14.2-3.57L483.88-28.06c-2.83-4.52-1.06-10.26,3.95-12.82l39.25-20c5-2.55,11.37-1,14.2,3.57l22.15,35.42c2.83,4.52,1.06,10.26-3.95,12.82Z"/><path class="cls-41" d="M562.94,79.22c-5,2.55-11.37,1-14.2-3.57L526.59,40.23c-2.83-4.53-1.06-10.26,3.95-12.82l39.25-20c5-2.55,11.37-1,14.2,3.57l22.15,35.42c2.83,4.52,1.06,10.26-3.95,12.82Z"/><path class="cls-42" d="M605.65,147.51c-5,2.55-11.37,1-14.2-3.57L569.3,108.52c-2.83-4.53-1.06-10.27,4-12.82l39.24-20c5-2.55,11.38-1,14.21,3.57l22.15,35.42c2.83,4.52,1.06,10.26-4,12.81Z"/><path class="cls-43" d="M648.36,215.79c-5,2.56-11.38,1-14.21-3.57L612,176.81c-2.83-4.53-1.06-10.27,4-12.82l39.24-20c5-2.56,11.38-1,14.21,3.57L691.56,183c2.83,4.52,1.06,10.26-4,12.81Z"/><path class="cls-44" d="M447,48.24c-5,2.55-11.37,1-14.2-3.57L410.63,9.25C407.8,4.73,409.57-1,414.58-3.57l39.25-20c5-2.55,11.37-1,14.2,3.57l22.15,35.42C493,20,491.24,25.7,486.23,28.25Z"/><path class="cls-45" d="M489.69,116.53c-5,2.55-11.37,1-14.2-3.57L453.34,77.54c-2.83-4.52-1.06-10.26,4-12.82l39.25-20c5-2.55,11.37-.95,14.2,3.57l22.15,35.42c2.83,4.53,1.06,10.26-4,12.82Z"/><path class="cls-46" d="M532.4,184.82c-5,2.55-11.38,1-14.21-3.57L496,145.83c-2.83-4.52-1.06-10.26,4-12.82l39.24-20c5-2.55,11.38-1,14.21,3.57L575.6,152c2.83,4.52,1.06,10.26-4,12.82Z"/><path class="cls-47" d="M575.11,253.11c-5,2.55-11.38.95-14.21-3.57l-22.15-35.42c-2.83-4.53-1.06-10.26,4-12.82l39.24-20c5-2.55,11.37-1,14.2,3.57l22.16,35.42c2.83,4.52,1.05,10.26-4,12.82Z"/><path class="cls-48" d="M617.81,321.4c-5,2.55-11.37,1-14.2-3.57l-22.15-35.42c-2.83-4.53-1.06-10.27,3.95-12.82l39.25-20c5-2.55,11.37-1,14.2,3.57L661,288.59c2.83,4.52,1.06,10.26-4,12.81Z"/><path class="cls-49" d="M660.52,389.68c-5,2.56-11.37,1-14.2-3.57L624.17,350.7c-2.83-4.53-1.06-10.27,4-12.82l39.25-20c5-2.56,11.37-1,14.2,3.57l22.15,35.42c2.83,4.52,1.06,10.26-4,12.81Z"/><path class="cls-50" d="M331,17.26c-5,2.56-11.37,1-14.2-3.56L294.67-21.72c-2.83-4.53-1.06-10.27,3.95-12.82l39.25-20c5-2.56,11.37-1,14.2,3.57l22.15,35.42c2.83,4.52,1.06,10.26-4,12.81Z"/><path class="cls-51" d="M373.73,85.55c-5,2.56-11.37,1-14.2-3.57L337.38,46.57c-2.83-4.53-1.06-10.27,3.95-12.82l39.25-20c5-2.56,11.37-1,14.2,3.57l22.15,35.41C419.76,57.27,418,63,413,65.56Z"/><path class="cls-52" d="M416.44,153.84c-5,2.56-11.38,1-14.21-3.57l-22.15-35.42c-2.83-4.52-1.06-10.26,4-12.81l39.24-20c5-2.56,11.38-1,14.21,3.56L459.64,121c2.83,4.53,1.06,10.27-4,12.82Z"/><path class="cls-53" d="M459.15,222.13c-5,2.55-11.38,1-14.21-3.57l-22.15-35.42c-2.83-4.52-1.06-10.26,4-12.81l39.24-20c5-2.55,11.37-1,14.2,3.57l22.16,35.42c2.83,4.53,1.06,10.27-4,12.82Z"/><path class="cls-54" d="M501.85,290.42c-5,2.55-11.37,1-14.2-3.57L465.5,251.43c-2.83-4.52-1.06-10.26,3.95-12.82l39.25-20c5-2.55,11.37-1,14.2,3.57l22.15,35.42c2.83,4.53,1.06,10.26-3.95,12.82Z"/><path class="cls-55" d="M544.56,358.71c-5,2.55-11.37,1-14.2-3.57l-22.15-35.42c-2.83-4.52-1.06-10.26,3.95-12.82l39.25-20c5-2.55,11.37-1,14.2,3.57l22.15,35.42c2.83,4.52,1.06,10.26-4,12.82Z"/><path class="cls-50" d="M587.27,427c-5,2.55-11.37.95-14.2-3.57L550.92,388c-2.83-4.53-1.06-10.26,4-12.82l39.25-20c5-2.55,11.37-1,14.2,3.57l22.15,35.42c2.83,4.52,1.06,10.26-4,12.82Z"/><path class="cls-56" d="M630,495.29c-5,2.55-11.38.95-14.21-3.57L593.62,456.3c-2.83-4.53-1.06-10.27,4-12.82l39.24-20c5-2.55,11.38-1,14.21,3.57l22.15,35.42c2.83,4.52,1.06,10.26-4,12.81Z"/><path class="cls-57" d="M672.69,563.57c-5,2.56-11.38,1-14.21-3.57l-22.15-35.41c-2.83-4.53-1.06-10.27,4-12.82l39.24-20c5-2.56,11.37-1,14.2,3.57l22.16,35.42c2.83,4.52,1.05,10.26-4,12.81Z"/><path class="cls-58" d="M257.77,54.58c-5,2.55-11.37,1-14.2-3.57L221.42,15.59c-2.83-4.53-1.06-10.26,4-12.82l39.25-20c5-2.55,11.37-1,14.2,3.57L301,21.77C303.8,26.29,302,32,297,34.59Z"/><path class="cls-59" d="M300.48,122.87c-5,2.55-11.37.95-14.2-3.57L264.12,83.88c-2.83-4.53-1.05-10.27,4-12.82l39.24-20c5-2.55,11.38-1,14.21,3.57l22.15,35.42c2.83,4.52,1.06,10.26-4,12.81Z"/><path class="cls-60" d="M343.19,191.15c-5,2.56-11.38,1-14.21-3.56l-22.15-35.42c-2.83-4.53-1.06-10.27,4-12.82l39.24-20c5-2.56,11.38-1,14.21,3.57l22.15,35.42c2.83,4.52,1.06,10.26-4,12.81Z"/><path class="cls-61" d="M385.89,259.44c-5,2.56-11.37,1-14.2-3.57l-22.15-35.41c-2.83-4.53-1.06-10.27,4-12.82l39.24-20c5-2.56,11.37-1,14.2,3.57l22.15,35.41c2.83,4.53,1.06,10.27-3.95,12.82Z"/><path class="cls-40" d="M428.6,327.73c-5,2.56-11.37,1-14.2-3.57l-22.15-35.42c-2.83-4.52-1.06-10.26,3.95-12.81l39.25-20c5-2.56,11.37-1,14.2,3.56l22.15,35.42c2.83,4.53,1.06,10.27-3.95,12.82Z"/><path class="cls-51" d="M471.31,396c-5,2.55-11.37,1-14.2-3.57L435,357c-2.83-4.52-1.06-10.26,4-12.81l39.25-20c5-2.55,11.37-1,14.2,3.57l22.15,35.42c2.83,4.53,1.06,10.27-3.95,12.82Z"/><path class="cls-62" d="M514,464.31c-5,2.55-11.37,1-14.2-3.57l-22.16-35.42c-2.83-4.52-1.06-10.26,4-12.82l39.24-20c5-2.55,11.38-.95,14.21,3.57l22.15,35.42c2.83,4.53,1.06,10.26-4,12.82Z"/><path class="cls-63" d="M556.73,532.6c-5,2.55-11.38.95-14.21-3.57l-22.15-35.42c-2.83-4.52-1.06-10.26,4-12.82l39.24-20c5-2.55,11.38-.95,14.21,3.57l22.15,35.42c2.83,4.52,1.06,10.26-4,12.82Z"/><path class="cls-41" d="M599.43,600.89c-5,2.55-11.37,1-14.2-3.57L563.08,561.9c-2.83-4.53-1.06-10.26,3.95-12.82l39.25-20c5-2.55,11.37-1,14.2,3.57l22.15,35.42c2.83,4.52,1.06,10.26-4,12.82Z"/></g></g><g class="cls-64"><g class="cls-10"><path class="cls-41" d="M652.2,14.93a7.22,7.22,0,0,1-9.29-2.33L628.42-10.58A5.83,5.83,0,0,1,631-19L656.68-32A7.22,7.22,0,0,1,666-29.71L680.46-6.53a5.83,5.83,0,0,1-2.58,8.38Z"/><path class="cls-65" d="M604.27,39.34A7.21,7.21,0,0,1,595,37L580.49,13.84a5.85,5.85,0,0,1,2.59-8.39L608.75-7.63a7.24,7.24,0,0,1,9.3,2.34l14.49,23.17A5.86,5.86,0,0,1,630,26.27Z"/><path class="cls-40" d="M632.22,84a7.24,7.24,0,0,1-9.3-2.33L608.43,58.52A5.85,5.85,0,0,1,611,50.13L636.7,37.05A7.22,7.22,0,0,1,646,39.39l14.49,23.17a5.84,5.84,0,0,1-2.59,8.38Z"/><path class="cls-41" d="M660.16,128.7a7.22,7.22,0,0,1-9.29-2.33l-14.5-23.18A5.84,5.84,0,0,1,639,94.81l25.68-13.08a7.22,7.22,0,0,1,9.29,2.33l14.49,23.18a5.84,5.84,0,0,1-2.58,8.38Z"/><path class="cls-66" d="M556.35,63.76a7.23,7.23,0,0,1-9.29-2.34l-14.5-23.17a5.85,5.85,0,0,1,2.59-8.39l25.68-13.08a7.23,7.23,0,0,1,9.29,2.34l14.49,23.17A5.85,5.85,0,0,1,582,50.68Z"/><path class="cls-44" d="M584.29,108.43A7.21,7.21,0,0,1,575,106.1L560.51,82.93a5.85,5.85,0,0,1,2.58-8.39l25.68-13.08a7.23,7.23,0,0,1,9.29,2.34L612.56,87A5.86,5.86,0,0,1,610,95.36Z"/><path class="cls-45" d="M612.23,153.11a7.22,7.22,0,0,1-9.29-2.33l-14.49-23.17a5.85,5.85,0,0,1,2.59-8.39l25.67-13.08a7.22,7.22,0,0,1,9.29,2.34l14.5,23.17a5.84,5.84,0,0,1-2.59,8.38Z"/><path class="cls-46" d="M640.18,197.79a7.23,7.23,0,0,1-9.3-2.33l-14.49-23.18A5.84,5.84,0,0,1,619,163.9l25.67-13.08a7.23,7.23,0,0,1,9.3,2.33l14.49,23.18a5.84,5.84,0,0,1-2.59,8.38Z"/><path class="cls-47" d="M668.12,242.47a7.24,7.24,0,0,1-9.3-2.33L644.33,217a5.84,5.84,0,0,1,2.59-8.38L672.6,195.5a7.22,7.22,0,0,1,9.29,2.33L696.38,221a5.85,5.85,0,0,1-2.59,8.39Z"/><path class="cls-50" d="M508.42,88.17a7.23,7.23,0,0,1-9.29-2.34L484.64,62.66a5.86,5.86,0,0,1,2.59-8.39L512.9,41.2a7.23,7.23,0,0,1,9.3,2.33L536.69,66.7a5.85,5.85,0,0,1-2.59,8.39Z"/><path class="cls-51" d="M536.37,132.85a7.24,7.24,0,0,1-9.3-2.34l-14.49-23.17A5.85,5.85,0,0,1,515.17,99l25.68-13.08a7.23,7.23,0,0,1,9.29,2.34l14.49,23.17a5.85,5.85,0,0,1-2.59,8.39Z"/><path class="cls-52" d="M564.31,177.53a7.23,7.23,0,0,1-9.29-2.34L540.52,152a5.85,5.85,0,0,1,2.59-8.39l25.68-13.08a7.23,7.23,0,0,1,9.29,2.34l14.49,23.17a5.85,5.85,0,0,1-2.59,8.39Z"/><path class="cls-53" d="M592.25,222.2a7.22,7.22,0,0,1-9.29-2.33L568.47,196.7a5.84,5.84,0,0,1,2.58-8.39l25.68-13.08a7.23,7.23,0,0,1,9.29,2.34l14.49,23.17a5.83,5.83,0,0,1-2.58,8.38Z"/><path class="cls-54" d="M620.19,266.88a7.22,7.22,0,0,1-9.29-2.33l-14.49-23.18A5.84,5.84,0,0,1,599,233l25.68-13.08a7.22,7.22,0,0,1,9.29,2.33l14.5,23.18a5.84,5.84,0,0,1-2.59,8.38Z"/><path class="cls-55" d="M648.13,311.56a7.22,7.22,0,0,1-9.29-2.33l-14.49-23.18a5.84,5.84,0,0,1,2.59-8.38l25.67-13.08a7.24,7.24,0,0,1,9.3,2.33L676.4,290.1a5.84,5.84,0,0,1-2.59,8.38Z"/><path class="cls-58" d="M460.5,112.58a7.22,7.22,0,0,1-9.29-2.33l-14.5-23.18a5.84,5.84,0,0,1,2.59-8.38L465,65.61a7.22,7.22,0,0,1,9.29,2.33l14.49,23.18a5.84,5.84,0,0,1-2.58,8.38Z"/><path class="cls-59" d="M488.44,157.26a7.23,7.23,0,0,1-9.29-2.34l-14.49-23.17a5.83,5.83,0,0,1,2.58-8.38l25.68-13.08a7.22,7.22,0,0,1,9.29,2.33l14.49,23.17a5.84,5.84,0,0,1-2.58,8.39Z"/><path class="cls-60" d="M516.38,201.94a7.23,7.23,0,0,1-9.29-2.34L492.6,176.43a5.85,5.85,0,0,1,2.59-8.39L520.86,155a7.23,7.23,0,0,1,9.29,2.34l14.5,23.17a5.85,5.85,0,0,1-2.59,8.39Z"/><path class="cls-61" d="M544.32,246.62a7.23,7.23,0,0,1-9.29-2.34l-14.49-23.17a5.85,5.85,0,0,1,2.59-8.39l25.67-13.08a7.24,7.24,0,0,1,9.3,2.34l14.49,23.17a5.85,5.85,0,0,1-2.59,8.39Z"/><path class="cls-40" d="M572.27,291.29A7.23,7.23,0,0,1,563,289l-14.49-23.17a5.85,5.85,0,0,1,2.59-8.39l25.68-13.08a7.23,7.23,0,0,1,9.29,2.34l14.49,23.17a5.86,5.86,0,0,1-2.59,8.39Z"/><path class="cls-51" d="M600.21,336a7.22,7.22,0,0,1-9.29-2.33l-14.5-23.17a5.85,5.85,0,0,1,2.59-8.39L604.69,289a7.22,7.22,0,0,1,9.29,2.33l14.49,23.18a5.84,5.84,0,0,1-2.58,8.38Z"/><path class="cls-62" d="M628.15,380.65a7.22,7.22,0,0,1-9.29-2.33l-14.49-23.18a5.83,5.83,0,0,1,2.58-8.38l25.68-13.08a7.22,7.22,0,0,1,9.29,2.33l14.49,23.18a5.83,5.83,0,0,1-2.58,8.38Z"/><path class="cls-63" d="M656.09,425.33A7.23,7.23,0,0,1,646.8,423l-14.49-23.17a5.84,5.84,0,0,1,2.59-8.38l25.67-13.08a7.22,7.22,0,0,1,9.29,2.33l14.5,23.17a5.85,5.85,0,0,1-2.59,8.39Z"/></g></g></g></g></g></svg>