<svg xmlns="http://www.w3.org/2000/svg" viewBox="0 0 488.22 294.69"><defs><style>.cls-1{fill:none;}.cls-2{fill:#263238;}.cls-3{fill:#e0e0e0;}.cls-4{fill:#1a50cc;}.cls-5{fill:#fff;}.cls-6{fill:#455a64;}.cls-7{fill:#ebebeb;}.cls-8{fill:#e8505b;}.cls-9{fill:#21206d;}</style></defs><g id="Board"><rect class="cls-1" y="0.2" width="488.22" height="294.49"/><path class="cls-2" d="M488.22,294.69c0-1.64-.08-114.06-.2-294.49l.2.21L0,.46H0L.26.2c0,104.33,0,203.89,0,294.49L0,294.45l488.22.24L0,294.93H-.24v-.24c0-90.6,0-190.16,0-294.49V-.06H0L488.22,0h.2V.2C488.3,180.63,488.22,293.05,488.22,294.69Z"/><path class="cls-3" d="M63.88,50.16s-2.63,24,.75,37.16l32.09-1.4s-6.88-23.69-2.66-34.19Z"/><path class="cls-4" d="M63.63,50.18S63.85,76.1,65.17,84l32.52-1.54S94.84,57,95.94,50.18Z"/><path class="cls-5" d="M91,61.07c0,.14-4.87.55-10.89.91s-10.92.54-10.93.4,4.87-.55,10.9-.92S91,60.92,91,61.07Z"/><path class="cls-5" d="M91,66.56c0,.14-4.87.55-10.89.92s-10.92.54-10.93.39,4.87-.55,10.9-.91S91,66.42,91,66.56Z"/><path class="cls-5" d="M85.52,72a38.19,38.19,0,0,1-6.21.64,38.5,38.5,0,0,1-6.23.11,37.37,37.37,0,0,1,6.2-.63A38,38,0,0,1,85.52,72Z"/><path class="cls-4" d="M63.07,89s.22,25.93,1.54,33.84l32.52-1.54S94.28,95.76,95.38,89Z"/><path class="cls-5" d="M90.47,99.84c0,.14-4.87.55-10.89.92s-10.92.54-10.93.39,4.87-.55,10.9-.91S90.47,99.7,90.47,99.84Z"/><path class="cls-5" d="M90.48,105.33c0,.15-4.87.56-10.89.92s-10.92.54-10.93.39,4.87-.55,10.9-.91S90.47,105.19,90.48,105.33Z"/><path class="cls-5" d="M85,110.72a36.9,36.9,0,0,1-6.21.64,37.17,37.17,0,0,1-6.23.11,37.37,37.37,0,0,1,6.2-.63A38,38,0,0,1,85,110.72Z"/><path class="cls-2" d="M63.07,132.87s.22,25.92,1.54,33.84l32.52-1.54s-2.85-25.49-1.75-32.3Z"/><path class="cls-5" d="M90.47,143.76c0,.14-4.87.55-10.89.91s-10.92.54-10.93.4,4.87-.55,10.9-.92S90.47,143.61,90.47,143.76Z"/><path class="cls-5" d="M90.48,149.25c0,.14-4.87.55-10.89.91s-10.92.54-10.93.4,4.87-.55,10.9-.91S90.47,149.11,90.48,149.25Z"/><path class="cls-5" d="M85,154.64a37.58,37.58,0,0,1-6.21.63,37.89,37.89,0,0,1-6.23.12,37.37,37.37,0,0,1,6.2-.63A38,38,0,0,1,85,154.64Z"/><path class="cls-6" d="M59.28,184.23s.22,25.93,1.54,33.84l32.52-1.54s-2.86-25.49-1.76-32.3Z"/><path class="cls-5" d="M86.68,195.12c0,.14-4.87.55-10.89.92s-10.92.54-10.93.39,4.87-.55,10.89-.91S86.67,195,86.68,195.12Z"/><path class="cls-5" d="M86.69,200.61c0,.15-4.87.56-10.9.92s-10.92.54-10.92.4,4.87-.56,10.89-.92S86.68,200.47,86.69,200.61Z"/><path class="cls-5" d="M81.16,206a38.69,38.69,0,0,1-6.2.63,35.93,35.93,0,0,1-6.23.11,38.69,38.69,0,0,1,6.2-.63A35.93,35.93,0,0,1,81.16,206Z"/><path class="cls-2" d="M102.39,184.45s.22,25.93,1.54,33.84l32.52-1.53s-2.86-25.49-1.76-32.31Z"/><path class="cls-5" d="M129.79,195.35c0,.14-4.87.55-10.9.91s-10.91.54-10.92.4,4.87-.56,10.89-.92S129.78,195.2,129.79,195.35Z"/><path class="cls-5" d="M129.8,200.84c0,.14-4.87.55-10.9.91s-10.92.54-10.92.4,4.86-.55,10.89-.92S129.79,200.69,129.8,200.84Z"/><path class="cls-5" d="M124.27,206.23a37.37,37.37,0,0,1-6.2.63,37.89,37.89,0,0,1-6.23.12,36.52,36.52,0,0,1,6.2-.64A38.5,38.5,0,0,1,124.27,206.23Z"/><path class="cls-4" d="M138.45,186.31s.22,25.93,1.54,33.84l32.52-1.53s-2.86-25.49-1.76-32.31Z"/><path class="cls-5" d="M165.85,197.2c0,.15-4.87.56-10.9.92s-10.91.54-10.92.4,4.87-.56,10.89-.92S165.84,197.06,165.85,197.2Z"/><path class="cls-5" d="M165.86,202.7c0,.14-4.87.55-10.9.91s-10.92.54-10.92.4,4.86-.55,10.89-.92S165.85,202.55,165.86,202.7Z"/><path class="cls-5" d="M160.33,208.09a37.37,37.37,0,0,1-6.2.63,37.89,37.89,0,0,1-6.23.12,36.52,36.52,0,0,1,6.2-.64A38.5,38.5,0,0,1,160.33,208.09Z"/><path class="cls-6" d="M96.31,230.65s.22,25.93,1.54,33.84L130.37,263s-2.85-25.49-1.75-32.3Z"/><path class="cls-5" d="M123.72,241.54c0,.14-4.87.55-10.9.92s-10.92.54-10.93.39,4.87-.55,10.9-.91S123.71,241.4,123.72,241.54Z"/><path class="cls-5" d="M123.72,247c0,.15-4.87.56-10.89.92s-10.92.54-10.93.39,4.87-.55,10.9-.91S123.72,246.89,123.72,247Z"/><path class="cls-5" d="M118.2,252.42a36.86,36.86,0,0,1-6.2.64,37.28,37.28,0,0,1-6.24.11,37.37,37.37,0,0,1,6.2-.63A38,38,0,0,1,118.2,252.42Z"/><path class="cls-2" d="M200.69,171.1s.22,25.93,1.54,33.84l32.52-1.54s-2.85-25.49-1.75-32.3Z"/><path class="cls-5" d="M228.09,182c0,.14-4.87.55-10.89.91s-10.92.54-10.93.4,4.87-.55,10.9-.92S228.08,181.84,228.09,182Z"/><path class="cls-5" d="M228.1,187.48c0,.14-4.87.55-10.89.92s-10.92.54-10.93.39,4.87-.55,10.9-.91S228.09,187.34,228.1,187.48Z"/><path class="cls-5" d="M222.57,192.87a36.52,36.52,0,0,1-6.2.64,38.5,38.5,0,0,1-6.23.11,37.37,37.37,0,0,1,6.2-.63A37.85,37.85,0,0,1,222.57,192.87Z"/><path class="cls-6" d="M271.3,232s.22,25.93,1.53,33.84l32.53-1.53S302.5,238.78,303.6,232Z"/><path class="cls-5" d="M298.7,242.85c0,.15-4.87.56-10.9.92s-10.92.54-10.93.4,4.87-.56,10.9-.92S298.69,242.71,298.7,242.85Z"/><path class="cls-5" d="M298.71,248.35c0,.14-4.88.55-10.9.91s-10.92.54-10.93.4,4.87-.55,10.9-.92S298.7,248.2,298.71,248.35Z"/><path class="cls-5" d="M293.18,253.74a37.37,37.37,0,0,1-6.2.63,38,38,0,0,1-6.24.12,36.69,36.69,0,0,1,6.2-.64A38.61,38.61,0,0,1,293.18,253.74Z"/><path class="cls-6" d="M311.43,232.52s.22,25.93,1.54,33.84l32.52-1.54s-2.85-25.49-1.76-32.3Z"/><path class="cls-5" d="M338.83,243.41c0,.14-4.87.55-10.89.91s-10.92.54-10.93.4,4.87-.55,10.9-.92S338.82,243.26,338.83,243.41Z"/><path class="cls-5" d="M338.84,248.9c0,.14-4.87.55-10.89.92s-10.92.54-10.93.39,4.87-.55,10.9-.91S338.83,248.76,338.84,248.9Z"/><path class="cls-5" d="M333.31,254.29a36.52,36.52,0,0,1-6.2.64,38.5,38.5,0,0,1-6.23.11,37.37,37.37,0,0,1,6.2-.63A37.87,37.87,0,0,1,333.31,254.29Z"/><path class="cls-2" d="M351.57,233.07s.22,25.93,1.54,33.84l32.52-1.54s-2.86-25.49-1.76-32.3Z"/><path class="cls-5" d="M379,244c0,.14-4.87.55-10.9.92s-10.91.54-10.92.39,4.87-.55,10.89-.91S379,243.82,379,244Z"/><path class="cls-5" d="M379,249.45c0,.15-4.87.56-10.9.92s-10.92.54-10.92.39,4.86-.55,10.89-.91S379,249.31,379,249.45Z"/><path class="cls-5" d="M373.45,254.84a36.69,36.69,0,0,1-6.2.64,37.17,37.17,0,0,1-6.23.11,37.19,37.19,0,0,1,6.2-.63A37.89,37.89,0,0,1,373.45,254.84Z"/><path class="cls-6" d="M399.83,231.55s.22,25.93,1.53,33.84l32.53-1.53s-2.86-25.49-1.76-32.31Z"/><path class="cls-5" d="M427.23,242.45c0,.14-4.87.55-10.9.91s-10.92.54-10.93.4,4.87-.56,10.9-.92S427.22,242.3,427.23,242.45Z"/><path class="cls-5" d="M427.23,247.94c0,.14-4.87.55-10.89.91s-10.92.54-10.93.4,4.87-.55,10.9-.92S427.23,247.79,427.23,247.94Z"/><path class="cls-5" d="M421.71,253.33a37.37,37.37,0,0,1-6.2.63,38,38,0,0,1-6.24.12,36.69,36.69,0,0,1,6.2-.64A38.61,38.61,0,0,1,421.71,253.33Z"/><path class="cls-6" d="M434.81,235.3s.22,25.92,1.53,33.84l32.53-1.54s-2.86-25.49-1.76-32.3Z"/><path class="cls-5" d="M462.21,246.19c0,.14-4.87.55-10.9.91s-10.92.54-10.93.4,4.87-.55,10.9-.92S462.2,246,462.21,246.19Z"/><path class="cls-5" d="M462.22,251.68c0,.14-4.87.55-10.9.92s-10.92.54-10.93.39,4.87-.55,10.9-.91S462.21,251.54,462.22,251.68Z"/><path class="cls-5" d="M456.69,257.07a38,38,0,0,1-6.2.64,38.61,38.61,0,0,1-6.24.11,76.22,76.22,0,0,1,12.44-.75Z"/><path class="cls-6" d="M271.15,184.84s.22,25.93,1.54,33.84l32.52-1.54s-2.86-25.49-1.76-32.3Z"/><path class="cls-5" d="M298.55,195.73c0,.15-4.87.56-10.9.92s-10.92.54-10.92.39,4.87-.55,10.89-.91S298.54,195.59,298.55,195.73Z"/><path class="cls-5" d="M298.56,201.22c0,.15-4.87.56-10.9.92s-10.92.54-10.92.4,4.86-.56,10.89-.92S298.55,201.08,298.56,201.22Z"/><path class="cls-5" d="M293,206.62a38.69,38.69,0,0,1-6.2.63,35.93,35.93,0,0,1-6.23.11,38.51,38.51,0,0,1,6.2-.63A35.93,35.93,0,0,1,293,206.62Z"/><path class="cls-4" d="M313.61,185s.22,25.92,1.54,33.84l32.52-1.54s-2.86-25.49-1.76-32.3Z"/><path class="cls-5" d="M341,195.86c0,.14-4.87.55-10.9.91s-10.92.54-10.93.4,4.87-.55,10.9-.92S341,195.71,341,195.86Z"/><path class="cls-5" d="M341,201.35c0,.14-4.87.55-10.9.92s-10.92.54-10.93.39,4.87-.55,10.9-.91S341,201.21,341,201.35Z"/><path class="cls-5" d="M335.49,206.74a38,38,0,0,1-6.2.64,38.61,38.61,0,0,1-6.24.11,76.22,76.22,0,0,1,12.44-.75Z"/><path class="cls-6" d="M397.28,185s.22,25.93,1.54,33.84l32.52-1.54s-2.85-25.49-1.76-32.3Z"/><path class="cls-5" d="M424.68,195.87c0,.15-4.87.56-10.89.92s-10.92.54-10.93.4,4.87-.56,10.9-.92S424.67,195.73,424.68,195.87Z"/><path class="cls-5" d="M424.69,201.37c0,.14-4.87.55-10.89.91s-10.92.54-10.93.4,4.87-.56,10.89-.92S424.68,201.22,424.69,201.37Z"/><path class="cls-5" d="M419.16,206.76a37.19,37.19,0,0,1-6.2.63,37.89,37.89,0,0,1-6.23.12,36.69,36.69,0,0,1,6.2-.64A37.17,37.17,0,0,1,419.16,206.76Z"/><path class="cls-2" d="M113.56,132.87s.22,25.92,1.54,33.84l32.52-1.54s-2.86-25.49-1.76-32.3Z"/><path class="cls-5" d="M141,143.76c0,.14-4.87.55-10.89.91s-10.92.54-10.93.4,4.87-.55,10.89-.92S141,143.61,141,143.76Z"/><path class="cls-5" d="M141,149.25c0,.14-4.87.55-10.9.91s-10.91.54-10.92.4S124,150,130,149.65,141,149.11,141,149.25Z"/><path class="cls-5" d="M135.44,154.64a37.37,37.37,0,0,1-6.2.63,37.89,37.89,0,0,1-6.23.12,37.37,37.37,0,0,1,6.2-.63A37.89,37.89,0,0,1,135.44,154.64Z"/><path class="cls-4" d="M100.64,50.18s.22,25.92,1.54,33.84l32.52-1.54s-2.86-25.49-1.76-32.3Z"/><path class="cls-5" d="M128,61.07c0,.14-4.87.55-10.89.91s-10.92.54-10.93.4,4.87-.55,10.89-.92S128,60.92,128,61.07Z"/><path class="cls-5" d="M128.05,66.56c0,.14-4.87.55-10.9.92s-10.92.54-10.92.39,4.87-.55,10.89-.91S128,66.42,128.05,66.56Z"/><path class="cls-5" d="M122.52,72a38,38,0,0,1-6.2.64,38.5,38.5,0,0,1-6.23.11,37.37,37.37,0,0,1,6.2-.63A37.89,37.89,0,0,1,122.52,72Z"/><path class="cls-4" d="M101.35,89.09s.22,25.93,1.54,33.84l32.52-1.53s-2.85-25.49-1.76-32.31Z"/><path class="cls-5" d="M128.75,100c0,.15-4.87.56-10.89.92s-10.92.54-10.93.4,4.87-.56,10.9-.92S128.74,99.84,128.75,100Z"/><path class="cls-5" d="M128.76,105.48c0,.14-4.87.55-10.89.91s-10.92.54-10.93.4,4.87-.55,10.89-.92S128.75,105.33,128.76,105.48Z"/><path class="cls-5" d="M123.23,110.87a37.19,37.19,0,0,1-6.2.63,37.89,37.89,0,0,1-6.23.12A36.69,36.69,0,0,1,117,111,38.5,38.5,0,0,1,123.23,110.87Z"/><path class="cls-4" d="M141.17,50.18s.22,25.92,1.54,33.84l32.52-1.54s-2.86-25.49-1.76-32.3Z"/><path class="cls-5" d="M168.57,61.07c0,.14-4.87.55-10.9.91s-10.91.54-10.92.4,4.87-.55,10.89-.92S168.56,60.92,168.57,61.07Z"/><path class="cls-5" d="M168.58,66.56c0,.14-4.87.55-10.9.92s-10.92.54-10.92.39,4.86-.55,10.89-.91S168.57,66.42,168.58,66.56Z"/><path class="cls-5" d="M163.05,72a38,38,0,0,1-6.2.64,38.5,38.5,0,0,1-6.23.11,37.19,37.19,0,0,1,6.2-.63A37.89,37.89,0,0,1,163.05,72Z"/><path class="cls-4" d="M181.7,50.18s.22,25.92,1.54,33.84l32.52-1.54S212.9,57,214,50.18Z"/><path class="cls-5" d="M209.1,61.07c0,.14-4.87.55-10.9.91s-10.92.54-10.92.4,4.87-.55,10.89-.92S209.09,60.92,209.1,61.07Z"/><path class="cls-5" d="M209.11,66.56c0,.14-4.87.55-10.9.92s-10.92.54-10.92.39,4.86-.55,10.89-.91S209.1,66.42,209.11,66.56Z"/><path class="cls-5" d="M203.58,72a38,38,0,0,1-6.2.64,38.5,38.5,0,0,1-6.23.11,37.19,37.19,0,0,1,6.2-.63A37.89,37.89,0,0,1,203.58,72Z"/><path class="cls-4" d="M222.23,50.18s.22,25.92,1.54,33.84l32.52-1.54s-2.86-25.49-1.76-32.3Z"/><path class="cls-5" d="M249.63,61.07c0,.14-4.87.55-10.9.91s-10.92.54-10.92.4,4.87-.55,10.89-.92S249.62,60.92,249.63,61.07Z"/><path class="cls-5" d="M249.64,66.56c0,.14-4.87.55-10.9.92s-10.92.54-10.93.39,4.87-.55,10.9-.91S249.63,66.42,249.64,66.56Z"/><path class="cls-5" d="M244.11,72a38,38,0,0,1-6.2.64,38.5,38.5,0,0,1-6.23.11,37.19,37.19,0,0,1,6.2-.63A37.89,37.89,0,0,1,244.11,72Z"/><path class="cls-4" d="M276.4,55.92s.22,25.93,1.54,33.84l32.52-1.54s-2.85-25.49-1.76-32.3Z"/><path class="cls-5" d="M303.8,66.81c0,.14-4.87.55-10.89.92s-10.92.54-10.93.39,4.87-.55,10.9-.91S303.79,66.67,303.8,66.81Z"/><path class="cls-5" d="M303.81,72.3c0,.15-4.87.56-10.89.92s-10.92.54-10.93.39,4.87-.55,10.9-.91S303.8,72.16,303.81,72.3Z"/><path class="cls-5" d="M298.28,77.69a36.52,36.52,0,0,1-6.2.64,37.17,37.17,0,0,1-6.23.11,37.37,37.37,0,0,1,6.2-.63A37.85,37.85,0,0,1,298.28,77.69Z"/><path class="cls-4" d="M312.69,56.47s.22,25.93,1.54,33.84l32.52-1.53S343.89,63.29,345,56.47Z"/><path class="cls-5" d="M340.09,67.36c0,.15-4.87.56-10.9.92s-10.91.54-10.92.4,4.87-.56,10.89-.92S340.08,67.22,340.09,67.36Z"/><path class="cls-5" d="M340.1,72.86c0,.14-4.87.55-10.9.91s-10.92.54-10.92.4,4.86-.55,10.89-.92S340.09,72.71,340.1,72.86Z"/><path class="cls-5" d="M334.57,78.25a37.37,37.37,0,0,1-6.2.63,37.89,37.89,0,0,1-6.23.12,36.52,36.52,0,0,1,6.2-.64A38.5,38.5,0,0,1,334.57,78.25Z"/><path class="cls-4" d="M352.77,57.64s.22,25.92,1.54,33.84l32.52-1.54s-2.86-25.49-1.76-32.3Z"/><path class="cls-5" d="M380.17,68.53c0,.14-4.87.55-10.9.91s-10.92.54-10.92.4,4.87-.55,10.89-.92S380.16,68.38,380.17,68.53Z"/><path class="cls-5" d="M380.18,74c0,.14-4.87.55-10.9.91s-10.92.54-10.93.4,4.87-.55,10.9-.92S380.17,73.88,380.18,74Z"/><path class="cls-5" d="M374.65,79.41a37.37,37.37,0,0,1-6.2.63,37.89,37.89,0,0,1-6.23.12,37.19,37.19,0,0,1,6.2-.63A37.89,37.89,0,0,1,374.65,79.41Z"/><path class="cls-4" d="M400.4,56.29s.22,25.93,1.54,33.84l32.52-1.54s-2.85-25.49-1.75-32.3Z"/><path class="cls-5" d="M427.81,67.18c0,.15-4.88.56-10.9.92s-10.92.54-10.93.4,4.87-.56,10.9-.92S427.8,67,427.81,67.18Z"/><path class="cls-5" d="M427.81,72.68c0,.14-4.87.55-10.89.91S406,74.13,406,74s4.87-.56,10.9-.92S427.81,72.53,427.81,72.68Z"/><path class="cls-5" d="M422.29,78.07a76.22,76.22,0,0,1-12.44.75,36.69,36.69,0,0,1,6.2-.64A37.28,37.28,0,0,1,422.29,78.07Z"/><path class="cls-4" d="M404.37,98.56s.22,25.93,1.54,33.84l32.52-1.54s-2.86-25.49-1.76-32.3Z"/><path class="cls-5" d="M431.77,109.45c0,.15-4.87.56-10.9.92s-10.92.54-10.93.4,4.87-.56,10.9-.92S431.76,109.31,431.77,109.45Z"/><path class="cls-5" d="M431.78,115c0,.14-4.87.55-10.9.91s-10.92.54-10.93.4,4.87-.56,10.9-.92S431.77,114.8,431.78,115Z"/><path class="cls-5" d="M426.25,120.34a37.37,37.37,0,0,1-6.2.63,38,38,0,0,1-6.24.12,73.36,73.36,0,0,1,12.44-.75Z"/><path class="cls-6" d="M429,59.92s.22,25.93,1.54,33.84L463,92.22s-2.86-25.49-1.76-32.3Z"/><path class="cls-5" d="M456.38,70.81c0,.14-4.87.55-10.9.91s-10.91.54-10.92.4,4.87-.55,10.89-.92S456.37,70.66,456.38,70.81Z"/><path class="cls-5" d="M456.39,76.3c0,.14-4.87.55-10.9.92s-10.92.54-10.92.39,4.86-.55,10.89-.91S456.38,76.16,456.39,76.3Z"/><path class="cls-5" d="M450.86,81.69a36.69,36.69,0,0,1-6.2.64,38.5,38.5,0,0,1-6.23.11,37.19,37.19,0,0,1,6.2-.63A37.89,37.89,0,0,1,450.86,81.69Z"/><path class="cls-6" d="M285.19,77.09s.22,25.93,1.54,33.84l32.52-1.54s-2.86-25.49-1.76-32.3Z"/><path class="cls-5" d="M312.59,88c0,.14-4.87.56-10.9.92s-10.92.54-10.92.39,4.87-.55,10.89-.91S312.58,87.84,312.59,88Z"/><path class="cls-5" d="M312.6,93.47c0,.15-4.87.56-10.9.92s-10.92.54-10.93.4,4.87-.56,10.9-.92S312.59,93.33,312.6,93.47Z"/><path class="cls-5" d="M307.07,98.87a38.69,38.69,0,0,1-6.2.63,35.93,35.93,0,0,1-6.23.11,38.51,38.51,0,0,1,6.2-.63A35.93,35.93,0,0,1,307.07,98.87Z"/><path class="cls-4" d="M281.1,134.64s.22,25.93,1.54,33.84l32.52-1.54s-2.86-25.49-1.76-32.3Z"/><path class="cls-5" d="M308.5,145.53c0,.14-4.87.55-10.9.91s-10.92.54-10.93.4,4.87-.55,10.9-.92S308.49,145.38,308.5,145.53Z"/><path class="cls-5" d="M308.51,151c0,.14-4.87.55-10.9.92s-10.92.54-10.93.39,4.87-.55,10.9-.91S308.5,150.88,308.51,151Z"/><path class="cls-5" d="M303,156.41a36.69,36.69,0,0,1-6.2.64,38.45,38.45,0,0,1-6.23.11,37.19,37.19,0,0,1,6.2-.63A37.89,37.89,0,0,1,303,156.41Z"/><path class="cls-7" d="M179.18,78.32s2.63,24-.75,37.16l-32.09-1.4s6.87-23.69,2.65-34.19Z"/><path class="cls-6" d="M146.16,74.24s-2,27.24-3.77,32.73l29.22,3.08,4.4-4.18s3.11-24,2.67-30.84Z"/><polygon class="cls-2" points="172.27 105.65 171.61 110.05 176.01 105.87 172.27 105.65"/><path class="cls-5" d="M172.6,88a23.82,23.82,0,0,1-3.28-.39l-7.86-1.11-7.89-1a25,25,0,0,1-3.26-.48,18.82,18.82,0,0,1,3.3.11c2,.15,4.83.43,7.92.83s5.86.88,7.86,1.27A18.39,18.39,0,0,1,172.6,88Z"/><path class="cls-5" d="M171.33,94a17.26,17.26,0,0,1-3.16-.11c-1.95-.14-4.63-.4-7.59-.78S155,92.32,153,92A17.44,17.44,0,0,1,150,91.3a21.34,21.34,0,0,1,3.15.32l7.55,1,7.55.92A20.94,20.94,0,0,1,171.33,94Z"/><path class="cls-5" d="M169.5,99.53a93.84,93.84,0,0,1-9.82-1.06,93.26,93.26,0,0,1-9.76-1.57A94.15,94.15,0,0,1,159.75,98,93.33,93.33,0,0,1,169.5,99.53Z"/><path class="cls-6" d="M76.65,107.06s-2,27.24-3.77,32.73l29.22,3.08,4.4-4.18s3.11-24,2.67-30.83Z"/><polygon class="cls-2" points="102.76 138.47 102.1 142.87 106.5 138.69 102.76 138.47"/><path class="cls-5" d="M103.09,120.82a20.44,20.44,0,0,1-3.28-.39L92,119.32l-7.88-1a23,23,0,0,1-3.27-.48,18.82,18.82,0,0,1,3.3.11c2,.15,4.83.43,7.92.84s5.86.87,7.86,1.26A19.6,19.6,0,0,1,103.09,120.82Z"/><path class="cls-5" d="M101.82,126.83a18,18,0,0,1-3.16-.12c-2-.14-4.63-.4-7.59-.77s-5.62-.79-7.54-1.14a17.44,17.44,0,0,1-3.09-.68,21.34,21.34,0,0,1,3.15.32l7.55,1,7.55.93A19.43,19.43,0,0,1,101.82,126.83Z"/><path class="cls-5" d="M100,132.35a93.84,93.84,0,0,1-9.82-1.06,93.26,93.26,0,0,1-9.76-1.57,94.15,94.15,0,0,1,9.83,1.06A93.33,93.33,0,0,1,100,132.35Z"/><rect class="cls-4" x="21.5" y="55.48" width="24.42" height="5.58"/><rect class="cls-2" x="21.5" y="188.79" width="24.42" height="5.58"/><rect class="cls-2" x="21.5" y="233.9" width="24.42" height="5.58"/><rect class="cls-3" x="114.69" y="22.52" width="84.3" height="5.58"/><rect class="cls-3" x="282.6" y="22.52" width="84.3" height="5.58"/><rect class="cls-3" x="407.77" y="22.52" width="40.26" height="5.58"/><path class="cls-2" d="M458.8,46.45c0,.15-98.84.27-220.73.27S17.32,46.6,17.32,46.45s98.81-.26,220.75-.26S458.8,46.31,458.8,46.45Z"/><path class="cls-2" d="M458.8,179.15c0,.15-98.84.26-220.73.26s-220.75-.11-220.75-.26,98.81-.26,220.75-.26S458.8,179,458.8,179.15Z"/><path class="cls-2" d="M458.8,270.23c0,.15-98.84.26-220.73.26s-220.75-.11-220.75-.26,98.81-.26,220.75-.26S458.8,270.09,458.8,270.23Z"/><path class="cls-2" d="M458.8,225.83c0,.14-98.84.26-220.73.26S17.32,226,17.32,225.83s98.81-.26,220.75-.26S458.8,225.68,458.8,225.83Z"/><path class="cls-2" d="M54.73,271.43c-.14,0-.26-56.39-.26-126s.12-126,.26-126,.26,56.39.26,126S54.87,271.43,54.73,271.43Z"/><path class="cls-2" d="M258.7,272.74c-.14,0-.26-56.31-.26-125.75s.12-125.75.26-125.75S259,77.53,259,147,258.85,272.74,258.7,272.74Z"/><path class="cls-2" d="M390.8,274.06c-.15,0-.26-56.31-.26-125.76s.11-125.78.26-125.78.26,56.31.26,125.78S390.94,274.06,390.8,274.06Z"/><path class="cls-2" d="M309.66,129.09l.4.14,1.15.48a22.31,22.31,0,0,1,4.07,2.51,23.49,23.49,0,0,1,5.17,5.53,26.31,26.31,0,0,1,2.28,4.16,25.44,25.44,0,0,1,1.52,5.09,23.72,23.72,0,0,1-1.05,12.06,26.24,26.24,0,0,1-7.95,11.38,25.37,25.37,0,0,1-14.19,5.7A27.76,27.76,0,0,1,285,172.7a27.25,27.25,0,0,1-11.11-12.09,23.83,23.83,0,0,1-1.81-15.17,24.09,24.09,0,0,1,6.7-12.13,20.65,20.65,0,0,1,5.18-3.66,22.15,22.15,0,0,1,5.52-2,34.45,34.45,0,0,1,10-.63,62.73,62.73,0,0,1,7.5,1c2,.38,3.62.75,4.68,1l1.21.29a2.19,2.19,0,0,1,.4.12l-.42-.06-1.21-.25c-1.07-.22-2.65-.55-4.69-.9a63.21,63.21,0,0,0-7.49-.92,34.24,34.24,0,0,0-9.9.69,22.46,22.46,0,0,0-5.41,1.95,20.53,20.53,0,0,0-5.07,3.62,23.73,23.73,0,0,0-6.53,11.92,23.33,23.33,0,0,0,1.8,14.85,26.87,26.87,0,0,0,10.91,11.86A27.35,27.35,0,0,0,301,175.63,24.9,24.9,0,0,0,315,170.07a25.85,25.85,0,0,0,7.84-11.16,23.35,23.35,0,0,0,1.1-11.84,25.7,25.7,0,0,0-1.47-5,26.28,26.28,0,0,0-2.21-4.13,23.89,23.89,0,0,0-5-5.53,23.34,23.34,0,0,0-4-2.58l-1.12-.52A2.54,2.54,0,0,1,309.66,129.09Z"/><path class="cls-2" d="M320.17,132.2c-.09-.11,3.91-3.44,8.93-7.44s9.18-7.14,9.27-7-3.92,3.44-8.94,7.44S320.26,132.32,320.17,132.2Z"/><path class="cls-2" d="M336,132.82a6.72,6.72,0,0,1-1.29.18l-3.52.3c-3,.24-7.1.53-11.68.82l-.38,0,.11-.36c.05-.14.09-.29.14-.44a45.77,45.77,0,0,1,5-10.93c.83-1.3,1.56-2.31,2.1-3a6,6,0,0,1,.88-1,7.49,7.49,0,0,1-.72,1.14c-.48.71-1.16,1.74-1.94,3.06a50.64,50.64,0,0,0-4.85,10.9c-.05.14-.09.29-.14.43l-.26-.34c4.58-.29,8.71-.52,11.69-.66l3.53-.14A6,6,0,0,1,336,132.82Z"/><path class="cls-2" d="M448.47,195.23s.31-.76.87-2.12a39.22,39.22,0,0,0,1.87-5.93,38,38,0,0,0-17.08-40.75c-1.25-.77-2-1.17-1.95-1.21a3.2,3.2,0,0,1,.55.24c.34.18.87.41,1.51.79a34.42,34.42,0,0,1,5.14,3.59,37.11,37.11,0,0,1,12.19,37.43,35.24,35.24,0,0,1-2.05,5.92c-.29.68-.58,1.18-.75,1.53A2.87,2.87,0,0,1,448.47,195.23Z"/><path class="cls-2" d="M457.73,189.56a22,22,0,0,1-2.64,2.31l-2.95,2.39c-.57.44-1.15.91-1.76,1.39a3.74,3.74,0,0,1-2.27,1.14,1.45,1.45,0,0,1-1.17-.8,5,5,0,0,1-.4-1.18c-.2-.75-.38-1.48-.56-2.17-.33-1.36-.64-2.6-.91-3.69a24.23,24.23,0,0,1-.71-3.43,23.27,23.27,0,0,1,1.07,3.33c.3,1.09.64,2.32,1,3.66.18.7.38,1.42.58,2.17s.44,1.56,1.12,1.59,1.31-.55,1.92-1l1.77-1.37,3-2.3A25.73,25.73,0,0,1,457.73,189.56Z"/><path class="cls-2" d="M202.86,128.8c0,.14-9.94,2.8-22.27,5.94s-22.36,5.56-22.4,5.42,9.94-2.79,22.27-5.93S202.82,128.66,202.86,128.8Z"/><path class="cls-2" d="M209.31,134.1c0,.14-10.92,3.31-24.48,7.09s-24.57,6.73-24.61,6.59,10.92-3.31,24.47-7.09S209.27,134,209.31,134.1Z"/><path class="cls-2" d="M213.25,142.86c0,.14-10.45,2.77-23.41,5.88s-23.5,5.5-23.54,5.36,10.45-2.76,23.42-5.87S213.21,142.72,213.25,142.86Z"/><polygon class="cls-7" points="157.83 234.43 165.78 276.44 245.21 261.41 231.41 220.5 157.83 234.43"/><rect class="cls-5" x="159.03" y="227.29" width="76.56" height="37.88" transform="translate(-42.36 41) rotate(-10.72)"/><path class="cls-2" d="M238.45,257.72s-.06-.23-.15-.67-.22-1.1-.39-1.94c-.33-1.72-.82-4.22-1.45-7.43-1.24-6.43-3-15.71-5.24-27.14l.22.15L156.23,235h0l.2-.3c2.48,13.12,4.86,25.71,7,37.22l-.28-.2,54-10.1,15.61-2.89L237,258l1.08-.19.38-.06a2.94,2.94,0,0,1-.34.09l-1.06.21-4.11.81-15.53,3-54.14,10.37-.24,0L163,272c-2.18-11.51-4.57-24.1-7.06-37.22l0-.25.26,0h0l75.24-14.18.19,0,0,.19c2.14,11.5,3.87,20.82,5.07,27.3.58,3.19,1,5.68,1.35,7.4.15.83.26,1.46.34,1.91S238.45,257.72,238.45,257.72Z"/><rect class="cls-5" x="167" y="239.38" width="21.17" height="21.17" transform="translate(-43.4 37.39) rotate(-10.72)"/><path class="cls-2" d="M190,258.4a2.51,2.51,0,0,1-.11-.4c-.06-.3-.14-.67-.24-1.13-.21-1-.49-2.45-.86-4.24-.72-3.67-1.74-8.82-2.95-15l.26.18-20.79,4c-.05.07.39-.57.21-.3h0v.07l0,.09,0,.17.07.36.13.71.27,1.41c.18.94.35,1.86.52,2.78l1,5.38c.65,3.49,1.26,6.79,1.83,9.82l-.27-.18,15-2.73,4.27-.75,1.14-.19a2.32,2.32,0,0,1,.41-.05,1.37,1.37,0,0,1-.36.09l-1.08.24-4.19.85-15.13,3-.22,0,0-.22-1.88-9.81c-.33-1.74-.67-3.54-1-5.37-.18-.92-.35-1.85-.53-2.78l-.27-1.41-.13-.71-.07-.36,0-.18,0-.09v-.06h0l.21-.31,20.81-3.9.22,0,0,.22c1.13,6.24,2.08,11.46,2.75,15.17.32,1.78.56,3.19.74,4.21.08.45.14.81.18,1.1A2.11,2.11,0,0,1,190,258.4Z"/><path class="cls-2" d="M190,258.4c-.05,0-.12-.54-.42-1.49a7.25,7.25,0,0,0-2.2-3.49l0,0a7.74,7.74,0,0,0-2.57-1.56,8,8,0,0,0-3.5-.4l-.47,0,.25-.39a5.26,5.26,0,0,0,.19-5,4.77,4.77,0,0,0-1.84-2.07,5,5,0,0,0-2.82-.65,5.3,5.3,0,0,0-3.05,1.13,4.6,4.6,0,0,0-1.61,2.63,5.31,5.31,0,0,0,1.71,5.19l.24.2-.27.16a9.07,9.07,0,0,0-3.13,3.2,9.83,9.83,0,0,0-1.21,3.28,13.11,13.11,0,0,0-.07,3.06,3.19,3.19,0,0,1-.19-.8,8.74,8.74,0,0,1,0-2.3,9.62,9.62,0,0,1,1.14-3.41,9.28,9.28,0,0,1,3.23-3.4l0,.36a5.75,5.75,0,0,1-1.92-5.65,5,5,0,0,1,1.78-2.92,5.78,5.78,0,0,1,3.34-1.25,5.48,5.48,0,0,1,3.11.73,5.14,5.14,0,0,1,2,2.3,5.7,5.7,0,0,1-.26,5.44l-.21-.35a8.36,8.36,0,0,1,3.68.48,8,8,0,0,1,2.67,1.7l0,0a7.2,7.2,0,0,1,2.18,3.72,8,8,0,0,1,.22,1.14A2.4,2.4,0,0,1,190,258.4Z"/><path class="cls-5" d="M194,236.87l18-3.41"/><path class="cls-2" d="M212,233.46a81,81,0,0,1-9,2,81.91,81.91,0,0,1-9.07,1.45,81.63,81.63,0,0,1,9-2A76.59,76.59,0,0,1,212,233.46Z"/><path class="cls-5" d="M194.75,241.06l3.64-.69"/><path class="cls-2" d="M198.39,240.37c0,.14-.77.41-1.77.6s-1.85.23-1.87.09.76-.41,1.77-.6S198.36,240.23,198.39,240.37Z"/><path class="cls-2" d="M228.37,242.24c0,.14-7.17,1.62-16.07,3.31s-16.15,2.94-16.17,2.8,7.17-1.63,16.07-3.31S228.35,242.1,228.37,242.24Z"/><path class="cls-2" d="M229.24,245.85c0,.14-7.21,1.63-16.16,3.33s-16.24,2.95-16.26,2.81,7.21-1.63,16.16-3.32S229.22,245.71,229.24,245.85Z"/><path class="cls-2" d="M229.49,250.15a6.39,6.39,0,0,1-1.23.33l-3.4.73c-2.88.59-6.86,1.38-11.26,2.21s-8.39,1.56-11.29,2.06l-3.43.56a5.19,5.19,0,0,1-1.27.14,6.77,6.77,0,0,1,1.23-.34l3.4-.72c2.88-.6,6.86-1.38,11.26-2.21s8.39-1.56,11.29-2.06l3.43-.57A5.42,5.42,0,0,1,229.49,250.15Z"/><path class="cls-8" d="M196.7,232.78a1.13,1.13,0,0,1,.2-.12l.6-.31a20.78,20.78,0,0,1,2.43-1,22.18,22.18,0,0,1,9.55-.89,20.21,20.21,0,0,1,6.41,1.84,8.86,8.86,0,0,1,3,2.33,4.45,4.45,0,0,1,.89,3.88,6.49,6.49,0,0,1-2.47,3.39,20.14,20.14,0,0,1-3.73,2.21,35.17,35.17,0,0,1-8.58,2.94,20.83,20.83,0,0,1-9.07-.12,13.55,13.55,0,0,1-4-1.66,6.69,6.69,0,0,1-2.74-3.19,4.68,4.68,0,0,1,.44-4,9.52,9.52,0,0,1,2.56-2.75,25.3,25.3,0,0,1,5.85-3.19,26.15,26.15,0,0,1,9.45-1.68,21.9,21.9,0,0,1,2.61.2l.68.1a.66.66,0,0,1,.22.06.68.68,0,0,1-.23,0l-.68-.06c-.59-.05-1.47-.1-2.6-.09a26.44,26.44,0,0,0-9.31,1.82,25.09,25.09,0,0,0-5.73,3.18,9.41,9.41,0,0,0-2.42,2.64,4.18,4.18,0,0,0-.39,3.57,6.18,6.18,0,0,0,2.56,2.93,12.67,12.67,0,0,0,3.88,1.58,20.39,20.39,0,0,0,8.84.11,35,35,0,0,0,8.46-2.89,20.46,20.46,0,0,0,3.65-2.14,6.13,6.13,0,0,0,2.31-3.12,4,4,0,0,0-.8-3.48,8.17,8.17,0,0,0-2.79-2.22,20.25,20.25,0,0,0-6.26-1.87,22.85,22.85,0,0,0-9.44.72,23.91,23.91,0,0,0-2.44.88l-.63.26C196.78,232.77,196.7,232.79,196.7,232.78Z"/><path class="cls-8" d="M218.28,232.24a48.46,48.46,0,0,1,5.34-4.68,49.59,49.59,0,0,1,5.67-4.28A48.46,48.46,0,0,1,224,228,49.59,49.59,0,0,1,218.28,232.24Z"/><path class="cls-8" d="M225,231.33a40.4,40.4,0,0,1-6.24,1.55L218,233l-.4.08.09-.4a13.46,13.46,0,0,1,2.26-5.2c.14.06-1,2.25-1.75,5.33l-.31-.32.76-.15A39.2,39.2,0,0,1,225,231.33Z"/><path class="cls-9" d="M213.8,235.88a97.79,97.79,0,0,1-9.9,1.78,99,99,0,0,1-10,1.27,96,96,0,0,1,9.9-1.79A94.18,94.18,0,0,1,213.8,235.88Z"/><path class="cls-4" d="M191.25,227.88a4.62,4.62,0,1,1-5.39-3.68A4.62,4.62,0,0,1,191.25,227.88Z"/><path class="cls-2" d="M186.71,233.39a4.65,4.65,0,0,1-.86-9.21,4.27,4.27,0,0,1,.87-.08,4.65,4.65,0,0,1,4.56,3.78h0a4.65,4.65,0,0,1-3.7,5.42A4.28,4.28,0,0,1,186.71,233.39Zm0-9.24a4.17,4.17,0,0,0-.86.08,4.59,4.59,0,1,0,5.37,3.66h0A4.61,4.61,0,0,0,186.72,224.15Z"/></g></svg>